<svg width="100" height="23" viewBox="0 0 100 23" fill="none" xmlns="http://www.w3.org/2000/svg">
<g clip-path="url(#clip0_398_14547)">
<path d="M8.99755 0.75C9.10804 0.750054 9.21637 0.780616 9.31059 0.838315C9.40482 0.896015 9.48128 0.978612 9.53155 1.077L11.9855 5.93775L16.7076 6.40575C16.8199 6.4151 16.9273 6.45645 17.0169 6.52491C17.1065 6.59336 17.1746 6.68606 17.2132 6.79202C17.2518 6.89799 17.2592 7.01278 17.2346 7.12284C17.21 7.23288 17.1544 7.33358 17.0743 7.413L13.1878 11.265L14.6286 16.4993C14.6505 16.5822 14.6544 16.669 14.6398 16.7536C14.6251 16.8382 14.5924 16.9186 14.5439 16.9894C14.4953 17.0602 14.432 17.1196 14.3584 17.1637C14.2847 17.2078 14.2024 17.2354 14.1171 17.2448L14.0323 17.2477C13.9462 17.2449 13.8618 17.2234 13.7848 17.1847L8.99755 14.8148L4.2163 17.1818C4.16475 17.2078 4.10967 17.2263 4.0528 17.2365L3.9688 17.2448C3.87587 17.2478 3.7835 17.2292 3.69908 17.1902C3.61466 17.1512 3.54051 17.0931 3.48258 17.0203C3.42465 16.9476 3.38452 16.8623 3.36542 16.7713C3.34631 16.6803 3.34876 16.5861 3.37255 16.4963L4.81255 11.262L0.92455 7.41C0.844492 7.33058 0.788861 7.22989 0.76424 7.11983C0.739619 7.00979 0.747039 6.89499 0.785622 6.78902C0.824204 6.68306 0.892335 6.59036 0.981951 6.52191C1.07157 6.45345 1.17892 6.4121 1.2913 6.40275L6.0133 5.93475L8.46355 1.077C8.51382 0.978612 8.59029 0.896015 8.68451 0.838315C8.77874 0.780616 8.88706 0.750054 8.99755 0.75Z" fill="black"/>
</g>
<g clip-path="url(#clip1_398_14547)">
<path d="M28.9976 0.75C29.108 0.750054 29.2164 0.780616 29.3106 0.838315C29.4048 0.896015 29.4813 0.978612 29.5316 1.077L31.9855 5.93775L36.7076 6.40575C36.8199 6.4151 36.9273 6.45645 37.0169 6.52491C37.1065 6.59336 37.1746 6.68606 37.2132 6.79202C37.2518 6.89799 37.2592 7.01278 37.2346 7.12284C37.21 7.23288 37.1544 7.33358 37.0743 7.413L33.1878 11.265L34.6286 16.4993C34.6505 16.5822 34.6544 16.669 34.6398 16.7536C34.6251 16.8382 34.5924 16.9186 34.5439 16.9894C34.4953 17.0602 34.432 17.1196 34.3584 17.1637C34.2847 17.2078 34.2024 17.2354 34.1171 17.2448L34.0323 17.2477C33.9462 17.2449 33.8618 17.2234 33.7848 17.1847L28.9976 14.8148L24.2163 17.1818C24.1647 17.2078 24.1097 17.2263 24.0528 17.2365L23.9688 17.2448C23.8759 17.2478 23.7835 17.2292 23.6991 17.1902C23.6147 17.1512 23.5405 17.0931 23.4826 17.0203C23.4246 16.9476 23.3845 16.8623 23.3654 16.7713C23.3463 16.6803 23.3488 16.5861 23.3726 16.4963L24.8126 11.262L20.9246 7.41C20.8445 7.33058 20.7889 7.22989 20.7642 7.11983C20.7396 7.00979 20.747 6.89499 20.7856 6.78902C20.8242 6.68306 20.8923 6.59036 20.982 6.52191C21.0716 6.45345 21.1789 6.4121 21.2913 6.40275L26.0133 5.93475L28.4636 1.077C28.5138 0.978612 28.5903 0.896015 28.6845 0.838315C28.7787 0.780616 28.8871 0.750054 28.9976 0.75Z" fill="black"/>
</g>
<g clip-path="url(#clip2_398_14547)">
<path d="M48.9976 0.75C49.108 0.750054 49.2164 0.780616 49.3106 0.838315C49.4048 0.896015 49.4813 0.978612 49.5316 1.077L51.9855 5.93775L56.7076 6.40575C56.8199 6.4151 56.9273 6.45645 57.0169 6.52491C57.1065 6.59336 57.1746 6.68606 57.2132 6.79202C57.2518 6.89799 57.2592 7.01279 57.2346 7.12284C57.21 7.23289 57.1544 7.33358 57.0743 7.413L53.1878 11.265L54.6286 16.4993C54.6579 16.6102 54.6546 16.7273 54.6191 16.8365C54.5835 16.9456 54.5172 17.0422 54.4281 17.1146C54.339 17.187 54.2309 17.2321 54.1168 17.2445C54.0027 17.257 53.8874 17.2362 53.7848 17.1848L48.9976 14.8148L44.2163 17.1818C44.1137 17.2332 43.9984 17.254 43.8843 17.2415C43.7702 17.2291 43.6621 17.184 43.573 17.1116C43.4839 17.0392 43.4176 16.9426 43.382 16.8335C43.3465 16.7243 43.3432 16.6072 43.3726 16.4963L44.8126 11.262L40.9246 7.41C40.8445 7.33058 40.7889 7.22989 40.7642 7.11984C40.7396 7.00979 40.747 6.89499 40.7856 6.78902C40.8242 6.68306 40.8923 6.59036 40.982 6.52191C41.0716 6.45345 41.1789 6.4121 41.2913 6.40275L46.0133 5.93475L48.4636 1.077C48.5138 0.978612 48.5903 0.896015 48.6845 0.838315C48.7787 0.780616 48.8871 0.750054 48.9976 0.75ZM48.9976 2.45925L46.9951 6.42975C46.8421 6.73275 46.5601 6.94575 46.2323 7.0125L46.1213 7.029L42.4666 7.3905L45.5866 10.4805C45.8438 10.7355 45.9578 11.097 45.8971 11.4488L45.8738 11.5538L44.7316 15.6983L48.5093 13.8285C48.7823 13.6935 49.0981 13.6785 49.3808 13.7835L49.4858 13.8285L53.268 15.7013L52.1281 11.5568C52.081 11.3862 52.0759 11.2068 52.1129 11.0338C52.15 10.8608 52.2283 10.6993 52.341 10.563L52.4138 10.4835L55.5308 7.3935L51.8768 7.032C51.7116 7.01559 51.5522 6.962 51.4106 6.87523C51.269 6.78847 51.1489 6.67078 51.0593 6.531L51.003 6.4335L48.9976 2.45925Z" fill="black"/>
</g>
<g clip-path="url(#clip3_398_14547)">
<path d="M68.9976 0.75C69.108 0.750054 69.2164 0.780616 69.3106 0.838315C69.4048 0.896015 69.4813 0.978612 69.5316 1.077L71.9855 5.93775L76.7076 6.40575C76.8199 6.4151 76.9273 6.45645 77.0169 6.52491C77.1065 6.59336 77.1746 6.68606 77.2132 6.79202C77.2518 6.89799 77.2592 7.01279 77.2346 7.12284C77.21 7.23289 77.1544 7.33358 77.0743 7.413L73.1878 11.265L74.6286 16.4993C74.6579 16.6102 74.6546 16.7273 74.6191 16.8365C74.5835 16.9456 74.5172 17.0422 74.4281 17.1146C74.339 17.187 74.2309 17.2321 74.1168 17.2445C74.0027 17.257 73.8874 17.2362 73.7848 17.1848L68.9976 14.8148L64.2163 17.1818C64.1137 17.2332 63.9984 17.254 63.8843 17.2415C63.7702 17.2291 63.6621 17.184 63.573 17.1116C63.4839 17.0392 63.4176 16.9426 63.382 16.8335C63.3465 16.7243 63.3432 16.6072 63.3726 16.4963L64.8126 11.262L60.9246 7.41C60.8445 7.33058 60.7889 7.22989 60.7642 7.11984C60.7396 7.00979 60.747 6.89499 60.7856 6.78902C60.8242 6.68306 60.8923 6.59036 60.982 6.52191C61.0716 6.45345 61.1789 6.4121 61.2913 6.40275L66.0133 5.93475L68.4636 1.077C68.5138 0.978612 68.5903 0.896015 68.6845 0.838315C68.7787 0.780616 68.8871 0.750054 68.9976 0.75ZM68.9976 2.45925L66.9951 6.42975C66.8421 6.73275 66.5601 6.94575 66.2323 7.0125L66.1213 7.029L62.4666 7.3905L65.5866 10.4805C65.8438 10.7355 65.9578 11.097 65.8971 11.4488L65.8738 11.5538L64.7316 15.6983L68.5093 13.8285C68.7823 13.6935 69.0981 13.6785 69.3808 13.7835L69.4858 13.8285L73.268 15.7013L72.1281 11.5568C72.081 11.3862 72.0759 11.2068 72.1129 11.0338C72.15 10.8608 72.2283 10.6993 72.341 10.563L72.4138 10.4835L75.5308 7.3935L71.8768 7.032C71.7116 7.01559 71.5522 6.962 71.4106 6.87523C71.269 6.78847 71.1489 6.67078 71.0593 6.531L71.003 6.4335L68.9976 2.45925Z" fill="black"/>
</g>
<g clip-path="url(#clip4_398_14547)">
<path d="M88.9976 0.75C89.108 0.750054 89.2164 0.780616 89.3106 0.838315C89.4048 0.896015 89.4813 0.978612 89.5316 1.077L91.9855 5.93775L96.7076 6.40575C96.8199 6.4151 96.9273 6.45645 97.0169 6.52491C97.1065 6.59336 97.1746 6.68606 97.2132 6.79202C97.2518 6.89799 97.2592 7.01279 97.2346 7.12284C97.21 7.23289 97.1544 7.33358 97.0743 7.413L93.1878 11.265L94.6286 16.4993C94.6579 16.6102 94.6546 16.7273 94.6191 16.8365C94.5835 16.9456 94.5172 17.0422 94.4281 17.1146C94.339 17.187 94.2309 17.2321 94.1168 17.2445C94.0027 17.257 93.8874 17.2362 93.7848 17.1848L88.9976 14.8148L84.2163 17.1818C84.1137 17.2332 83.9984 17.254 83.8843 17.2415C83.7702 17.2291 83.6621 17.184 83.573 17.1116C83.4839 17.0392 83.4176 16.9426 83.382 16.8335C83.3465 16.7243 83.3432 16.6072 83.3726 16.4963L84.8126 11.262L80.9246 7.41C80.8445 7.33058 80.7889 7.22989 80.7642 7.11984C80.7396 7.00979 80.747 6.89499 80.7856 6.78902C80.8242 6.68306 80.8923 6.59036 80.982 6.52191C81.0716 6.45345 81.1789 6.4121 81.2913 6.40275L86.0133 5.93475L88.4636 1.077C88.5138 0.978612 88.5903 0.896015 88.6845 0.838315C88.7787 0.780616 88.8871 0.750054 88.9976 0.75ZM88.9976 2.45925L86.9951 6.42975C86.8421 6.73275 86.5601 6.94575 86.2323 7.0125L86.1213 7.029L82.4666 7.3905L85.5866 10.4805C85.8438 10.7355 85.9578 11.097 85.8971 11.4488L85.8738 11.5538L84.7316 15.6983L88.5093 13.8285C88.7823 13.6935 89.0981 13.6785 89.3808 13.7835L89.4858 13.8285L93.268 15.7013L92.1281 11.5568C92.081 11.3862 92.0759 11.2068 92.1129 11.0338C92.15 10.8608 92.2283 10.6993 92.341 10.563L92.4138 10.4835L95.5308 7.3935L91.8768 7.032C91.7116 7.01559 91.5522 6.962 91.4106 6.87523C91.269 6.78847 91.1489 6.67078 91.0593 6.531L91.003 6.4335L88.9976 2.45925Z" fill="black"/>
</g>
<defs>
<clipPath id="clip0_398_14547">
<rect width="18" height="18" fill="white"/>
</clipPath>
<clipPath id="clip1_398_14547">
<rect width="18" height="18" fill="white" transform="translate(20)"/>
</clipPath>
<clipPath id="clip2_398_14547">
<rect width="18" height="18" fill="white" transform="translate(40)"/>
</clipPath>
<clipPath id="clip3_398_14547">
<rect width="18" height="18" fill="white" transform="translate(60)"/>
</clipPath>
<clipPath id="clip4_398_14547">
<rect width="18" height="18" fill="white" transform="translate(80)"/>
</clipPath>
</defs>
</svg>
