<svg width="60" height="20" viewBox="0 0 60 20" fill="none" xmlns="http://www.w3.org/2000/svg">
<g clip-path="url(#clip0_398_13911)">
<path d="M58.6032 6.46395L56.8196 5.44326L55.0102 4.4071C53.8142 3.72148 52.3193 4.58237 52.3193 5.96392V6.19589C52.3193 6.32477 52.3863 6.44333 52.4997 6.50519L53.34 6.98461C53.5719 7.11865 53.8606 6.94853 53.8606 6.68047V6.12888C53.8606 5.85566 54.1545 5.68555 54.3916 5.81958L56.0412 6.7681L57.6856 7.71147C57.9228 7.8455 57.9228 8.19089 57.6856 8.32492L56.0412 9.2683L54.3916 10.2168C54.1545 10.3509 53.8606 10.1807 53.8606 9.90752V9.6343C53.8606 8.25275 52.3657 7.38671 51.1697 8.07748L49.3603 9.11364L47.5766 10.1343C46.3755 10.8251 46.3755 12.5624 47.5766 13.2531L49.3603 14.2738L51.1697 15.31C52.3657 15.9956 53.8606 15.1347 53.8606 13.7532V13.5212C53.8606 13.3923 53.7936 13.2738 53.6802 13.2119L52.8399 12.7325C52.6079 12.5984 52.3193 12.7686 52.3193 13.0366V13.5882C52.3193 13.8614 52.0254 14.0315 51.7883 13.8975L50.1387 12.949L48.4942 12.0056C48.2571 11.8716 48.2571 11.5262 48.4942 11.3922L50.1387 10.4488L51.7883 9.50027C52.0254 9.36624 52.3193 9.53635 52.3193 9.80958V10.0828C52.3193 11.4643 53.8142 12.3304 55.0102 11.6396L56.8196 10.6034L58.6032 9.58275C59.8044 8.88682 59.8044 7.15473 58.6032 6.46395Z" fill="black"/>
<path d="M46.9023 6.8042L42.7267 15.4286H40.9946L42.5566 12.2067L40.0977 6.8042H41.8761L43.4536 10.423L45.1754 6.8042H46.9023Z" fill="black"/>
<path d="M5.1508 9.86615C5.1508 8.83514 4.40333 8.11343 3.48573 8.11343C2.56813 8.11343 1.82065 8.85061 1.82065 9.86615C1.82065 10.8714 2.56813 11.6189 3.48573 11.6189C4.40333 11.6189 5.1508 10.8972 5.1508 9.86615ZM5.16627 12.9282V12.1344C4.71263 12.6859 4.03732 13.0262 3.23313 13.0262C1.55258 13.0262 0.279297 11.6807 0.279297 9.86615C0.279297 8.06704 1.60414 6.6958 3.26922 6.6958C4.05278 6.6958 4.71263 7.04119 5.16627 7.57731V6.80405H6.67154V12.9282H5.16627Z" fill="black"/>
<path d="M13.9923 11.5674C13.4665 11.5674 13.317 11.3715 13.317 10.856V8.13933H14.2861V6.80418H13.317V5.30922H11.7756V6.80418H9.78576V6.19589C9.78576 5.68038 9.98165 5.48449 10.5229 5.48449H10.8632V4.29883H10.1208C8.84755 4.29883 8.24441 4.71639 8.24441 5.98968V6.80933H7.38867V8.13933H8.24441V12.9284H9.78576V8.13933H11.7756V11.1396C11.7756 12.3871 12.255 12.9284 13.5025 12.9284H14.2964V11.5674H13.9923Z" fill="black"/>
<path d="M19.5284 9.31483C19.4202 8.52096 18.7706 8.04153 18.0077 8.04153C17.2499 8.04153 16.621 8.50549 16.4663 9.31483H19.5284ZM16.4509 10.2685C16.5591 11.1758 17.2087 11.6913 18.0335 11.6913C18.683 11.6913 19.183 11.3872 19.4769 10.8974H21.0595C20.6935 12.1965 19.5284 13.0265 17.9974 13.0265C16.1467 13.0265 14.8477 11.7274 14.8477 9.87673C14.8477 8.02607 16.2189 6.69092 18.0335 6.69092C19.8584 6.69092 21.1832 8.03638 21.1832 9.87673C21.1832 10.0108 21.1729 10.1448 21.1471 10.2685H16.4509Z" fill="black"/>
<path d="M30.9974 9.86642C30.9974 8.87666 30.2499 8.11371 29.3323 8.11371C28.4147 8.11371 27.6672 8.85088 27.6672 9.86642C27.6672 10.8717 28.4147 11.6191 29.3323 11.6191C30.2499 11.6191 30.9974 10.8613 30.9974 9.86642ZM26.1465 15.4287V6.80433H27.6517V7.5982C28.1054 7.0363 28.7807 6.69092 29.5849 6.69092C31.2397 6.69092 32.5387 8.05184 32.5387 9.85095C32.5387 11.6501 31.2139 13.0213 29.5488 13.0213C28.7756 13.0213 28.1415 12.7172 27.6981 12.2017V15.4235H26.1465V15.4287Z" fill="black"/>
<path d="M37.9672 9.86615C37.9672 8.83514 37.2197 8.11343 36.3021 8.11343C35.3845 8.11343 34.6371 8.85061 34.6371 9.86615C34.6371 10.8714 35.3845 11.6189 36.3021 11.6189C37.2197 11.6189 37.9672 10.8972 37.9672 9.86615ZM37.9827 12.9282V12.1344C37.529 12.6859 36.8537 13.0262 36.0495 13.0262C34.369 13.0262 33.0957 11.6807 33.0957 9.86615C33.0957 8.06704 34.4205 6.6958 36.0856 6.6958C36.8692 6.6958 37.529 7.04119 37.9827 7.57731V6.80405H39.4879V12.9282H37.9827Z" fill="black"/>
<path d="M23.4303 7.40231C23.4303 7.40231 23.8118 6.69092 24.7552 6.69092C25.1573 6.69092 25.415 6.8301 25.415 6.8301V8.39208C25.415 8.39208 24.848 8.04154 24.3273 8.11371C23.8067 8.18588 23.4767 8.66014 23.4767 9.29937V12.9234H21.9199V6.80433H23.4252V7.40231H23.4303Z" fill="black"/>
</g>
<defs>
<clipPath id="clip0_398_13911">
<rect width="60" height="20" fill="white"/>
</clipPath>
</defs>
</svg>
