<svg width="21" height="22" viewBox="0 0 21 22" fill="none" xmlns="http://www.w3.org/2000/svg">
<path d="M15.578 16.3979C14.2196 16.3979 13.1183 17.4992 13.1183 18.8576C13.1183 20.2161 14.2196 21.3173 15.578 21.3173C16.9365 21.3173 18.0377 20.2161 18.0377 18.8576C18.0377 17.4992 16.9365 16.3979 15.578 16.3979ZM15.578 18.0377C16.0309 18.0377 16.3979 18.4048 16.3979 18.8576C16.3979 19.3104 16.0309 19.6775 15.578 19.6775C15.1252 19.6775 14.7581 19.3104 14.7581 18.8576C14.7581 18.4048 15.1252 18.0377 15.578 18.0377Z" fill="#D5B58C"/>
<path d="M7.37907 16.3979C6.02062 16.3979 4.91938 17.4992 4.91938 18.8576C4.91938 20.2161 6.02062 21.3173 7.37907 21.3173C8.73752 21.3173 9.83876 20.2161 9.83876 18.8576C9.83876 17.4992 8.73752 16.3979 7.37907 16.3979ZM7.37907 18.0377C7.83189 18.0377 8.19897 18.4048 8.19897 18.8576C8.19897 19.3104 7.83189 19.6775 7.37907 19.6775C6.92625 19.6775 6.55917 19.3104 6.55917 18.8576C6.55917 18.4048 6.92625 18.0377 7.37907 18.0377Z" fill="#D5B58C"/>
<path d="M19.3601 4.09948H4.09969C3.59304 4.09948 3.20765 4.55442 3.29095 5.05417L4.81655 14.2078C4.94834 14.9985 5.63244 15.578 6.43404 15.578H16.6271C17.3329 15.578 17.9595 15.1264 18.1827 14.4568L20.9157 6.25783C20.9715 6.09062 20.9999 5.91553 20.9999 5.73928C20.9999 4.83364 20.2657 4.09948 19.3601 4.09948ZM5.06717 5.73928H19.3601L16.6271 13.9382H6.43404L5.06717 5.73928Z" fill="#D5B58C"/>
<path d="M13.9382 9.01886C14.3911 9.01886 14.7581 9.38594 14.7581 9.83876C14.7581 10.2592 14.4416 10.6058 14.0339 10.6531L13.9382 10.6587H9.01886C8.56605 10.6587 8.19897 10.2916 8.19897 9.83876C8.19897 9.41829 8.51548 9.07174 8.92325 9.02438L9.01886 9.01886H13.9382Z" fill="#D5B58C"/>
<path d="M3.27959 0C3.63785 0 3.95045 0.231801 4.05911 0.565626L4.08356 0.659102L4.90346 4.75858C4.99226 5.20261 4.7043 5.63455 4.26028 5.72335C3.84797 5.80582 3.44608 5.56341 3.31967 5.17285L3.29551 5.08018L2.60727 1.63979H0.819897C0.399424 1.63979 0.0528774 1.32328 0.00551602 0.915514L0 0.819897C0 0.399424 0.316513 0.0528774 0.72428 0.00551602L0.819897 0H3.27959Z" fill="#D5B58C"/>
</svg>
