<svg width="38" height="42" viewBox="0 0 38 42" fill="none" xmlns="http://www.w3.org/2000/svg">
<path d="M20.4558 7.31817L18.9983 8.8185L17.5419 7.31793C15.2962 5.00281 12.1003 3.93916 8.95635 4.46508C5.81668 4.99028 3.11861 7.03533 1.70224 9.95509L1.52135 10.3492C-0.0795018 14.0604 0.610419 18.3597 3.24636 21.3248L18.0632 37.2584C18.5691 37.8023 19.429 37.8023 19.9348 37.2583L34.4712 21.624C37.4459 18.5564 38.1859 13.8525 36.2957 9.95519L36.0885 9.55155C34.6061 6.82962 32.0186 4.96308 29.0416 4.46508C25.8976 3.93916 22.7017 5.00281 20.4558 7.31817ZM28.6204 6.9942C30.8171 7.36165 32.7347 8.74499 33.8289 10.7536L34.0084 11.1033L34.1679 11.4545C35.3182 14.1685 34.8156 17.3599 32.8788 19.5734L18.9983 34.5022L5.39979 19.8805C3.22374 17.6383 2.61903 14.2656 3.85798 11.3928L4.01509 11.0506C5.05953 8.89829 7.06023 7.38183 9.3775 6.9942C11.6904 6.6073 14.0445 7.39078 15.7078 9.10555L18.0821 11.5518C18.5843 12.0693 19.4136 12.0693 19.9159 11.5518L22.2898 9.1058C23.9534 7.39078 26.3075 6.6073 28.6204 6.9942Z" fill="black"/>
</svg>
