<svg width="98" height="33" viewBox="0 0 98 33" fill="none" xmlns="http://www.w3.org/2000/svg">
<path d="M14.5166 0.139205H15.9882L19.4484 8.59091H19.5677L23.028 0.139205H24.4996V10.321H23.3461V2.58523H23.2467L20.0649 10.321H18.9513L15.7694 2.58523H15.67V10.321H14.5166V0.139205Z" fill="#D5B58C"/>
<path d="M36.0426 5.23011C36.0426 6.30398 35.8487 7.23201 35.4609 8.0142C35.0731 8.7964 34.5412 9.39962 33.865 9.82386C33.1889 10.2481 32.4166 10.4602 31.5483 10.4602C30.6799 10.4602 29.9076 10.2481 29.2315 9.82386C28.5554 9.39962 28.0234 8.7964 27.6356 8.0142C27.2478 7.23201 27.054 6.30398 27.054 5.23011C27.054 4.15625 27.2478 3.22822 27.6356 2.44602C28.0234 1.66383 28.5554 1.06061 29.2315 0.636364C29.9076 0.212121 30.6799 0 31.5483 0C32.4166 0 33.1889 0.212121 33.865 0.636364C34.5412 1.06061 35.0731 1.66383 35.4609 2.44602C35.8487 3.22822 36.0426 4.15625 36.0426 5.23011ZM34.8494 5.23011C34.8494 4.34849 34.7019 3.6044 34.4069 2.99787C34.1153 2.39134 33.7192 1.93229 33.2187 1.62074C32.7216 1.30919 32.1647 1.15341 31.5483 1.15341C30.9318 1.15341 30.3733 1.30919 29.8728 1.62074C29.3757 1.93229 28.9796 2.39134 28.6846 2.99787C28.393 3.6044 28.2471 4.34849 28.2471 5.23011C28.2471 6.11174 28.393 6.85582 28.6846 7.46236C28.9796 8.06889 29.3757 8.52794 29.8728 8.83949C30.3733 9.15104 30.9318 9.30682 31.5483 9.30682C32.1647 9.30682 32.7216 9.15104 33.2187 8.83949C33.7192 8.52794 34.1153 8.06889 34.4069 7.46236C34.7019 6.85582 34.8494 6.11174 34.8494 5.23011Z" fill="#D5B58C"/>
<path d="M46.6696 0.139205V10.321H45.4764L39.9281 2.3267H39.8287V10.321H38.5957V0.139205H39.7889L45.3571 8.15341H45.4565V0.139205H46.6696Z" fill="#D5B58C"/>
<path d="M57.6906 0.139205V10.321H56.4974L50.9491 2.3267H50.8497V10.321H49.6168V0.139205H50.8099L56.3781 8.15341H56.4776V0.139205H57.6906Z" fill="#D5B58C"/>
<path d="M61.8707 0.139205V10.321H60.6378V0.139205H61.8707Z" fill="#D5B58C"/>
<path d="M73.016 3.32102H71.7831C71.7102 2.96638 71.5826 2.65483 71.4003 2.38636C71.2213 2.1179 71.0025 1.89252 70.744 1.71023C70.4888 1.52462 70.2054 1.38542 69.8939 1.29261C69.5823 1.19981 69.2575 1.15341 68.9194 1.15341C68.303 1.15341 67.7445 1.30919 67.244 1.62074C66.7469 1.93229 66.3508 2.39134 66.0558 2.99787C65.7641 3.6044 65.6183 4.34849 65.6183 5.23011C65.6183 6.11174 65.7641 6.85582 66.0558 7.46236C66.3508 8.06889 66.7469 8.52794 67.244 8.83949C67.7445 9.15104 68.303 9.30682 68.9194 9.30682C69.2575 9.30682 69.5823 9.26042 69.8939 9.16761C70.2054 9.07481 70.4888 8.93726 70.744 8.75497C71.0025 8.56937 71.2213 8.34233 71.4003 8.07386C71.5826 7.80208 71.7102 7.49053 71.7831 7.1392H73.016C72.9232 7.65956 72.7542 8.12524 72.5089 8.53622C72.2637 8.94721 71.9587 9.29688 71.5942 9.58523C71.2296 9.87027 70.8202 10.0874 70.3662 10.2365C69.9154 10.3857 69.4332 10.4602 68.9194 10.4602C68.0511 10.4602 67.2788 10.2481 66.6027 9.82386C65.9265 9.39962 65.3946 8.7964 65.0068 8.0142C64.619 7.23201 64.4251 6.30398 64.4251 5.23011C64.4251 4.15625 64.619 3.22822 65.0068 2.44602C65.3946 1.66383 65.9265 1.06061 66.6027 0.636364C67.2788 0.212121 68.0511 0 68.9194 0C69.4332 0 69.9154 0.0745739 70.3662 0.223722C70.8202 0.37287 71.2296 0.59162 71.5942 0.879972C71.9587 1.16501 72.2637 1.51302 72.5089 1.92401C72.7542 2.33168 72.9232 2.79735 73.016 3.32102Z" fill="#D5B58C"/>
<path d="M75.906 10.321H74.6134L78.352 0.139205H79.6248L83.3634 10.321H82.0708L79.0282 1.75H78.9486L75.906 10.321ZM76.3833 6.34375H81.5935V7.4375H76.3833V6.34375Z" fill="#D5B58C"/>
<path d="M29.0752 30.321V21.5938H32.1263C32.7343 21.5938 33.2357 21.6989 33.6306 21.9091C34.0255 22.1165 34.3195 22.3963 34.5127 22.7486C34.7059 23.098 34.8025 23.4858 34.8025 23.9119C34.8025 24.2869 34.7357 24.5966 34.6022 24.8409C34.4715 25.0852 34.2982 25.2784 34.0823 25.4205C33.8692 25.5625 33.6377 25.6676 33.3877 25.7358V25.821C33.6547 25.8381 33.9232 25.9318 34.1931 26.1023C34.463 26.2727 34.6888 26.517 34.8707 26.8352C35.0525 27.1534 35.1434 27.5426 35.1434 28.0028C35.1434 28.4403 35.0439 28.8338 34.8451 29.1832C34.6462 29.5327 34.3323 29.8097 33.9033 30.0142C33.4743 30.2188 32.9161 30.321 32.2286 30.321H29.0752ZM30.132 29.3835H32.2286C32.9189 29.3835 33.409 29.25 33.6988 28.983C33.9914 28.7131 34.1377 28.3864 34.1377 28.0028C34.1377 27.7074 34.0624 27.4347 33.9118 27.1847C33.7613 26.9318 33.5468 26.7301 33.2684 26.5795C32.99 26.4261 32.6604 26.3494 32.2797 26.3494H30.132V29.3835ZM30.132 25.429H32.0922C32.4104 25.429 32.6974 25.3665 32.953 25.2415C33.2116 25.1165 33.4161 24.9403 33.5667 24.7131C33.7201 24.4858 33.7968 24.2188 33.7968 23.9119C33.7968 23.5284 33.6633 23.2031 33.3962 22.9361C33.1292 22.6662 32.7059 22.5312 32.1263 22.5312H30.132V25.429Z" fill="#D5B58C"/>
<path d="M39.9678 30.4574C39.3372 30.4574 38.7931 30.3182 38.3357 30.0398C37.8812 29.7585 37.5303 29.3665 37.2832 28.8636C37.0389 28.358 36.9167 27.7699 36.9167 27.0994C36.9167 26.429 37.0389 25.8381 37.2832 25.3267C37.5303 24.8125 37.8741 24.4119 38.3144 24.125C38.7576 23.8352 39.2747 23.6903 39.8656 23.6903C40.2065 23.6903 40.5431 23.7472 40.8755 23.8608C41.2079 23.9744 41.5105 24.1591 41.7832 24.4148C42.0559 24.6676 42.2732 25.0028 42.4352 25.4205C42.5971 25.8381 42.6781 26.3523 42.6781 26.9631V27.3892H37.6326V26.5199H41.6553C41.6553 26.1506 41.5815 25.821 41.4337 25.5312C41.2889 25.2415 41.0815 25.0128 40.8116 24.8452C40.5445 24.6776 40.2292 24.5938 39.8656 24.5938C39.465 24.5938 39.1184 24.6932 38.8258 24.892C38.536 25.0881 38.313 25.3438 38.1568 25.6591C38.0005 25.9744 37.9224 26.3125 37.9224 26.6733V27.2528C37.9224 27.7472 38.0076 28.1662 38.1781 28.5099C38.3514 28.8509 38.5914 29.1108 38.8982 29.2898C39.2051 29.4659 39.5616 29.554 39.9678 29.554C40.232 29.554 40.4707 29.517 40.6837 29.4432C40.8997 29.3665 41.0857 29.2528 41.242 29.1023C41.3982 28.9489 41.519 28.7585 41.6042 28.5312L42.5758 28.804C42.4735 29.1335 42.3016 29.4233 42.0602 29.6733C41.8187 29.9205 41.5204 30.1136 41.1653 30.2528C40.8102 30.3892 40.411 30.4574 39.9678 30.4574Z" fill="#D5B58C"/>
<path d="M46.614 30.4744C46.1993 30.4744 45.8228 30.3963 45.4848 30.2401C45.1467 30.081 44.8782 29.8523 44.6794 29.554C44.4805 29.2528 44.3811 28.8892 44.3811 28.4631C44.3811 28.0881 44.4549 27.7841 44.6027 27.5511C44.7504 27.3153 44.9478 27.1307 45.195 26.9972C45.4422 26.8636 45.7149 26.7642 46.0132 26.6989C46.3143 26.6307 46.6169 26.5767 46.9208 26.5369C47.3186 26.4858 47.641 26.4474 47.8882 26.4219C48.1382 26.3935 48.32 26.3466 48.4336 26.2812C48.5501 26.2159 48.6083 26.1023 48.6083 25.9403V25.9062C48.6083 25.4858 48.4933 25.1591 48.2632 24.9261C48.0359 24.6932 47.6907 24.5767 47.2277 24.5767C46.7476 24.5767 46.3711 24.6818 46.0984 24.892C45.8257 25.1023 45.6339 25.3267 45.5231 25.5653L44.5686 25.2244C44.739 24.8267 44.9663 24.517 45.2504 24.2955C45.5373 24.071 45.8498 23.9148 46.1879 23.8267C46.5288 23.7358 46.864 23.6903 47.1936 23.6903C47.4038 23.6903 47.6453 23.7159 47.918 23.767C48.1936 23.8153 48.4592 23.9162 48.7149 24.0696C48.9734 24.223 49.1879 24.4545 49.3583 24.7642C49.5288 25.0739 49.614 25.4886 49.614 26.0085V30.321H48.6083V29.4347H48.5572C48.489 29.5767 48.3754 29.7287 48.2163 29.8906C48.0572 30.0526 47.8456 30.1903 47.5814 30.304C47.3172 30.4176 46.9947 30.4744 46.614 30.4744ZM46.7674 29.571C47.1652 29.571 47.5004 29.4929 47.7731 29.3366C48.0487 29.1804 48.2561 28.9787 48.3953 28.7315C48.5373 28.4844 48.6083 28.2244 48.6083 27.9517V27.0312C48.5657 27.0824 48.472 27.1293 48.3271 27.1719C48.1851 27.2116 48.0203 27.2472 47.8328 27.2784C47.6481 27.3068 47.4677 27.3324 47.2916 27.3551C47.1183 27.375 46.9777 27.392 46.8697 27.4062C46.6083 27.4403 46.364 27.4957 46.1368 27.5724C45.9123 27.6463 45.7305 27.7585 45.5913 27.9091C45.4549 28.0568 45.3868 28.2585 45.3868 28.5142C45.3868 28.8636 45.516 29.1278 45.7745 29.3068C46.0359 29.483 46.3669 29.571 46.7674 29.571Z" fill="#D5B58C"/>
<path d="M56.0546 27.6449V23.7756H57.0603V30.321H56.0546V29.2131H55.9864C55.833 29.5455 55.5944 29.8281 55.2705 30.0611C54.9467 30.2912 54.5376 30.4062 54.0432 30.4062C53.6342 30.4062 53.2705 30.3168 52.9523 30.1378C52.6342 29.956 52.3842 29.6832 52.2023 29.3196C52.0205 28.9531 51.9296 28.4915 51.9296 27.9347V23.7756H52.9353V27.8665C52.9353 28.3438 53.0688 28.7244 53.3359 29.0085C53.6057 29.2926 53.9495 29.4347 54.3671 29.4347C54.6171 29.4347 54.8714 29.3707 55.1299 29.2429C55.3913 29.1151 55.61 28.919 55.7861 28.6548C55.9651 28.3906 56.0546 28.054 56.0546 27.6449Z" fill="#D5B58C"/>
<path d="M62.2289 23.7756V24.6278H58.8368V23.7756H62.2289ZM59.8255 22.2074H60.8311V28.446C60.8311 28.7301 60.8723 28.9432 60.9547 29.0852C61.0399 29.2244 61.1479 29.3182 61.2786 29.3665C61.4121 29.4119 61.5527 29.4347 61.7005 29.4347C61.8112 29.4347 61.9022 29.429 61.9732 29.4176C62.0442 29.4034 62.101 29.392 62.1436 29.3835L62.3482 30.2869C62.28 30.3125 62.1848 30.3381 62.0627 30.3636C61.9405 30.392 61.7857 30.4062 61.5982 30.4062C61.3141 30.4062 61.0357 30.3452 60.763 30.223C60.4931 30.1009 60.2686 29.9148 60.0897 29.6648C59.9135 29.4148 59.8255 29.0994 59.8255 28.7188V22.2074Z" fill="#D5B58C"/>
<path d="M64.8694 32.7756C64.6989 32.7756 64.5469 32.7614 64.4134 32.733C64.2799 32.7074 64.1876 32.6818 64.1364 32.6562L64.3921 31.7699C64.6364 31.8324 64.8523 31.8551 65.0398 31.8381C65.2273 31.821 65.3935 31.7372 65.5384 31.5866C65.6861 31.4389 65.8211 31.1989 65.9432 30.8665L66.1307 30.3551L63.7103 23.7756H64.8012L66.608 28.9915H66.6762L68.483 23.7756H69.5739L66.7955 31.2756C66.6705 31.6136 66.5157 31.8935 66.331 32.1151C66.1464 32.3395 65.9319 32.5057 65.6876 32.6136C65.4461 32.7216 65.1734 32.7756 64.8694 32.7756Z" fill="#D5B58C"/>
<path d="M0 24.821H25" stroke="#D5B58C"/>
<path d="M73 24.821H98" stroke="#D5B58C"/>
</svg>
