<svg width="22" height="22" viewBox="0 0 22 22" fill="none" xmlns="http://www.w3.org/2000/svg">
<path d="M11 0C4.92487 0 0 4.92487 0 11C0 17.0751 4.92487 22 11 22C17.0751 22 22 17.0751 22 11C22 4.92487 17.0751 0 11 0ZM11 1.69231C16.1405 1.69231 20.3077 5.8595 20.3077 11C20.3077 16.1405 16.1405 20.3077 11 20.3077C5.8595 20.3077 1.69231 16.1405 1.69231 11C1.69231 5.8595 5.8595 1.69231 11 1.69231Z" fill="#D5B58C"/>
<path d="M11 0C7.56934 0 5.07692 4.98483 5.07692 11C5.07692 17.0152 7.56934 22 11 22C14.4307 22 16.9231 17.0152 16.9231 11C16.9231 4.98483 14.4307 0 11 0ZM11 1.69231C13.1772 1.69231 15.2308 5.79954 15.2308 11C15.2308 16.2005 13.1772 20.3077 11 20.3077C8.82285 20.3077 6.76923 16.2005 6.76923 11C6.76923 5.79954 8.82285 1.69231 11 1.69231Z" fill="#D5B58C"/>
<path d="M1.69231 16.0769V14.3846H20.3077V16.0769H1.69231Z" fill="#D5B58C"/>
<path d="M1.69231 7.61538V5.92308H20.3077V7.61538H1.69231Z" fill="#D5B58C"/>
</svg>
