<svg width="190" height="26" viewBox="0 0 190 26" fill="none" xmlns="http://www.w3.org/2000/svg">
<path d="M13 23.5625C12.5833 23.5625 12.2399 23.2488 12.193 22.8448L12.1875 22.75V19.5C12.1875 19.0513 12.5513 18.6875 13 18.6875C13.4167 18.6875 13.7601 19.0012 13.807 19.4052L13.8125 19.5V22.75C13.8125 23.1987 13.4487 23.5625 13 23.5625Z" fill="#D5B58C"/>
<path d="M6.36643 13.8236C6.80906 13.7498 7.22768 14.0488 7.30145 14.4914C7.77423 17.3281 9.58675 18.6875 13 18.6875C16.4133 18.6875 18.2258 17.3281 18.6986 14.4914C18.7723 14.0488 19.191 13.7498 19.6336 13.8236C20.0762 13.8973 20.3752 14.316 20.3014 14.7586C19.6909 18.4219 17.1701 20.3125 13 20.3125C8.82993 20.3125 6.30911 18.4219 5.69856 14.7586C5.62479 14.316 5.9238 13.8973 6.36643 13.8236Z" fill="#D5B58C"/>
<path d="M13 2.4375C10.7563 2.4375 8.9375 4.25634 8.9375 6.5V13C8.9375 15.2437 10.7563 17.0625 13 17.0625C15.2437 17.0625 17.0625 15.2437 17.0625 13V6.5C17.0625 4.25634 15.2437 2.4375 13 2.4375ZM13 4.0625C14.3462 4.0625 15.4375 5.15381 15.4375 6.5V13C15.4375 14.3462 14.3462 15.4375 13 15.4375C11.6538 15.4375 10.5625 14.3462 10.5625 13V6.5C10.5625 5.15381 11.6538 4.0625 13 4.0625Z" fill="#D5B58C"/>
<path d="M54 2.4375C48.1665 2.4375 43.4375 7.16649 43.4375 13C43.4375 18.8335 48.1665 23.5625 54 23.5625C59.8335 23.5625 64.5625 18.8335 64.5625 13C64.5625 7.16649 59.8335 2.4375 54 2.4375ZM54 4.0625C58.936 4.0625 62.9375 8.06395 62.9375 13C62.9375 17.936 58.936 21.9375 54 21.9375C49.064 21.9375 45.0625 17.936 45.0625 13C45.0625 8.06395 49.064 4.0625 54 4.0625Z" fill="#D5B58C"/>
<path d="M54 2.4375C50.7058 2.4375 48.3125 7.22407 48.3125 13C48.3125 18.7759 50.7058 23.5625 54 23.5625C57.2942 23.5625 59.6875 18.7759 59.6875 13C59.6875 7.22407 57.2942 2.4375 54 2.4375ZM54 4.0625C56.0906 4.0625 58.0625 8.00638 58.0625 13C58.0625 17.9936 56.0906 21.9375 54 21.9375C51.9094 21.9375 49.9375 17.9936 49.9375 13C49.9375 8.00638 51.9094 4.0625 54 4.0625Z" fill="#D5B58C"/>
<path d="M45.0625 17.875V16.25H62.9375V17.875H45.0625Z" fill="#D5B58C"/>
<path d="M45.0625 9.75V8.125H62.9375V9.75H45.0625Z" fill="#D5B58C"/>
<path d="M99.658 3.25552C98.0881 3.32909 96.2708 4.10851 95.0604 5.22136L94.9992 5.27883L94.9374 5.21975C93.6665 4.0531 91.7255 3.24838 90.1242 3.24989C86.1297 3.25413 83.625 5.70372 83.625 10.5625C83.625 13.6747 86.3472 17.2449 91.7426 21.386L92.4028 21.8857C92.8516 22.2207 93.3174 22.5593 93.8003 22.9017L94.5374 23.418C94.8157 23.6107 95.1842 23.6107 95.4624 23.418L96.1996 22.9017C96.6825 22.5593 97.1483 22.2207 97.597 21.8857L98.2573 21.386C103.653 17.2449 106.375 13.6747 106.375 10.5625C106.375 5.69647 103.857 3.22813 99.8706 3.2499L99.658 3.25552ZM99.8794 4.87475C102.97 4.85799 104.75 6.60266 104.75 10.5625L104.747 10.7155C104.678 12.4091 103.477 14.4397 101.127 16.7731L100.688 17.2007C100.235 17.6316 99.7446 18.0725 99.2162 18.5231L98.675 18.9769C98.5827 19.0531 98.4893 19.1296 98.3949 19.2063L97.8156 19.6698C97.4209 19.9809 97.0093 20.2963 96.5807 20.6158L95.9251 21.0983L95.244 21.587L95 21.7588L94.7558 21.5871C94.4089 21.3411 94.0715 21.0975 93.7437 20.8563L93.1009 20.3769C92.8908 20.2182 92.685 20.0605 92.4835 19.9039L91.8915 19.4372C91.3122 18.9737 90.7711 18.5198 90.268 18.0757L89.7775 17.6349C89.6183 17.4891 89.4632 17.3444 89.3124 17.2007L88.8726 16.7731C86.4521 14.369 85.25 12.2863 85.25 10.5625C85.25 6.60909 87.0198 4.87819 90.1259 4.87475C91.5628 4.87353 93.5181 5.82458 94.3392 6.97267C94.6633 7.42582 95.3369 7.42579 95.661 6.97262C96.4475 5.87275 98.2597 4.96187 99.6946 4.8807L99.8794 4.87475Z" fill="#D5B58C"/>
<path d="M136 13C131.537 13 127.875 16.1648 127.875 20.1323C127.875 24.7059 144.125 24.7059 144.125 20.1323C144.125 16.1648 140.463 13 136 13ZM136 14.625C139.614 14.625 142.5 17.1192 142.5 20.1323C142.5 21.0392 140.654 21.6045 138.354 21.8279L137.815 21.8734C136.634 21.9589 135.366 21.9589 134.185 21.8734L133.646 21.8279C131.346 21.6045 129.5 21.0392 129.5 20.1323C129.5 17.1192 132.386 14.625 136 14.625Z" fill="#D5B58C"/>
<path d="M136 2.4375C133.308 2.4375 131.125 4.62011 131.125 7.3125C131.125 10.0049 133.308 12.1875 136 12.1875C138.692 12.1875 140.875 10.0049 140.875 7.3125C140.875 4.62011 138.692 2.4375 136 2.4375ZM136 4.0625C137.795 4.0625 139.25 5.51757 139.25 7.3125C139.25 9.10743 137.795 10.5625 136 10.5625C134.205 10.5625 132.75 9.10743 132.75 7.3125C132.75 5.51757 134.205 4.0625 136 4.0625Z" fill="#D5B58C"/>
<path d="M181.875 18.6875C180.529 18.6875 179.438 19.7788 179.438 21.125C179.438 22.4712 180.529 23.5625 181.875 23.5625C183.221 23.5625 184.312 22.4712 184.312 21.125C184.312 19.7788 183.221 18.6875 181.875 18.6875ZM181.875 20.3125C182.324 20.3125 182.688 20.6763 182.688 21.125C182.688 21.5737 182.324 21.9375 181.875 21.9375C181.426 21.9375 181.062 21.5737 181.062 21.125C181.062 20.6763 181.426 20.3125 181.875 20.3125Z" fill="#D5B58C"/>
<path d="M173.75 18.6875C172.404 18.6875 171.312 19.7788 171.312 21.125C171.312 22.4712 172.404 23.5625 173.75 23.5625C175.096 23.5625 176.188 22.4712 176.188 21.125C176.188 19.7788 175.096 18.6875 173.75 18.6875ZM173.75 20.3125C174.199 20.3125 174.562 20.6763 174.562 21.125C174.562 21.5737 174.199 21.9375 173.75 21.9375C173.301 21.9375 172.938 21.5737 172.938 21.125C172.938 20.6763 173.301 20.3125 173.75 20.3125Z" fill="#D5B58C"/>
<path d="M185.623 6.5H170.5C169.998 6.5 169.616 6.95083 169.699 7.44607L171.21 16.5171C171.341 17.3007 172.019 17.875 172.813 17.875H182.914C183.614 17.875 184.235 17.4274 184.456 16.7639L187.164 8.63887C187.22 8.47317 187.248 8.29966 187.248 8.125C187.248 7.22754 186.52 6.5 185.623 6.5ZM171.459 8.125H185.623L182.914 16.25H172.813L171.459 8.125Z" fill="#D5B58C"/>
<path d="M180.25 11.375C180.699 11.375 181.062 11.7388 181.062 12.1875C181.062 12.6042 180.749 12.9476 180.345 12.9945L180.25 13H175.375C174.926 13 174.562 12.6362 174.562 12.1875C174.562 11.7708 174.876 11.4274 175.28 11.3805L175.375 11.375H180.25Z" fill="#D5B58C"/>
<path d="M169.688 2.4375C170.043 2.4375 170.352 2.66721 170.46 2.99802L170.484 3.09066L171.297 7.15315C171.385 7.59317 171.099 8.02122 170.659 8.10922C170.251 8.19094 169.852 7.95072 169.727 7.56369L169.703 7.47184L169.021 4.0625H167.25C166.833 4.0625 166.49 3.74884 166.443 3.34475L166.438 3.25C166.438 2.83332 166.751 2.4899 167.155 2.44297L167.25 2.4375H169.688Z" fill="#D5B58C"/>
</svg>
