<svg width="671" height="40" viewBox="0 0 671 40" fill="none" xmlns="http://www.w3.org/2000/svg">
<rect x="134.5" y="0.5" width="188" height="39" rx="3.5" fill="#FAD676"/>
<g clip-path="url(#clip0_201_2662)">
<path d="M263.19 11.7861C262.196 11.7861 261.257 12.1121 260.375 12.7661V18.7061C261.271 19.3891 262.195 19.7291 263.149 19.7291C265.081 19.7291 266.048 18.4091 266.048 15.7691C266.048 13.1141 265.095 11.7861 263.19 11.7861ZM260.228 11.5091C260.73 11.0592 261.306 10.6989 261.93 10.4441C262.517 10.2054 263.146 10.0825 263.78 10.0821C264.452 10.0821 265.062 10.2091 265.607 10.4651C266.151 10.7185 266.627 11.0984 266.994 11.5731C267.372 12.0551 267.663 12.6411 267.866 13.3301C268.069 14.0191 268.171 14.7961 268.171 15.6621C268.171 16.5421 268.062 17.3371 267.845 18.0471C267.628 18.7571 267.323 19.3611 266.931 19.8571C266.548 20.3461 266.059 20.7426 265.502 21.0171C264.919 21.2991 264.279 21.4416 263.632 21.4331C262.372 21.4331 261.286 21.0141 260.376 20.1771V25.1601C260.376 25.4441 260.236 25.5861 259.956 25.5861H258.716C258.436 25.5861 258.296 25.4441 258.296 25.1601V10.8271C258.296 10.5431 258.436 10.4011 258.716 10.4011H259.641C259.921 10.4011 260.082 10.5431 260.124 10.8271L260.228 11.5091ZM273.422 19.8791C273.918 19.8728 274.409 19.7791 274.872 19.6021C275.394 19.4075 275.883 19.1344 276.322 18.7921V16.6201C275.972 16.5351 275.603 16.4681 275.218 16.4181C274.845 16.3691 274.47 16.344 274.094 16.3431C272.511 16.3431 271.72 16.9601 271.72 18.1961C271.72 18.7361 271.867 19.1511 272.161 19.4421C272.455 19.7321 272.876 19.8791 273.422 19.8791ZM270.964 12.2541L270.806 12.3071C270.748 12.3277 270.688 12.3389 270.627 12.3401C270.445 12.3401 270.354 12.2121 270.354 11.9561V11.3801C270.354 11.1811 270.382 11.0431 270.438 10.9651C270.494 10.8871 270.607 10.8121 270.775 10.7411C271.223 10.5421 271.775 10.3821 272.435 10.2611C273.092 10.1411 273.751 10.0811 274.409 10.0811C275.739 10.0811 276.72 10.3581 277.351 10.9111C277.981 11.4651 278.296 12.3241 278.296 13.4881V20.7721C278.296 21.0561 278.156 21.1981 277.876 21.1981H276.973C276.706 21.1981 276.553 21.0631 276.51 20.7931L276.405 20.0911C275.911 20.5248 275.346 20.8705 274.735 21.1131C274.158 21.348 273.541 21.4708 272.918 21.4751C271.909 21.4751 271.111 21.1871 270.523 20.6121C269.934 20.0371 269.64 19.2671 269.64 18.3021C269.64 17.2651 270.004 16.4381 270.732 15.8211C271.462 15.2031 272.442 14.8941 273.674 14.8941C274.458 14.8941 275.341 15.0141 276.321 15.2561V13.8521C276.321 13.0851 276.153 12.5451 275.817 12.2331C275.481 11.9201 274.892 11.7641 274.053 11.7641C273.071 11.7641 272.044 11.9271 270.964 12.2541ZM285.124 23.0941C284.745 24.0741 284.308 24.7771 283.81 25.2031C283.314 25.6291 282.666 25.8421 281.867 25.8421C281.419 25.8421 281.02 25.7921 280.67 25.6921C280.539 25.6638 280.42 25.5928 280.334 25.4901C280.264 25.3971 280.229 25.2531 280.229 25.0531V24.5001C280.229 24.2301 280.334 24.0951 280.544 24.0951C280.614 24.0951 280.719 24.1091 280.859 24.1381C280.999 24.1661 281.189 24.1811 281.426 24.1811C281.958 24.1811 282.372 24.0531 282.666 23.7971C282.96 23.5421 283.226 23.0731 283.464 22.3911L283.864 21.3051L279.808 11.1681C279.71 10.9271 279.662 10.7571 279.662 10.6571C279.662 10.4871 279.759 10.4011 279.956 10.4011H281.216C281.44 10.4011 281.594 10.4371 281.679 10.5071C281.762 10.5791 281.846 10.7351 281.93 10.9771L284.872 19.2401L287.708 10.9761C287.792 10.7361 287.876 10.5791 287.96 10.5071C288.044 10.4371 288.198 10.4011 288.422 10.4011H289.599C289.795 10.4011 289.893 10.4871 289.893 10.6571C289.893 10.7571 289.843 10.9271 289.746 11.1671L285.124 23.0941ZM228.15 25.4701C224.389 28.2841 218.934 29.7801 214.238 29.7801C207.655 29.7801 201.728 27.3141 197.242 23.2081C196.89 22.8861 197.204 22.4451 197.627 22.6951C202.467 25.5501 208.452 27.2691 214.633 27.2691C218.803 27.2691 223.386 26.3921 227.604 24.5781C228.24 24.3051 228.774 25.0031 228.151 25.4691" fill="#222222"/>
<path d="M229.717 23.657C229.235 23.033 226.536 23.361 225.323 23.509C224.955 23.553 224.898 23.228 225.23 22.992C227.383 21.459 230.912 21.902 231.322 22.415C231.735 22.933 231.214 26.519 229.195 28.231C228.885 28.494 228.59 28.353 228.727 28.006C229.182 26.856 230.198 24.282 229.717 23.657ZM225.429 12.06V10.57C225.427 10.5206 225.436 10.4713 225.454 10.4252C225.472 10.3791 225.499 10.3372 225.534 10.3019C225.568 10.2667 225.61 10.2388 225.656 10.2201C225.701 10.2014 225.751 10.1922 225.8 10.193L232.39 10.192C232.6 10.192 232.77 10.347 232.77 10.568V11.846C232.767 12.06 232.59 12.34 232.274 12.784L228.86 17.722C230.127 17.692 231.467 17.885 232.617 18.54C232.877 18.688 232.947 18.907 232.967 19.122V20.712C232.967 20.93 232.73 21.184 232.482 21.052C230.454 19.975 227.764 19.858 225.522 21.065C225.292 21.189 225.052 20.939 225.052 20.72V19.209C225.052 18.967 225.057 18.553 225.298 18.185L229.251 12.435H225.81C225.76 12.4365 225.71 12.4279 225.664 12.4096C225.618 12.3914 225.575 12.3639 225.54 12.3288C225.504 12.2938 225.476 12.2519 225.457 12.2057C225.438 12.1595 225.428 12.1099 225.429 12.06ZM201.4 21.365H199.395C199.304 21.3602 199.218 21.3229 199.152 21.2599C199.087 21.197 199.046 21.1126 199.037 21.022L199.038 10.595C199.039 10.5449 199.049 10.4955 199.069 10.4495C199.089 10.4035 199.118 10.3619 199.154 10.327C199.189 10.2922 199.232 10.2648 199.279 10.2464C199.325 10.2281 199.375 10.2191 199.425 10.22H201.291C201.384 10.2234 201.473 10.2609 201.54 10.3255C201.607 10.39 201.649 10.477 201.656 10.57V11.93H201.693C202.18 10.615 203.096 10 204.331 10C205.584 10 206.37 10.614 206.931 11.93C207.418 10.615 208.521 10 209.7 10C210.542 10 211.458 10.351 212.02 11.141C212.655 12.019 212.525 13.291 212.525 14.411L212.523 20.991C212.522 21.041 212.512 21.0903 212.492 21.1362C212.472 21.1821 212.443 21.2236 212.407 21.2583C212.371 21.2931 212.329 21.3204 212.282 21.3387C212.236 21.357 212.186 21.3659 212.136 21.365H210.135C210.039 21.3604 209.948 21.3191 209.881 21.2496C209.814 21.18 209.776 21.0875 209.775 20.991V15.463C209.775 15.025 209.812 13.928 209.719 13.511C209.569 12.808 209.119 12.611 208.54 12.611C208.054 12.611 207.549 12.941 207.343 13.466C207.137 13.993 207.155 14.871 207.155 15.463V20.99C207.154 21.04 207.144 21.0894 207.124 21.1353C207.104 21.1812 207.076 21.2228 207.04 21.2576C207.004 21.2924 206.962 21.3199 206.915 21.3383C206.869 21.3567 206.819 21.3658 206.769 21.365H204.767C204.671 21.3602 204.58 21.3188 204.513 21.2493C204.446 21.1798 204.408 21.0874 204.407 20.991L204.406 15.463C204.406 14.3 204.592 12.589 203.171 12.589C201.731 12.589 201.787 14.257 201.787 15.463L201.786 20.99C201.785 21.0401 201.775 21.0895 201.755 21.1355C201.735 21.1815 201.706 21.2231 201.67 21.258C201.635 21.2928 201.592 21.3202 201.545 21.3386C201.499 21.3569 201.45 21.3659 201.4 21.365ZM238.458 12.129C236.98 12.129 236.887 14.169 236.887 15.441C236.887 16.714 236.867 19.434 238.439 19.434C239.993 19.434 240.067 17.24 240.067 15.902C240.067 15.025 240.029 13.972 239.767 13.138C239.543 12.414 239.094 12.128 238.457 12.128L238.458 12.129ZM238.439 10C241.414 10 243.023 12.59 243.023 15.88C243.023 19.061 241.246 21.585 238.439 21.585C235.521 21.585 233.931 18.995 233.931 15.771C233.93 12.523 235.539 10 238.439 10ZM246.88 21.365H244.883C244.787 21.3602 244.696 21.3188 244.629 21.2493C244.562 21.1798 244.524 21.0874 244.523 20.991L244.52 10.561C244.53 10.4663 244.576 10.379 244.647 10.316C244.718 10.2531 244.811 10.2192 244.906 10.221L246.764 10.22C246.939 10.229 247.084 10.35 247.12 10.511V12.106H247.158C247.72 10.68 248.505 10 249.89 10C250.788 10 251.668 10.329 252.229 11.229C252.753 12.063 252.753 13.466 252.753 14.476V21.037C252.74 21.1292 252.693 21.2134 252.623 21.2738C252.552 21.3342 252.461 21.3667 252.368 21.365H250.36C250.272 21.3605 250.188 21.3252 250.122 21.2653C250.057 21.2054 250.015 21.1247 250.003 21.037V15.376C250.003 14.235 250.133 12.567 248.75 12.567C248.263 12.567 247.814 12.897 247.59 13.401C247.309 14.037 247.271 14.673 247.271 15.376V20.99C247.268 21.0912 247.226 21.1871 247.153 21.2573C247.08 21.3274 246.981 21.3661 246.88 21.365ZM222.197 21.44C222.133 21.496 222.053 21.5306 221.968 21.539C221.883 21.5475 221.798 21.5293 221.724 21.487C221.059 20.927 220.939 20.667 220.575 20.133C219.475 21.269 218.696 21.61 217.271 21.61C215.584 21.61 214.271 20.555 214.271 18.444C214.271 16.794 215.153 15.674 216.409 15.124C217.496 14.64 219.015 14.552 220.178 14.42V14.156C220.178 13.672 220.215 13.101 219.933 12.683C219.69 12.309 219.221 12.155 218.809 12.155C218.044 12.155 217.365 12.552 217.198 13.375C217.163 13.558 217.031 13.739 216.85 13.749L214.907 13.535C214.743 13.498 214.561 13.365 214.608 13.11C215.055 10.721 217.183 10 219.09 10C220.065 10 221.34 10.263 222.108 11.011C223.083 11.935 222.989 13.166 222.989 14.508V17.673C222.989 18.625 223.379 19.043 223.746 19.555C223.874 19.74 223.902 19.96 223.739 20.095C223.33 20.443 222.603 21.083 222.202 21.445L222.197 21.44ZM220.177 16.487V16.047C218.727 16.047 217.197 16.361 217.197 18.092C217.197 18.972 217.647 19.565 218.415 19.565C218.977 19.565 219.484 19.213 219.802 18.642C220.196 17.938 220.178 17.279 220.178 16.487H220.177ZM195.926 21.44C195.862 21.496 195.782 21.5306 195.697 21.539C195.612 21.5475 195.527 21.5293 195.453 21.487C194.786 20.927 194.667 20.667 194.303 20.133C193.204 21.27 192.425 21.61 191 21.61C189.312 21.61 188 20.555 188 18.444C188 16.794 188.88 15.674 190.137 15.124C191.224 14.64 192.743 14.552 193.905 14.42V14.156C193.905 13.672 193.943 13.101 193.662 12.683C193.418 12.309 192.949 12.155 192.537 12.155C191.773 12.155 191.093 12.552 190.927 13.375C190.891 13.558 190.759 13.739 190.577 13.749L188.637 13.535C188.472 13.498 188.29 13.365 188.337 13.11C188.783 10.721 190.911 10 192.818 10C193.793 10 195.068 10.263 195.836 11.011C196.811 11.935 196.718 13.166 196.718 14.508V17.673C196.718 18.625 197.108 19.043 197.474 19.555C197.602 19.74 197.631 19.96 197.468 20.095C196.95 20.5383 196.437 20.9883 195.931 21.445L195.926 21.44ZM193.906 16.487V16.047C192.456 16.047 190.924 16.361 190.924 18.092C190.924 18.972 191.374 19.565 192.143 19.565C192.705 19.565 193.212 19.213 193.53 18.642C193.924 17.938 193.906 17.279 193.906 16.487Z" fill="#222222"/>
</g>
<rect x="134.5" y="0.5" width="188" height="39" rx="3.5" stroke="#FAD676"/>
<g clip-path="url(#clip1_201_2662)">
<rect width="189" height="40" transform="translate(348)" fill="#FFC439"/>
<path d="M414.816 15.9375C414.991 14.625 414.816 13.75 414.114 12.9375C413.353 12.0625 412.007 11.625 410.311 11.625H405.337C405.044 11.625 404.694 11.9375 404.634 12.25L402.587 26.125C402.587 26.375 402.763 26.6875 403.055 26.6875H406.098L405.922 28.0625C405.863 28.3125 406.039 28.5 406.273 28.5H408.848C409.141 28.5 409.433 28.3125 409.491 28V27.8125L410.018 24.5625V24.4375C410.076 24.125 410.369 23.875 410.661 23.875H411.013C413.528 23.875 415.459 22.8125 416.044 19.6875C416.337 18.375 416.221 17.3125 415.518 16.5625C415.343 16.3125 415.049 16.125 414.816 15.9375Z" fill="#009CDE"/>
<path d="M414.816 15.9375C414.991 14.625 414.816 13.75 414.114 12.9375C413.353 12.0625 412.007 11.625 410.311 11.625H405.337C405.044 11.625 404.694 11.9375 404.634 12.25L402.587 26.125C402.587 26.375 402.763 26.6875 403.055 26.6875H406.098L406.917 21.5L406.858 21.6875C406.917 21.3125 407.209 21.0625 407.56 21.0625H409.023C411.89 21.0625 414.114 19.8125 414.816 16.3125C414.758 16.125 414.816 16.0625 414.816 15.9375Z" fill="#012169"/>
<path d="M407.678 15.9375C407.736 15.75 407.853 15.5625 408.029 15.4375C408.145 15.4375 408.204 15.375 408.321 15.375H412.183C412.651 15.375 413.118 15.4375 413.471 15.5C413.587 15.5 413.704 15.5 413.821 15.5625C413.938 15.625 414.055 15.625 414.114 15.6875C414.172 15.6875 414.23 15.6875 414.289 15.6875C414.464 15.75 414.64 15.875 414.816 15.9375C414.991 14.625 414.816 13.75 414.114 12.875C413.411 12 412.066 11.625 410.369 11.625H405.337C405.044 11.625 404.694 11.875 404.634 12.25L402.587 26.125C402.587 26.375 402.763 26.6875 403.055 26.6875H406.098L406.917 21.5L407.678 15.9375Z" fill="#003087"/>
<g clip-path="url(#clip2_201_2662)">
<path d="M428.25 13.0732H423.375C423.063 13.0732 422.75 13.3232 422.688 13.6357L420.75 26.1357C420.688 26.3857 420.875 26.5732 421.125 26.5732H423.438C423.75 26.5732 424.063 26.3232 424.125 26.0107L424.625 22.6357C424.688 22.3232 424.938 22.0732 425.313 22.0732H426.875C430.063 22.0732 431.938 20.5107 432.438 17.4482C432.625 16.1357 432.438 15.0732 431.813 14.3232C431.125 13.5107 429.875 13.0732 428.25 13.0732ZM428.813 17.6357C428.563 19.3857 427.188 19.3857 425.938 19.3857H425.188L425.688 16.1357C425.688 15.9482 425.875 15.8232 426.063 15.8232H426.375C427.25 15.8232 428.063 15.8232 428.5 16.3232C428.813 16.5732 428.938 17.0107 428.813 17.6357Z" fill="#003087"/>
<path d="M442.75 17.5732H440.438C440.25 17.5732 440.063 17.6982 440.063 17.8857L439.938 18.5107L439.75 18.2607C439.25 17.5107 438.125 17.2607 437 17.2607C434.438 17.2607 432.25 19.1982 431.813 21.9482C431.563 23.3232 431.875 24.6357 432.688 25.5107C433.375 26.3232 434.438 26.6982 435.625 26.6982C437.688 26.6982 438.875 25.3857 438.875 25.3857L438.75 26.0107C438.688 26.2607 438.875 26.5107 439.125 26.5107H441.25C441.563 26.5107 441.875 26.2607 441.938 25.9482L443.188 17.9482C443.25 17.8232 443 17.5732 442.75 17.5732ZM439.563 22.0732C439.313 23.3857 438.313 24.3232 436.938 24.3232C436.25 24.3232 435.75 24.1357 435.375 23.6982C435 23.2607 434.875 22.6982 435 22.0732C435.188 20.7607 436.313 19.8232 437.625 19.8232C438.313 19.8232 438.813 20.0732 439.188 20.4482C439.5 20.8857 439.625 21.4482 439.563 22.0732Z" fill="#003087"/>
<path d="M455.188 17.5732H452.875C452.625 17.5732 452.438 17.6982 452.313 17.8857L449.063 22.6357L447.688 18.0732C447.625 17.7607 447.313 17.5732 447.063 17.5732H444.75C444.5 17.5732 444.25 17.8232 444.375 18.1357L446.938 25.6982L444.5 29.0732C444.313 29.3232 444.5 29.6982 444.813 29.6982H447.125C447.375 29.6982 447.563 29.5732 447.688 29.3857L455.5 18.1357C455.688 17.9482 455.5 17.5732 455.188 17.5732Z" fill="#003087"/>
<path d="M462.938 13.0732H458.063C457.75 13.0732 457.438 13.3232 457.375 13.6357L455.438 26.0732C455.375 26.3232 455.563 26.5107 455.813 26.5107H458.313C458.563 26.5107 458.75 26.3232 458.75 26.1357L459.313 22.5732C459.375 22.2607 459.625 22.0107 460 22.0107H461.563C464.75 22.0107 466.625 20.4482 467.125 17.3857C467.313 16.0732 467.125 15.0107 466.5 14.2607C465.75 13.5107 464.563 13.0732 462.938 13.0732ZM463.5 17.6357C463.25 19.3857 461.875 19.3857 460.625 19.3857H459.875L460.375 16.1357C460.375 15.9482 460.563 15.8232 460.75 15.8232H461.063C461.938 15.8232 462.75 15.8232 463.188 16.3232C463.5 16.5732 463.563 17.0107 463.5 17.6357Z" fill="#009CDE"/>
<path d="M477.438 17.5732H475.125C474.938 17.5732 474.75 17.6982 474.75 17.8857L474.625 18.5107L474.438 18.2607C473.938 17.5107 472.813 17.2607 471.688 17.2607C469.125 17.2607 466.938 19.1982 466.5 21.9482C466.25 23.3232 466.563 24.6357 467.375 25.5107C468.063 26.3232 469.125 26.6982 470.313 26.6982C472.375 26.6982 473.563 25.3857 473.563 25.3857L473.438 26.0107C473.375 26.2607 473.563 26.5107 473.813 26.5107H475.938C476.25 26.5107 476.563 26.2607 476.625 25.9482L477.875 17.9482C477.875 17.8232 477.688 17.5732 477.438 17.5732ZM474.188 22.0732C473.938 23.3857 472.938 24.3232 471.563 24.3232C470.875 24.3232 470.375 24.1357 470 23.6982C469.625 23.2607 469.5 22.6982 469.625 22.0732C469.813 20.7607 470.938 19.8232 472.25 19.8232C472.938 19.8232 473.438 20.0732 473.813 20.4482C474.188 20.8857 474.313 21.4482 474.188 22.0732Z" fill="#009CDE"/>
<path d="M480.188 13.3857L478.188 26.0732C478.125 26.3232 478.313 26.5107 478.563 26.5107H480.563C480.875 26.5107 481.188 26.2607 481.25 25.9482L483.25 13.5107C483.313 13.2607 483.125 13.0732 482.875 13.0732H480.625C480.375 13.0732 480.25 13.1982 480.188 13.3857Z" fill="#009CDE"/>
</g>
</g>
<defs>
<clipPath id="clip0_201_2662">
<rect width="102" height="20" fill="white" transform="translate(188 10)"/>
</clipPath>
<clipPath id="clip1_201_2662">
<rect width="189" height="40" fill="white" transform="translate(348)"/>
</clipPath>
<clipPath id="clip2_201_2662">
<rect width="62.5" height="20" fill="white" transform="translate(420.75 10)"/>
</clipPath>
</defs>
</svg>
