<svg width="40" height="42" viewBox="0 0 40 42" fill="none" xmlns="http://www.w3.org/2000/svg">
<path d="M21.8795 36.7312C22.6021 36.7382 23.1833 37.3289 23.1781 38.0504C23.1729 38.7073 22.6824 39.2458 22.0506 39.3329H6.16595C5.53412 39.2458 5.04542 38.7073 5.04012 38.0504C5.0332 37.3289 5.61441 36.7382 6.337 36.7312H21.8795ZM22.5463 2.66626C26.5118 2.66626 29.7267 5.87959 29.7267 9.84224C29.7267 10.3005 29.6831 10.7536 29.5976 11.1962L38.7241 11.1945L38.9022 11.2067C39.4834 11.2886 39.9459 11.7608 40 12.362L37.4378 37.87L37.443 38.0408C37.4134 38.7134 36.8566 39.2606 36.1637 39.2606L27.7196 39.3321L27.5258 39.3199C26.8923 39.2327 26.4035 38.6943 26.3983 38.0373C26.3913 37.3159 26.9725 36.7251 27.6951 36.7182L34.7656 36.7042L37.3383 13.7526H7.75424L8.39653 19.3254L8.40177 19.5188C8.37559 20.1566 7.88514 20.6933 7.23237 20.763C6.51328 20.8397 5.86924 20.3187 5.79244 19.6007L5.39798 15.4063L5.09254 12.362L5.12047 12.186C5.25137 11.6127 5.76451 11.1945 6.36841 11.1945L15.4932 11.1962C15.4077 10.7536 15.3658 10.3005 15.3658 9.84224C15.3658 5.87959 18.5808 2.66626 22.5463 2.66626ZM18.5865 30.2553C19.3091 30.2622 19.8903 30.853 19.8851 31.5744C19.8781 32.2296 19.3894 32.7698 18.7576 32.8569H1.12584C0.495756 32.7698 0.00705144 32.2296 3.47375e-05 31.5744C-0.00516617 30.853 0.574298 30.2622 1.29863 30.2553H18.5865ZM21.8795 23.7793C22.6021 23.7863 23.1833 24.377 23.1781 25.0984C23.1732 25.71 22.7456 26.2213 22.175 26.3576L22.0506 26.381H6.16595C5.53412 26.2938 5.04542 25.7536 5.04012 25.0984C5.03363 24.4221 5.54406 23.8606 6.20328 23.7873L6.337 23.7793H21.8795ZM22.5463 5.22612C19.9945 5.22612 17.9263 7.29283 17.9263 9.84224C17.9263 10.3075 17.9943 10.7623 18.127 11.1962H26.9638C27.0982 10.7623 27.1663 10.3075 27.1663 9.84224C27.1663 7.29283 25.098 5.22612 22.5463 5.22612Z" fill="black"/>
</svg>
