<svg width="22" height="22" viewBox="0 0 22 22" fill="none" xmlns="http://www.w3.org/2000/svg">
<path d="M11 0C4.92487 0 0 4.92487 0 11C0 17.0751 4.92487 22 11 22C17.0751 22 22 17.0751 22 11C22 4.92487 17.0751 0 11 0ZM11 1.69231C16.1405 1.69231 20.3077 5.8595 20.3077 11C20.3077 16.1405 16.1405 20.3077 11 20.3077C5.8595 20.3077 1.69231 16.1405 1.69231 11C1.69231 5.8595 5.8595 1.69231 11 1.69231Z" fill="#222222"/>
<path d="M10.1538 16.0769V14.3846H11.8462V16.0769H10.1538Z" fill="#222222"/>
<path d="M11 12.6923C10.5661 12.6923 10.2084 12.3657 10.1595 11.9448L10.1538 11.8462V11C10.1538 10.6358 10.3869 10.3124 10.7324 10.1973C12.116 9.73607 12.6923 9.15978 12.6923 8.46154C12.6923 8.03846 12.1282 7.61538 11 7.61538C9.93447 7.61538 9.37211 7.99276 9.31292 8.3911L9.30769 8.46154C9.30769 8.92886 8.92886 9.30769 8.46154 9.30769C7.99422 9.30769 7.61538 8.92886 7.61538 8.46154C7.61538 6.98077 9.02564 5.92308 11 5.92308C12.9744 5.92308 14.3846 6.98077 14.3846 8.46154C14.3846 9.78886 13.5748 10.7953 12.0979 11.4767L11.8462 11.5872V11.8462C11.8462 12.2801 11.5195 12.6377 11.0987 12.6866L11 12.6923Z" fill="#222222"/>
</svg>
