<svg width="670" height="72" viewBox="0 0 670 72" fill="none" xmlns="http://www.w3.org/2000/svg">
<rect x="0.5" y="0.5" width="188" height="39" rx="3.5" fill="#FAD676"/>
<g clip-path="url(#clip0_429_17429)">
<path d="M129.19 11.7861C128.196 11.7861 127.257 12.1121 126.375 12.7661V18.7061C127.271 19.3891 128.195 19.7291 129.149 19.7291C131.081 19.7291 132.048 18.4091 132.048 15.7691C132.048 13.1141 131.095 11.7861 129.19 11.7861ZM126.228 11.5091C126.73 11.0592 127.306 10.6989 127.93 10.4441C128.517 10.2054 129.146 10.0825 129.78 10.0821C130.452 10.0821 131.062 10.2091 131.607 10.4651C132.151 10.7185 132.627 11.0984 132.994 11.5731C133.372 12.0551 133.663 12.6411 133.866 13.3301C134.069 14.0191 134.171 14.7961 134.171 15.6621C134.171 16.5421 134.062 17.3371 133.845 18.0471C133.628 18.7571 133.323 19.3611 132.931 19.8571C132.548 20.3461 132.059 20.7426 131.502 21.0171C130.919 21.2991 130.279 21.4416 129.632 21.4331C128.372 21.4331 127.286 21.0141 126.376 20.1771V25.1601C126.376 25.4441 126.236 25.5861 125.956 25.5861H124.716C124.436 25.5861 124.296 25.4441 124.296 25.1601V10.8271C124.296 10.5431 124.436 10.4011 124.716 10.4011H125.641C125.921 10.4011 126.082 10.5431 126.124 10.8271L126.228 11.5091ZM139.422 19.8791C139.918 19.8728 140.409 19.7791 140.872 19.6021C141.394 19.4075 141.883 19.1344 142.322 18.7921V16.6201C141.972 16.5351 141.603 16.4681 141.218 16.4181C140.845 16.3691 140.47 16.344 140.094 16.3431C138.511 16.3431 137.72 16.9601 137.72 18.1961C137.72 18.7361 137.867 19.1511 138.161 19.4421C138.455 19.7321 138.876 19.8791 139.422 19.8791ZM136.964 12.2541L136.806 12.3071C136.748 12.3277 136.688 12.3389 136.627 12.3401C136.445 12.3401 136.354 12.2121 136.354 11.9561V11.3801C136.354 11.1811 136.382 11.0431 136.438 10.9651C136.494 10.8871 136.607 10.8121 136.775 10.7411C137.223 10.5421 137.775 10.3821 138.435 10.2611C139.092 10.1411 139.751 10.0811 140.409 10.0811C141.739 10.0811 142.72 10.3581 143.351 10.9111C143.981 11.4651 144.296 12.3241 144.296 13.4881V20.7721C144.296 21.0561 144.156 21.1981 143.876 21.1981H142.973C142.706 21.1981 142.553 21.0631 142.51 20.7931L142.405 20.0911C141.911 20.5248 141.346 20.8705 140.735 21.1131C140.158 21.348 139.541 21.4708 138.918 21.4751C137.909 21.4751 137.111 21.1871 136.523 20.6121C135.934 20.0371 135.64 19.2671 135.64 18.3021C135.64 17.2651 136.004 16.4381 136.732 15.8211C137.462 15.2031 138.442 14.8941 139.674 14.8941C140.458 14.8941 141.341 15.0141 142.321 15.2561V13.8521C142.321 13.0851 142.153 12.5451 141.817 12.2331C141.481 11.9201 140.892 11.7641 140.053 11.7641C139.071 11.7641 138.044 11.9271 136.964 12.2541ZM151.124 23.0941C150.745 24.0741 150.308 24.7771 149.81 25.2031C149.314 25.6291 148.666 25.8421 147.867 25.8421C147.419 25.8421 147.02 25.7921 146.67 25.6921C146.539 25.6638 146.42 25.5928 146.334 25.4901C146.264 25.3971 146.229 25.2531 146.229 25.0531V24.5001C146.229 24.2301 146.334 24.0951 146.544 24.0951C146.614 24.0951 146.719 24.1091 146.859 24.1381C146.999 24.1661 147.189 24.1811 147.426 24.1811C147.958 24.1811 148.372 24.0531 148.666 23.7971C148.96 23.5421 149.226 23.0731 149.464 22.3911L149.864 21.3051L145.808 11.1681C145.71 10.9271 145.662 10.7571 145.662 10.6571C145.662 10.4871 145.759 10.4011 145.956 10.4011H147.216C147.44 10.4011 147.594 10.4371 147.679 10.5071C147.762 10.5791 147.846 10.7351 147.93 10.9771L150.872 19.2401L153.708 10.9761C153.792 10.7361 153.876 10.5791 153.96 10.5071C154.044 10.4371 154.198 10.4011 154.422 10.4011H155.599C155.795 10.4011 155.893 10.4871 155.893 10.6571C155.893 10.7571 155.843 10.9271 155.746 11.1671L151.124 23.0941ZM94.1499 25.4701C90.3889 28.2841 84.9339 29.7801 80.2379 29.7801C73.6549 29.7801 67.7279 27.3141 63.2419 23.2081C62.8899 22.8861 63.2039 22.4451 63.6269 22.6951C68.4669 25.5501 74.4519 27.2691 80.6329 27.2691C84.8029 27.2691 89.3859 26.3921 93.6039 24.5781C94.2399 24.3051 94.7739 25.0031 94.1509 25.4691" fill="#222222"/>
<path d="M95.717 23.657C95.235 23.033 92.536 23.361 91.323 23.509C90.955 23.553 90.898 23.228 91.23 22.992C93.383 21.459 96.912 21.902 97.322 22.415C97.735 22.933 97.214 26.519 95.195 28.231C94.885 28.494 94.59 28.353 94.727 28.006C95.182 26.856 96.198 24.282 95.717 23.657ZM91.429 12.06V10.57C91.4274 10.5206 91.4358 10.4713 91.4538 10.4252C91.4718 10.3791 91.4989 10.3372 91.5336 10.3019C91.5683 10.2667 91.6098 10.2388 91.6556 10.2201C91.7014 10.2014 91.7505 10.1922 91.8 10.193L98.39 10.192C98.6 10.192 98.77 10.347 98.77 10.568V11.846C98.767 12.06 98.59 12.34 98.274 12.784L94.86 17.722C96.127 17.692 97.467 17.885 98.617 18.54C98.877 18.688 98.947 18.907 98.967 19.122V20.712C98.967 20.93 98.73 21.184 98.482 21.052C96.454 19.975 93.764 19.858 91.522 21.065C91.292 21.189 91.052 20.939 91.052 20.72V19.209C91.052 18.967 91.057 18.553 91.298 18.185L95.251 12.435H91.81C91.7601 12.4365 91.7104 12.4279 91.664 12.4096C91.6175 12.3914 91.5753 12.3639 91.5398 12.3288C91.5042 12.2938 91.4762 12.2519 91.4573 12.2057C91.4385 12.1595 91.4282 12.1099 91.429 12.06ZM67.4 21.365H65.395C65.3041 21.3602 65.2181 21.3229 65.1524 21.2599C65.0867 21.197 65.0457 21.1126 65.037 21.022L65.038 10.595C65.0387 10.5449 65.0492 10.4955 65.069 10.4495C65.0888 10.4035 65.1176 10.3619 65.1535 10.327C65.1895 10.2922 65.232 10.2648 65.2786 10.2464C65.3252 10.2281 65.3749 10.2191 65.425 10.22H67.291C67.3842 10.2234 67.4729 10.2609 67.5402 10.3255C67.6075 10.39 67.6487 10.477 67.656 10.57V11.93H67.693C68.18 10.615 69.096 10 70.331 10C71.584 10 72.37 10.614 72.931 11.93C73.418 10.615 74.521 10 75.7 10C76.542 10 77.458 10.351 78.02 11.141C78.655 12.019 78.525 13.291 78.525 14.411L78.523 20.991C78.5222 21.041 78.5116 21.0903 78.4917 21.1362C78.4718 21.1821 78.4431 21.2236 78.4071 21.2583C78.3712 21.2931 78.3287 21.3204 78.2822 21.3387C78.2357 21.357 78.186 21.3659 78.136 21.365H76.135C76.0386 21.3604 75.9476 21.3191 75.8806 21.2496C75.8137 21.18 75.7759 21.0875 75.775 20.991V15.463C75.775 15.025 75.812 13.928 75.719 13.511C75.569 12.808 75.119 12.611 74.54 12.611C74.054 12.611 73.549 12.941 73.343 13.466C73.137 13.993 73.155 14.871 73.155 15.463V20.99C73.1543 21.04 73.1438 21.0894 73.1241 21.1353C73.1043 21.1812 73.0757 21.2228 73.0398 21.2576C73.004 21.2924 72.9616 21.3199 72.9151 21.3383C72.8686 21.3567 72.819 21.3658 72.769 21.365H70.767C70.6707 21.3602 70.5798 21.3188 70.5129 21.2493C70.446 21.1798 70.4082 21.0874 70.407 20.991L70.406 15.463C70.406 14.3 70.592 12.589 69.171 12.589C67.731 12.589 67.787 14.257 67.787 15.463L67.786 20.99C67.7853 21.0401 67.7748 21.0895 67.755 21.1355C67.7352 21.1815 67.7064 21.2231 67.6705 21.258C67.6345 21.2928 67.592 21.3202 67.5454 21.3386C67.4988 21.3569 67.4501 21.3659 67.4 21.365ZM104.458 12.129C102.98 12.129 102.887 14.169 102.887 15.441C102.887 16.714 102.867 19.434 104.439 19.434C105.993 19.434 106.067 17.24 106.067 15.902C106.067 15.025 106.029 13.972 105.767 13.138C105.543 12.414 105.094 12.128 104.457 12.128L104.458 12.129ZM104.439 10C107.414 10 109.023 12.59 109.023 15.88C109.023 19.061 107.246 21.585 104.439 21.585C101.521 21.585 99.931 18.995 99.931 15.771C99.93 12.523 101.539 10 104.439 10ZM112.88 21.365H110.883C110.787 21.3602 110.696 21.3188 110.629 21.2493C110.562 21.1798 110.524 21.0874 110.523 20.991L110.52 10.561C110.53 10.4663 110.576 10.379 110.647 10.316C110.718 10.2531 110.811 10.2192 110.906 10.221L112.764 10.22C112.939 10.229 113.084 10.35 113.12 10.511V12.106H113.158C113.72 10.68 114.505 10 115.89 10C116.788 10 117.668 10.329 118.229 11.229C118.753 12.063 118.753 13.466 118.753 14.476V21.037C118.74 21.1292 118.693 21.2134 118.623 21.2738C118.552 21.3342 118.461 21.3667 118.368 21.365H116.36C116.272 21.3605 116.188 21.3252 116.122 21.2653C116.057 21.2054 116.015 21.1247 116.003 21.037V15.376C116.003 14.235 116.133 12.567 114.75 12.567C114.263 12.567 113.814 12.897 113.59 13.401C113.309 14.037 113.271 14.673 113.271 15.376V20.99C113.268 21.0912 113.226 21.1871 113.153 21.2573C113.08 21.3274 112.981 21.3661 112.88 21.365ZM88.197 21.44C88.1328 21.496 88.0528 21.5306 87.968 21.539C87.8832 21.5475 87.798 21.5293 87.724 21.487C87.059 20.927 86.939 20.667 86.575 20.133C85.475 21.269 84.696 21.61 83.271 21.61C81.584 21.61 80.271 20.555 80.271 18.444C80.271 16.794 81.153 15.674 82.409 15.124C83.496 14.64 85.015 14.552 86.178 14.42V14.156C86.178 13.672 86.215 13.101 85.933 12.683C85.69 12.309 85.221 12.155 84.809 12.155C84.044 12.155 83.365 12.552 83.198 13.375C83.163 13.558 83.031 13.739 82.85 13.749L80.907 13.535C80.743 13.498 80.561 13.365 80.608 13.11C81.055 10.721 83.183 10 85.09 10C86.065 10 87.34 10.263 88.108 11.011C89.083 11.935 88.989 13.166 88.989 14.508V17.673C88.989 18.625 89.379 19.043 89.746 19.555C89.874 19.74 89.902 19.96 89.739 20.095C89.33 20.443 88.603 21.083 88.202 21.445L88.197 21.44ZM86.177 16.487V16.047C84.727 16.047 83.197 16.361 83.197 18.092C83.197 18.972 83.647 19.565 84.415 19.565C84.977 19.565 85.484 19.213 85.802 18.642C86.196 17.938 86.178 17.279 86.178 16.487H86.177ZM61.926 21.44C61.8618 21.496 61.7818 21.5306 61.697 21.539C61.6122 21.5475 61.527 21.5293 61.453 21.487C60.786 20.927 60.667 20.667 60.303 20.133C59.204 21.27 58.425 21.61 57 21.61C55.312 21.61 54 20.555 54 18.444C54 16.794 54.88 15.674 56.137 15.124C57.224 14.64 58.743 14.552 59.905 14.42V14.156C59.905 13.672 59.943 13.101 59.662 12.683C59.418 12.309 58.949 12.155 58.537 12.155C57.773 12.155 57.093 12.552 56.927 13.375C56.891 13.558 56.759 13.739 56.577 13.749L54.637 13.535C54.472 13.498 54.29 13.365 54.337 13.11C54.783 10.721 56.911 10 58.818 10C59.793 10 61.068 10.263 61.836 11.011C62.811 11.935 62.718 13.166 62.718 14.508V17.673C62.718 18.625 63.108 19.043 63.474 19.555C63.602 19.74 63.631 19.96 63.468 20.095C62.9498 20.5383 62.4374 20.9883 61.931 21.445L61.926 21.44ZM59.906 16.487V16.047C58.456 16.047 56.924 16.361 56.924 18.092C56.924 18.972 57.374 19.565 58.143 19.565C58.705 19.565 59.212 19.213 59.53 18.642C59.924 17.938 59.906 17.279 59.906 16.487Z" fill="#222222"/>
</g>
<rect x="0.5" y="0.5" width="188" height="39" rx="3.5" stroke="#FAD676"/>
<rect width="189" height="40" transform="translate(240)" fill="#FFC439"/>
<g clip-path="url(#clip1_429_17429)">
<path d="M306.816 15.9375C306.991 14.625 306.816 13.75 306.114 12.9375C305.353 12.0625 304.007 11.625 302.311 11.625H297.337C297.044 11.625 296.694 11.9375 296.634 12.25L294.587 26.125C294.587 26.375 294.763 26.6875 295.055 26.6875H298.098L297.922 28.0625C297.863 28.3125 298.039 28.5 298.273 28.5H300.848C301.141 28.5 301.433 28.3125 301.491 28V27.8125L302.018 24.5625V24.4375C302.076 24.125 302.369 23.875 302.661 23.875H303.013C305.528 23.875 307.459 22.8125 308.044 19.6875C308.337 18.375 308.221 17.3125 307.518 16.5625C307.343 16.3125 307.049 16.125 306.816 15.9375Z" fill="#009CDE"/>
<path d="M306.816 15.9375C306.991 14.625 306.816 13.75 306.114 12.9375C305.353 12.0625 304.007 11.625 302.311 11.625H297.337C297.044 11.625 296.694 11.9375 296.634 12.25L294.587 26.125C294.587 26.375 294.763 26.6875 295.055 26.6875H298.098L298.917 21.5L298.858 21.6875C298.917 21.3125 299.209 21.0625 299.56 21.0625H301.023C303.89 21.0625 306.114 19.8125 306.816 16.3125C306.758 16.125 306.816 16.0625 306.816 15.9375Z" fill="#012169"/>
<path d="M299.678 15.9375C299.736 15.75 299.853 15.5625 300.029 15.4375C300.145 15.4375 300.204 15.375 300.321 15.375H304.183C304.651 15.375 305.118 15.4375 305.471 15.5C305.587 15.5 305.704 15.5 305.821 15.5625C305.938 15.625 306.055 15.625 306.114 15.6875C306.172 15.6875 306.23 15.6875 306.289 15.6875C306.464 15.75 306.64 15.875 306.816 15.9375C306.991 14.625 306.816 13.75 306.114 12.875C305.411 12 304.066 11.625 302.369 11.625H297.337C297.044 11.625 296.694 11.875 296.634 12.25L294.587 26.125C294.587 26.375 294.763 26.6875 295.055 26.6875H298.098L298.917 21.5L299.678 15.9375Z" fill="#003087"/>
</g>
<g clip-path="url(#clip2_429_17429)">
<path d="M320.25 13.0732H315.375C315.063 13.0732 314.75 13.3232 314.688 13.6357L312.75 26.1357C312.688 26.3857 312.875 26.5732 313.125 26.5732H315.438C315.75 26.5732 316.063 26.3232 316.125 26.0107L316.625 22.6357C316.688 22.3232 316.938 22.0732 317.313 22.0732H318.875C322.063 22.0732 323.938 20.5107 324.438 17.4482C324.625 16.1357 324.438 15.0732 323.813 14.3232C323.125 13.5107 321.875 13.0732 320.25 13.0732ZM320.813 17.6357C320.563 19.3857 319.188 19.3857 317.938 19.3857H317.188L317.688 16.1357C317.688 15.9482 317.875 15.8232 318.063 15.8232H318.375C319.25 15.8232 320.063 15.8232 320.5 16.3232C320.813 16.5732 320.938 17.0107 320.813 17.6357Z" fill="#003087"/>
<path d="M334.75 17.5732H332.438C332.25 17.5732 332.063 17.6982 332.063 17.8857L331.938 18.5107L331.75 18.2607C331.25 17.5107 330.125 17.2607 329 17.2607C326.438 17.2607 324.25 19.1982 323.813 21.9482C323.563 23.3232 323.875 24.6357 324.688 25.5107C325.375 26.3232 326.438 26.6982 327.625 26.6982C329.688 26.6982 330.875 25.3857 330.875 25.3857L330.75 26.0107C330.688 26.2607 330.875 26.5107 331.125 26.5107H333.25C333.563 26.5107 333.875 26.2607 333.938 25.9482L335.188 17.9482C335.25 17.8232 335 17.5732 334.75 17.5732ZM331.563 22.0732C331.313 23.3857 330.313 24.3232 328.938 24.3232C328.25 24.3232 327.75 24.1357 327.375 23.6982C327 23.2607 326.875 22.6982 327 22.0732C327.188 20.7607 328.313 19.8232 329.625 19.8232C330.313 19.8232 330.813 20.0732 331.188 20.4482C331.5 20.8857 331.625 21.4482 331.563 22.0732Z" fill="#003087"/>
<path d="M347.188 17.5732H344.875C344.625 17.5732 344.438 17.6982 344.313 17.8857L341.063 22.6357L339.688 18.0732C339.625 17.7607 339.313 17.5732 339.063 17.5732H336.75C336.5 17.5732 336.25 17.8232 336.375 18.1357L338.938 25.6982L336.5 29.0732C336.313 29.3232 336.5 29.6982 336.813 29.6982H339.125C339.375 29.6982 339.563 29.5732 339.688 29.3857L347.5 18.1357C347.688 17.9482 347.5 17.5732 347.188 17.5732Z" fill="#003087"/>
<path d="M354.938 13.0732H350.063C349.75 13.0732 349.438 13.3232 349.375 13.6357L347.438 26.0732C347.375 26.3232 347.563 26.5107 347.813 26.5107H350.313C350.563 26.5107 350.75 26.3232 350.75 26.1357L351.313 22.5732C351.375 22.2607 351.625 22.0107 352 22.0107H353.563C356.75 22.0107 358.625 20.4482 359.125 17.3857C359.313 16.0732 359.125 15.0107 358.5 14.2607C357.75 13.5107 356.563 13.0732 354.938 13.0732ZM355.5 17.6357C355.25 19.3857 353.875 19.3857 352.625 19.3857H351.875L352.375 16.1357C352.375 15.9482 352.563 15.8232 352.75 15.8232H353.063C353.938 15.8232 354.75 15.8232 355.188 16.3232C355.5 16.5732 355.563 17.0107 355.5 17.6357Z" fill="#009CDE"/>
<path d="M369.438 17.5732H367.125C366.938 17.5732 366.75 17.6982 366.75 17.8857L366.625 18.5107L366.438 18.2607C365.938 17.5107 364.813 17.2607 363.688 17.2607C361.125 17.2607 358.938 19.1982 358.5 21.9482C358.25 23.3232 358.563 24.6357 359.375 25.5107C360.063 26.3232 361.125 26.6982 362.313 26.6982C364.375 26.6982 365.563 25.3857 365.563 25.3857L365.438 26.0107C365.375 26.2607 365.563 26.5107 365.813 26.5107H367.938C368.25 26.5107 368.563 26.2607 368.625 25.9482L369.875 17.9482C369.875 17.8232 369.688 17.5732 369.438 17.5732ZM366.188 22.0732C365.938 23.3857 364.938 24.3232 363.563 24.3232C362.875 24.3232 362.375 24.1357 362 23.6982C361.625 23.2607 361.5 22.6982 361.625 22.0732C361.813 20.7607 362.938 19.8232 364.25 19.8232C364.938 19.8232 365.438 20.0732 365.813 20.4482C366.188 20.8857 366.313 21.4482 366.188 22.0732Z" fill="#009CDE"/>
<path d="M372.188 13.3857L370.188 26.0732C370.125 26.3232 370.313 26.5107 370.563 26.5107H372.563C372.875 26.5107 373.188 26.2607 373.25 25.9482L375.25 13.5107C375.313 13.2607 375.125 13.0732 374.875 13.0732H372.625C372.375 13.0732 372.25 13.1982 372.188 13.3857Z" fill="#009CDE"/>
</g>
<rect width="189" height="40" transform="translate(480)" fill="#FFC439"/>
<g clip-path="url(#clip3_429_17429)">
<path d="M546.815 15.9375C546.99 14.625 546.815 13.75 546.113 12.9375C545.352 12.0625 544.006 11.625 542.31 11.625H537.336C537.043 11.625 536.693 11.9375 536.633 12.25L534.586 26.125C534.586 26.375 534.762 26.6875 535.054 26.6875H538.097L537.921 28.0625C537.862 28.3125 538.038 28.5 538.272 28.5H540.847C541.14 28.5 541.432 28.3125 541.49 28V27.8125L542.017 24.5625V24.4375C542.075 24.125 542.368 23.875 542.66 23.875H543.012C545.527 23.875 547.458 22.8125 548.043 19.6875C548.336 18.375 548.22 17.3125 547.517 16.5625C547.342 16.3125 547.048 16.125 546.815 15.9375Z" fill="#009CDE"/>
<path d="M546.815 15.9375C546.99 14.625 546.815 13.75 546.113 12.9375C545.352 12.0625 544.006 11.625 542.31 11.625H537.336C537.043 11.625 536.693 11.9375 536.633 12.25L534.586 26.125C534.586 26.375 534.762 26.6875 535.054 26.6875H538.097L538.916 21.5L538.857 21.6875C538.916 21.3125 539.208 21.0625 539.559 21.0625H541.022C543.889 21.0625 546.113 19.8125 546.815 16.3125C546.757 16.125 546.815 16.0625 546.815 15.9375Z" fill="#012169"/>
<path d="M539.677 15.9375C539.735 15.75 539.852 15.5625 540.028 15.4375C540.144 15.4375 540.203 15.375 540.32 15.375H544.182C544.65 15.375 545.117 15.4375 545.47 15.5C545.586 15.5 545.703 15.5 545.82 15.5625C545.937 15.625 546.054 15.625 546.113 15.6875C546.171 15.6875 546.229 15.6875 546.288 15.6875C546.463 15.75 546.639 15.875 546.815 15.9375C546.99 14.625 546.815 13.75 546.113 12.875C545.41 12 544.065 11.625 542.368 11.625H537.336C537.043 11.625 536.693 11.875 536.633 12.25L534.586 26.125C534.586 26.375 534.762 26.6875 535.054 26.6875H538.097L538.916 21.5L539.677 15.9375Z" fill="#003087"/>
</g>
<g clip-path="url(#clip4_429_17429)">
<path d="M560.25 13.0732H555.375C555.063 13.0732 554.75 13.3232 554.688 13.6357L552.75 26.1357C552.688 26.3857 552.875 26.5732 553.125 26.5732H555.438C555.75 26.5732 556.063 26.3232 556.125 26.0107L556.625 22.6357C556.688 22.3232 556.938 22.0732 557.313 22.0732H558.875C562.063 22.0732 563.938 20.5107 564.438 17.4482C564.625 16.1357 564.438 15.0732 563.813 14.3232C563.125 13.5107 561.875 13.0732 560.25 13.0732ZM560.813 17.6357C560.563 19.3857 559.188 19.3857 557.938 19.3857H557.188L557.688 16.1357C557.688 15.9482 557.875 15.8232 558.063 15.8232H558.375C559.25 15.8232 560.063 15.8232 560.5 16.3232C560.813 16.5732 560.938 17.0107 560.813 17.6357Z" fill="#003087"/>
<path d="M574.75 17.5732H572.438C572.25 17.5732 572.063 17.6982 572.063 17.8857L571.938 18.5107L571.75 18.2607C571.25 17.5107 570.125 17.2607 569 17.2607C566.438 17.2607 564.25 19.1982 563.813 21.9482C563.563 23.3232 563.875 24.6357 564.688 25.5107C565.375 26.3232 566.438 26.6982 567.625 26.6982C569.688 26.6982 570.875 25.3857 570.875 25.3857L570.75 26.0107C570.688 26.2607 570.875 26.5107 571.125 26.5107H573.25C573.563 26.5107 573.875 26.2607 573.938 25.9482L575.188 17.9482C575.25 17.8232 575 17.5732 574.75 17.5732ZM571.563 22.0732C571.313 23.3857 570.313 24.3232 568.938 24.3232C568.25 24.3232 567.75 24.1357 567.375 23.6982C567 23.2607 566.875 22.6982 567 22.0732C567.188 20.7607 568.313 19.8232 569.625 19.8232C570.313 19.8232 570.813 20.0732 571.188 20.4482C571.5 20.8857 571.625 21.4482 571.563 22.0732Z" fill="#003087"/>
<path d="M587.188 17.5732H584.875C584.625 17.5732 584.438 17.6982 584.313 17.8857L581.063 22.6357L579.688 18.0732C579.625 17.7607 579.313 17.5732 579.063 17.5732H576.75C576.5 17.5732 576.25 17.8232 576.375 18.1357L578.938 25.6982L576.5 29.0732C576.313 29.3232 576.5 29.6982 576.813 29.6982H579.125C579.375 29.6982 579.563 29.5732 579.688 29.3857L587.5 18.1357C587.688 17.9482 587.5 17.5732 587.188 17.5732Z" fill="#003087"/>
<path d="M594.938 13.0732H590.063C589.75 13.0732 589.438 13.3232 589.375 13.6357L587.438 26.0732C587.375 26.3232 587.563 26.5107 587.813 26.5107H590.313C590.563 26.5107 590.75 26.3232 590.75 26.1357L591.313 22.5732C591.375 22.2607 591.625 22.0107 592 22.0107H593.563C596.75 22.0107 598.625 20.4482 599.125 17.3857C599.313 16.0732 599.125 15.0107 598.5 14.2607C597.75 13.5107 596.563 13.0732 594.938 13.0732ZM595.5 17.6357C595.25 19.3857 593.875 19.3857 592.625 19.3857H591.875L592.375 16.1357C592.375 15.9482 592.563 15.8232 592.75 15.8232H593.063C593.938 15.8232 594.75 15.8232 595.188 16.3232C595.5 16.5732 595.563 17.0107 595.5 17.6357Z" fill="#009CDE"/>
<path d="M609.438 17.5732H607.125C606.938 17.5732 606.75 17.6982 606.75 17.8857L606.625 18.5107L606.438 18.2607C605.938 17.5107 604.813 17.2607 603.688 17.2607C601.125 17.2607 598.938 19.1982 598.5 21.9482C598.25 23.3232 598.563 24.6357 599.375 25.5107C600.063 26.3232 601.125 26.6982 602.313 26.6982C604.375 26.6982 605.563 25.3857 605.563 25.3857L605.438 26.0107C605.375 26.2607 605.563 26.5107 605.813 26.5107H607.938C608.25 26.5107 608.563 26.2607 608.625 25.9482L609.875 17.9482C609.875 17.8232 609.688 17.5732 609.438 17.5732ZM606.188 22.0732C605.938 23.3857 604.938 24.3232 603.563 24.3232C602.875 24.3232 602.375 24.1357 602 23.6982C601.625 23.2607 601.5 22.6982 601.625 22.0732C601.813 20.7607 602.938 19.8232 604.25 19.8232C604.938 19.8232 605.438 20.0732 605.813 20.4482C606.188 20.8857 606.313 21.4482 606.188 22.0732Z" fill="#009CDE"/>
<path d="M612.188 13.3857L610.188 26.0732C610.125 26.3232 610.313 26.5107 610.563 26.5107H612.563C612.875 26.5107 613.188 26.2607 613.25 25.9482L615.25 13.5107C615.313 13.2607 615.125 13.0732 614.875 13.0732H612.625C612.375 13.0732 612.25 13.1982 612.188 13.3857Z" fill="#009CDE"/>
</g>
<circle cx="95" cy="63" r="8.5" fill="white" stroke="black"/>
<circle cx="335" cy="63" r="8.5" fill="white" stroke="black"/>
<circle cx="575" cy="63" r="8.5" fill="white" stroke="black"/>
<defs>
<clipPath id="clip0_429_17429">
<rect width="102" height="20" fill="white" transform="translate(54 10)"/>
</clipPath>
<clipPath id="clip1_429_17429">
<rect width="15" height="20" fill="white" transform="translate(293.75 10)"/>
</clipPath>
<clipPath id="clip2_429_17429">
<rect width="62.5" height="20" fill="white" transform="translate(312.75 10)"/>
</clipPath>
<clipPath id="clip3_429_17429">
<rect width="15" height="20" fill="white" transform="translate(533.75 10)"/>
</clipPath>
<clipPath id="clip4_429_17429">
<rect width="62.5" height="20" fill="white" transform="translate(552.75 10)"/>
</clipPath>
</defs>
</svg>
