<svg width="15" height="22" viewBox="0 0 15 22" fill="none" xmlns="http://www.w3.org/2000/svg">
<path d="M7.49975 21.6659C7.0724 21.6659 6.72019 21.3443 6.67205 20.9298L6.66644 20.8326V17.4994C6.66644 17.0392 7.03953 16.6661 7.49975 16.6661C7.9271 16.6661 8.27931 16.9878 8.32745 17.4022L8.33306 17.4994V20.8326C8.33306 21.2929 7.95997 21.6659 7.49975 21.6659Z" fill="#D5B58C"/>
<path d="M0.696441 11.6775C1.1504 11.6018 1.57974 11.9085 1.6554 12.3625C2.14029 15.2718 3.99922 16.666 7.49988 16.666C11.0005 16.666 12.8595 15.2718 13.3444 12.3625C13.42 11.9085 13.8494 11.6018 14.3033 11.6775C14.7573 11.7532 15.0639 12.1825 14.9883 12.6365C14.3621 16.3936 11.7767 18.3326 7.49988 18.3326C3.22302 18.3326 0.637655 16.3936 0.0114681 12.6365C-0.064192 12.1825 0.242481 11.7532 0.696441 11.6775Z" fill="#D5B58C"/>
<path d="M7.49975 0C5.19864 0 3.33322 1.86542 3.33322 4.16653V10.833C3.33322 13.1341 5.19864 14.9995 7.49975 14.9995C9.80086 14.9995 11.6663 13.1341 11.6663 10.833V4.16653C11.6663 1.86542 9.80086 0 7.49975 0ZM7.49975 1.66661C8.88042 1.66661 9.99967 2.78586 9.99967 4.16653V10.833C9.99967 12.2136 8.88042 13.3329 7.49975 13.3329C6.11908 13.3329 4.99983 12.2136 4.99983 10.833V4.16653C4.99983 2.78586 6.11908 1.66661 7.49975 1.66661Z" fill="#D5B58C"/>
</svg>
