<svg width="328" height="28" viewBox="0 0 328 28" fill="none" xmlns="http://www.w3.org/2000/svg">
<g clip-path="url(#clip0_423_16714)">
<path d="M12 0C5.373 0 0 5.373 0 12C0 18.627 5.373 24 12 24C18.627 24 24 18.627 24 12C24 5.373 18.627 0 12 0ZM15 8H13.65C13.112 8 13 8.221 13 8.778V10H15L14.791 12H13V19H10V12H8V10H10V7.692C10 5.923 10.931 5 13.029 5H15V8Z" fill="black"/>
</g>
<g clip-path="url(#clip1_423_16714)">
<path d="M46.829 6.302C46.091 6.268 45.869 6.262 44 6.262C42.131 6.262 41.91 6.269 41.172 6.302C39.273 6.389 38.389 7.288 38.302 9.172C38.269 9.91 38.261 10.131 38.261 12C38.261 13.869 38.269 14.09 38.302 14.829C38.389 16.708 39.269 17.612 41.172 17.699C41.909 17.732 42.131 17.74 44 17.74C45.87 17.74 46.091 17.733 46.829 17.699C48.728 17.613 49.611 16.711 49.699 14.829C49.732 14.091 49.739 13.869 49.739 12C49.739 10.131 49.732 9.91 49.699 9.172C49.611 7.289 48.726 6.389 46.829 6.302ZM44 15.595C43.5279 15.595 43.0604 15.502 42.6243 15.3213C42.1881 15.1407 41.7918 14.8759 41.458 14.542C41.1241 14.2082 40.8593 13.8119 40.6787 13.3757C40.498 12.9396 40.405 12.4721 40.405 12C40.405 11.5279 40.498 11.0604 40.6787 10.6243C40.8593 10.1881 41.1241 9.79178 41.458 9.45795C41.7918 9.12412 42.1881 8.85932 42.6243 8.67865C43.0604 8.49799 43.5279 8.405 44 8.405C44.9535 8.405 45.8679 8.78376 46.542 9.45795C47.2162 10.1321 47.595 11.0465 47.595 12C47.595 12.9535 47.2162 13.8679 46.542 14.542C45.8679 15.2162 44.9535 15.595 44 15.595ZM47.737 9.104C47.5142 9.104 47.3006 9.0155 47.143 8.85797C46.9855 8.70044 46.897 8.48678 46.897 8.264C46.897 8.04122 46.9855 7.82756 47.143 7.67003C47.3006 7.5125 47.5142 7.424 47.737 7.424C47.9598 7.424 48.1734 7.5125 48.331 7.67003C48.4885 7.82756 48.577 8.04122 48.577 8.264C48.577 8.48678 48.4885 8.70044 48.331 8.85797C48.1734 9.0155 47.9598 9.104 47.737 9.104ZM46.333 12C46.333 12.6187 46.0872 13.2122 45.6497 13.6497C45.2122 14.0872 44.6187 14.333 44 14.333C43.3813 14.333 42.7878 14.0872 42.3503 13.6497C41.9128 13.2122 41.667 12.6187 41.667 12C41.667 11.3813 41.9128 10.7878 42.3503 10.3503C42.7878 9.9128 43.3813 9.667 44 9.667C44.6187 9.667 45.2122 9.9128 45.6497 10.3503C46.0872 10.7878 46.333 11.3813 46.333 12ZM44 0C37.373 0 32 5.373 32 12C32 18.627 37.373 24 44 24C50.627 24 56 18.627 56 12C56 5.373 50.627 0 44 0ZM50.958 14.886C50.843 17.431 49.426 18.841 46.887 18.958C46.14 18.992 45.901 19 44 19C42.099 19 41.861 18.992 41.114 18.958C38.57 18.841 37.159 17.429 37.042 14.886C37.008 14.14 37 13.901 37 12C37 10.099 37.008 9.861 37.042 9.114C37.159 6.57 38.571 5.159 41.114 5.043C41.861 5.008 42.099 5 44 5C45.901 5 46.14 5.008 46.887 5.043C49.432 5.16 50.844 6.575 50.958 9.114C50.992 9.861 51 10.099 51 12C51 13.901 50.992 14.14 50.958 14.886Z" fill="black"/>
</g>
<g clip-path="url(#clip2_423_16714)">
<path d="M76 0C69.373 0 64 5.372 64 12C64 17.084 67.163 21.426 71.627 23.174C71.522 22.225 71.427 20.769 71.669 19.733C71.887 18.796 73.076 13.768 73.076 13.768C73.076 13.768 72.717 13.049 72.717 11.986C72.717 10.318 73.684 9.072 74.888 9.072C75.911 9.072 76.406 9.841 76.406 10.762C76.406 11.791 75.751 13.33 75.412 14.757C75.129 15.951 76.011 16.926 77.189 16.926C79.322 16.926 80.961 14.677 80.961 11.431C80.961 8.558 78.897 6.549 75.949 6.549C72.535 6.549 70.531 9.11 70.531 11.756C70.531 12.787 70.928 13.894 71.424 14.494C71.4665 14.5394 71.4964 14.5951 71.511 14.6556C71.5255 14.716 71.5241 14.7792 71.507 14.839L71.174 16.199C71.121 16.419 71 16.466 70.772 16.36C69.273 15.662 68.336 13.471 68.336 11.711C68.336 7.926 71.086 4.449 76.265 4.449C80.428 4.449 83.663 7.416 83.663 11.38C83.663 15.516 81.056 18.844 77.436 18.844C76.22 18.844 75.077 18.213 74.686 17.466L73.938 20.319C73.667 21.362 72.936 22.669 72.446 23.465C73.57 23.812 74.763 24 76 24C82.627 24 88 18.627 88 12C88 5.372 82.627 0 76 0Z" fill="black"/>
</g>
<g clip-path="url(#clip3_423_16714)">
<path d="M108 0C101.373 0 96 5.373 96 12C96 18.627 101.373 24 108 24C114.627 24 120 18.627 120 12C120 5.373 114.627 0 108 0ZM115 10.5613C113.624 10.5645 112.281 10.1354 111.162 9.3344V14.9207C111.162 17.0395 109.846 18.9353 107.862 19.6777C105.877 20.42 103.64 19.8531 102.249 18.2551C100.858 16.6572 100.604 14.3637 101.613 12.5004C102.621 10.6371 104.68 9.59517 106.779 9.88609V12.6958C105.817 12.3932 104.769 12.7432 104.182 13.5632C103.595 14.3832 103.602 15.4876 104.198 16.3006C104.795 17.1137 105.847 17.4512 106.805 17.1373C107.763 16.8234 108.412 15.9292 108.412 14.9207V4H111.162C111.16 4.23229 111.18 4.46426 111.22 4.69298C111.414 5.72489 112.023 6.63177 112.906 7.20045C113.527 7.6112 114.255 7.83013 115 7.82998V10.5613Z" fill="black"/>
</g>
<g clip-path="url(#clip4_423_16714)">
<path d="M140 0C133.373 0 128 5.373 128 12C128 18.627 133.373 24 140 24C146.627 24 152 18.627 152 12C152 5.373 146.627 0 140 0ZM146.066 9.645C146.249 13.685 143.236 18.189 137.902 18.189C136.341 18.1903 134.813 17.7421 133.5 16.898C135.019 17.0802 136.548 16.6526 137.752 15.709C137.153 15.6973 136.572 15.4988 136.091 15.1412C135.609 14.7835 135.252 14.2846 135.068 13.714C135.499 13.7967 135.943 13.78 136.366 13.665C134.985 13.387 134.031 12.143 134.062 10.812C134.45 11.027 134.892 11.156 135.363 11.171C134.755 10.7644 134.325 10.1417 134.16 9.42936C133.995 8.71701 134.107 7.96851 134.474 7.336C135.195 8.22339 136.095 8.94917 137.115 9.46618C138.135 9.9832 139.252 10.2799 140.394 10.337C140.252 9.7214 140.316 9.07611 140.577 8.50081C140.839 7.92551 141.282 7.45223 141.839 7.15408C142.396 6.85593 143.036 6.74951 143.659 6.85126C144.283 6.953 144.856 7.25725 145.289 7.717C145.932 7.59074 146.549 7.35498 147.113 7.02C146.898 7.68521 146.45 8.24988 145.85 8.609C146.419 8.54134 146.975 8.38863 147.499 8.156C147.115 8.73459 146.629 9.23903 146.066 9.645Z" fill="black"/>
</g>
<g clip-path="url(#clip5_423_16714)">
<path d="M172 0C165.373 0 160 5.373 160 12C160 18.627 165.373 24 172 24C178.627 24 184 18.627 184 12C184 5.373 178.627 0 172 0ZM176.441 16.892C174.339 17.036 169.657 17.036 167.558 16.892C165.282 16.736 165.017 15.622 165 12C165.017 8.371 165.285 7.264 167.558 7.108C169.657 6.964 174.34 6.964 176.441 7.108C178.718 7.264 178.982 8.378 179 12C178.982 15.629 178.715 16.736 176.441 16.892ZM170 9.658L174.917 11.996L170 14.342V9.658Z" fill="black"/>
</g>
<defs>
<clipPath id="clip0_423_16714">
<rect width="24" height="24" fill="white"/>
</clipPath>
<clipPath id="clip1_423_16714">
<rect width="24" height="24" fill="white" transform="translate(32)"/>
</clipPath>
<clipPath id="clip2_423_16714">
<rect width="24" height="24" fill="white" transform="translate(64)"/>
</clipPath>
<clipPath id="clip3_423_16714">
<rect width="24" height="24" fill="white" transform="translate(96)"/>
</clipPath>
<clipPath id="clip4_423_16714">
<rect width="24" height="24" fill="white" transform="translate(128)"/>
</clipPath>
<clipPath id="clip5_423_16714">
<rect width="24" height="24" fill="white" transform="translate(160)"/>
</clipPath>
</defs>
</svg>
