<svg width="12" height="12" viewBox="0 0 12 12" fill="none" xmlns="http://www.w3.org/2000/svg">
<path fill-rule="evenodd" clip-rule="evenodd" d="M1.2001 5.41202C1.04097 5.41202 0.888355 5.47524 0.775834 5.58776C0.663312 5.70028 0.600098 5.85289 0.600098 6.01202C0.600098 6.17115 0.663312 6.32377 0.775834 6.43629C0.888355 6.54881 1.04097 6.61202 1.2001 6.61202H5.4001L5.4121 10.812C5.41289 10.8908 5.42919 10.9687 5.46007 11.0412C5.49095 11.1137 5.5358 11.1794 5.59208 11.2345C5.64835 11.2897 5.71493 11.3332 5.78803 11.3626C5.86113 11.3921 5.9393 11.4068 6.0181 11.406C6.09689 11.4052 6.17476 11.3889 6.24725 11.3581C6.31975 11.3272 6.38545 11.2823 6.4406 11.226C6.49576 11.1698 6.5393 11.1032 6.56872 11.0301C6.59815 10.957 6.61289 10.8788 6.6121 10.8V6.60002L10.8121 6.58802C10.8909 6.58724 10.9688 6.57094 11.0413 6.54006C11.1137 6.50918 11.1794 6.46432 11.2346 6.40805C11.2898 6.35177 11.3333 6.28519 11.3627 6.21209C11.3921 6.13899 11.4069 6.06082 11.4061 5.98202C11.4053 5.90323 11.389 5.82536 11.3581 5.75287C11.3272 5.68038 11.2824 5.61468 11.2261 5.55952C11.1698 5.50436 11.1033 5.46083 11.0302 5.4314C10.9571 5.40198 10.8789 5.38724 10.8001 5.38802H6.6001L6.5881 1.18802C6.58651 1.02889 6.52177 0.876914 6.40812 0.765517C6.29447 0.654121 6.14123 0.592433 5.9821 0.594024C5.82297 0.595615 5.67099 0.660356 5.55959 0.774003C5.44819 0.88765 5.38651 1.04089 5.3881 1.20002V5.40002L1.1881 5.41202H1.2001Z" fill="black"/>
</svg>
