<svg width="42" height="42" viewBox="0 0 42 42" fill="none" xmlns="http://www.w3.org/2000/svg">
<path d="M36.833 32.2497C37.4658 32.2497 37.9888 32.7199 38.0716 33.3301L38.083 33.4997V35.583H40.1663C40.8567 35.583 41.4163 36.1427 41.4163 36.833C41.4163 37.4658 40.9461 37.9888 40.336 38.0716L40.1663 38.083H38.083V40.1663C38.083 40.8567 37.5234 41.4163 36.833 41.4163C36.2002 41.4163 35.6772 40.9461 35.5944 40.336L35.583 40.1663V38.083H33.4997C32.8093 38.083 32.2497 37.5234 32.2497 36.833C32.2497 36.2002 32.7199 35.6772 33.3301 35.5944L33.4997 35.583H35.583V33.4997C35.583 32.8093 36.1427 32.2497 36.833 32.2497ZM21.4873 0.993583L21.833 0.973008L21.8883 0.973587C22.3716 0.98273 22.853 1.11172 23.2858 1.36054L23.5393 1.52422L36.8726 11.1542C37.1729 11.3708 37.4248 11.6392 37.6198 11.9426L37.7803 12.226C37.9371 12.5429 38.0364 12.8885 38.0702 13.247L38.083 13.518V26.816C38.0826 27.1763 38.0157 27.5282 37.8902 27.8559L37.7677 28.1337C37.5973 28.4651 37.3698 28.7595 37.0914 29.0041L36.8732 29.178L23.5393 38.8085C23.1285 39.1047 22.6599 39.2815 22.1801 39.3389L21.833 39.3597L21.7793 39.3591C21.2955 39.3501 20.8134 39.2211 20.38 38.9719L20.1261 38.808L6.79343 29.1785C6.48974 28.9594 6.23549 28.6874 6.03965 28.3798L5.88573 28.1067C5.72893 27.7898 5.62957 27.4442 5.59586 27.0857L5.58301 26.8147V13.5167C5.58338 13.1563 5.65033 12.8045 5.77583 12.4767L5.89831 12.199C6.06937 11.8668 6.2968 11.5726 6.57485 11.3283L6.79279 11.1547L20.1268 1.52422C20.5379 1.22768 21.007 1.0508 21.4873 0.993583ZM13.3913 25.783L9.23801 27.8597L20.583 36.053V30.818L13.3913 25.783ZM30.273 25.783L23.083 30.8163V36.0513L34.4263 27.8597L30.273 25.783ZM21.833 11.6913L14.7497 16.6497V23.6813L21.833 28.6397L28.9163 23.6797V16.6513L21.833 11.6913ZM8.08134 14.688V25.6447L12.2497 23.5597V16.7713L8.08134 14.688ZM35.5813 14.688L31.4163 16.7713V23.5613L35.5813 25.643V14.688ZM20.583 4.27801L9.23801 12.4713L13.3913 14.548L20.583 9.51301V4.27801ZM23.083 4.27801V9.51467L30.273 14.548L34.4263 12.4713L23.083 4.27801ZM5.16634 0.583008C5.79917 0.583008 6.32216 1.05326 6.40493 1.66339L6.41634 1.83301V3.91634H8.49967C9.19003 3.91634 9.74967 4.47599 9.74967 5.16634C9.74967 5.79917 9.27942 6.32216 8.66929 6.40493L8.49967 6.41634H6.41634V8.49967C6.41634 9.19003 5.8567 9.74967 5.16634 9.74967C4.53351 9.74967 4.01052 9.27942 3.92775 8.66929L3.91634 8.49967V6.41634H1.83301C1.14265 6.41634 0.583008 5.8567 0.583008 5.16634C0.583008 4.53351 1.05326 4.01052 1.66339 3.92775L1.83301 3.91634H3.91634V1.83301C3.91634 1.14265 4.47599 0.583008 5.16634 0.583008Z" fill="black"/>
</svg>
