<svg width="150" height="28" viewBox="0 0 150 28" fill="none" xmlns="http://www.w3.org/2000/svg">
<path d="M13.9975 1.1665C14.1694 1.16659 14.3379 1.21413 14.4844 1.30388C14.631 1.39364 14.75 1.52212 14.8282 1.67517L18.6455 9.23634L25.9908 9.96434C26.1656 9.97888 26.3326 10.0432 26.472 10.1497C26.6114 10.2562 26.7174 10.4004 26.7774 10.5652C26.8375 10.73 26.849 10.9086 26.8107 11.0798C26.7724 11.251 26.6859 11.4076 26.5613 11.5312L20.5157 17.5232L22.7568 25.6653C22.791 25.7944 22.797 25.9293 22.7742 26.0609C22.7515 26.1925 22.7006 26.3176 22.6251 26.4277C22.5495 26.5378 22.4511 26.6303 22.3365 26.6989C22.2219 26.7675 22.0939 26.8105 21.9612 26.825L21.8293 26.8297C21.6954 26.8252 21.5641 26.7918 21.4443 26.7317L13.9975 23.045L6.55999 26.727C6.47979 26.7676 6.39412 26.7963 6.30566 26.8122L6.17499 26.825C6.03043 26.8298 5.88675 26.8008 5.75542 26.7401C5.6241 26.6795 5.50877 26.589 5.41865 26.4759C5.32853 26.3628 5.26612 26.2301 5.2364 26.0886C5.20668 25.947 5.21048 25.8005 5.24749 25.6607L7.48749 17.5185L1.43949 11.5265C1.31496 11.403 1.22842 11.2463 1.19012 11.0751C1.15182 10.9039 1.16336 10.7254 1.22338 10.5605C1.2834 10.3957 1.38938 10.2515 1.52878 10.145C1.66819 10.0385 1.83518 9.97422 2.00999 9.95967L9.35532 9.23167L13.1668 1.67517C13.245 1.52212 13.364 1.39364 13.5105 1.30388C13.6571 1.21413 13.8256 1.16659 13.9975 1.1665Z" fill="black"/>
<path d="M43.9975 1.1665C44.1694 1.16659 44.3379 1.21413 44.4844 1.30388C44.631 1.39364 44.75 1.52212 44.8282 1.67517L48.6455 9.23634L55.9908 9.96434C56.1656 9.97888 56.3326 10.0432 56.472 10.1497C56.6114 10.2562 56.7174 10.4004 56.7774 10.5652C56.8375 10.73 56.849 10.9086 56.8107 11.0798C56.7724 11.251 56.6859 11.4076 56.5613 11.5312L50.5157 17.5232L52.7568 25.6653C52.791 25.7944 52.797 25.9293 52.7742 26.0609C52.7515 26.1925 52.7006 26.3176 52.6251 26.4277C52.5495 26.5378 52.4511 26.6303 52.3365 26.6989C52.2219 26.7675 52.0939 26.8105 51.9612 26.825L51.8293 26.8297C51.6954 26.8252 51.5641 26.7918 51.4443 26.7317L43.9975 23.045L36.56 26.727C36.4798 26.7676 36.3941 26.7963 36.3057 26.8122L36.175 26.825C36.0304 26.8298 35.8868 26.8008 35.7554 26.7401C35.6241 26.6795 35.5088 26.589 35.4186 26.4759C35.3285 26.3628 35.2661 26.2301 35.2364 26.0886C35.2067 25.947 35.2105 25.8005 35.2475 25.6607L37.4875 17.5185L31.4395 11.5265C31.315 11.403 31.2284 11.2463 31.1901 11.0751C31.1518 10.9039 31.1634 10.7254 31.2234 10.5605C31.2834 10.3957 31.3894 10.2515 31.5288 10.145C31.6682 10.0385 31.8352 9.97422 32.01 9.95967L39.3553 9.23167L43.1668 1.67517C43.245 1.52212 43.364 1.39364 43.5105 1.30388C43.6571 1.21413 43.8256 1.16659 43.9975 1.1665Z" fill="black"/>
<path d="M73.9975 1.1665C74.1694 1.16659 74.3379 1.21413 74.4844 1.30388C74.631 1.39364 74.75 1.52212 74.8282 1.67517L78.6455 9.23634L85.9908 9.96434C86.1656 9.97888 86.3326 10.0432 86.472 10.1497C86.6114 10.2562 86.7174 10.4004 86.7774 10.5652C86.8375 10.73 86.849 10.9086 86.8107 11.0798C86.7724 11.251 86.6859 11.4076 86.5613 11.5312L80.5157 17.5232L82.7568 25.6653C82.791 25.7944 82.797 25.9293 82.7742 26.0609C82.7515 26.1925 82.7006 26.3176 82.6251 26.4277C82.5495 26.5378 82.4511 26.6303 82.3365 26.6989C82.2219 26.7675 82.0939 26.8105 81.9612 26.825L81.8293 26.8297C81.6954 26.8252 81.5641 26.7918 81.4443 26.7317L73.9975 23.045L66.56 26.727C66.4798 26.7676 66.3941 26.7963 66.3057 26.8122L66.175 26.825C66.0304 26.8298 65.8868 26.8008 65.7554 26.7401C65.6241 26.6795 65.5088 26.589 65.4186 26.4759C65.3285 26.3628 65.2661 26.2301 65.2364 26.0886C65.2067 25.947 65.2105 25.8005 65.2475 25.6607L67.4875 17.5185L61.4395 11.5265C61.315 11.403 61.2284 11.2463 61.1901 11.0751C61.1518 10.9039 61.1634 10.7254 61.2234 10.5605C61.2834 10.3957 61.3894 10.2515 61.5288 10.145C61.6682 10.0385 61.8352 9.97422 62.01 9.95967L69.3553 9.23167L73.1668 1.67517C73.245 1.52212 73.364 1.39364 73.5105 1.30388C73.6571 1.21413 73.8256 1.16659 73.9975 1.1665Z" fill="black"/>
<path d="M103.997 1.1665C104.169 1.16659 104.338 1.21413 104.484 1.30388C104.631 1.39364 104.75 1.52212 104.828 1.67517L108.645 9.23634L115.991 9.96434C116.166 9.97888 116.333 10.0432 116.472 10.1497C116.611 10.2562 116.717 10.4004 116.777 10.5652C116.837 10.73 116.849 10.9086 116.811 11.0798C116.772 11.251 116.686 11.4076 116.561 11.5312L110.516 17.5232L112.757 25.6653C112.791 25.7944 112.797 25.9293 112.774 26.0609C112.752 26.1925 112.701 26.3176 112.625 26.4277C112.55 26.5378 112.451 26.6303 112.337 26.6989C112.222 26.7675 112.094 26.8105 111.961 26.825L111.829 26.8297C111.695 26.8252 111.564 26.7918 111.444 26.7317L103.997 23.045L96.56 26.727C96.4798 26.7676 96.3941 26.7963 96.3057 26.8122L96.175 26.825C96.0304 26.8298 95.8868 26.8008 95.7554 26.7401C95.6241 26.6795 95.5088 26.589 95.4186 26.4759C95.3285 26.3628 95.2661 26.2301 95.2364 26.0886C95.2067 25.947 95.2105 25.8005 95.2475 25.6607L97.4875 17.5185L91.4395 11.5265C91.315 11.403 91.2284 11.2463 91.1901 11.0751C91.1518 10.9039 91.1634 10.7254 91.2234 10.5605C91.2834 10.3957 91.3894 10.2515 91.5288 10.145C91.6682 10.0385 91.8352 9.97422 92.01 9.95967L99.3553 9.23167L103.167 1.67517C103.245 1.52212 103.364 1.39364 103.511 1.30388C103.657 1.21413 103.826 1.16659 103.997 1.1665Z" fill="black"/>
<path d="M133.998 0.875002C134.357 0.875002 134.686 1.07567 134.85 1.39534L138.752 9.12917L146.266 9.8735C146.444 9.88837 146.615 9.95417 146.758 10.0631C146.901 10.1721 147.009 10.3196 147.07 10.4883C147.132 10.6569 147.143 10.8397 147.104 11.0148C147.065 11.1899 146.976 11.3502 146.849 11.4765L140.666 17.605L142.958 25.9327C143.005 26.1092 143 26.2954 142.943 26.469C142.887 26.6426 142.781 26.7962 142.64 26.9114C142.498 27.0266 142.326 27.0984 142.144 27.1183C141.963 27.1382 141.78 27.1053 141.616 27.0235L133.998 23.2517L126.391 27.0188C126.228 27.1006 126.045 27.1335 125.863 27.1136C125.682 27.0937 125.51 27.0219 125.368 26.9067C125.227 26.7915 125.121 26.6379 125.065 26.4643C125.008 26.2907 125.003 26.1045 125.05 25.928L127.341 17.6003L121.153 11.4718C121.026 11.3455 120.937 11.1853 120.898 11.0101C120.858 10.835 120.87 10.6523 120.932 10.4836C120.993 10.315 121.101 10.1674 121.244 10.0585C121.387 9.9495 121.558 9.8837 121.736 9.86884L129.25 9.1245L133.148 1.39534C133.228 1.23836 133.35 1.10667 133.501 1.01483C133.651 0.922995 133.824 0.8746 134 0.875002H133.998ZM133.998 3.59334L130.813 9.912C130.694 10.1483 130.523 10.3544 130.313 10.5151C130.103 10.6757 129.859 10.7867 129.6 10.8395L129.422 10.8652L123.608 11.4403L128.573 16.3567C128.981 16.7615 129.162 17.3367 129.067 17.8967L129.029 18.0647L127.212 24.6587L133.222 21.6837C133.436 21.5776 133.67 21.5164 133.908 21.504C134.147 21.4915 134.385 21.5281 134.609 21.6113L134.775 21.6837L140.793 24.6633L138.979 18.0693C138.904 17.798 138.896 17.5126 138.955 17.2374C139.014 16.9622 139.139 16.7053 139.318 16.4885L139.435 16.3613L144.393 11.4462L138.58 10.8698C138.317 10.8437 138.063 10.7583 137.838 10.6201C137.612 10.4819 137.421 10.2945 137.279 10.0718L137.19 9.91784L133.998 3.5945V3.59334Z" fill="black"/>
<path d="M133.998 0.875002C134.005 0.875002 134.007 0.914669 134.009 0.992836L133.998 23.2517L126.391 27.0188C126.31 27.06 126.222 27.089 126.132 27.1052L125.997 27.1192C125.849 27.1241 125.702 27.0944 125.568 27.0324C125.433 26.9704 125.316 26.8778 125.223 26.762C125.131 26.6463 125.067 26.5106 125.037 26.3658C125.007 26.2209 125.011 26.071 125.049 25.928L127.341 17.6003L121.153 11.4718C121.026 11.3455 120.937 11.1853 120.898 11.0101C120.858 10.835 120.87 10.6523 120.932 10.4836C120.993 10.315 121.101 10.1674 121.244 10.0585C121.387 9.9495 121.558 9.8837 121.736 9.86883L129.25 9.1245L133.148 1.39534C133.228 1.23836 133.35 1.10667 133.501 1.01483C133.651 0.922995 133.824 0.8746 134 0.875002H133.998Z" fill="black"/>
</svg>
