<svg width="24" height="24" viewBox="0 0 24 24" fill="none" xmlns="http://www.w3.org/2000/svg">
<path d="M12.0001 4.5C7.70408 4.5 4.21793 6.91349 1.59444 11.6358L1.39209 12L1.59444 12.3642C4.21793 17.0865 7.70408 19.5 12.0001 19.5C16.296 19.5 19.7822 17.0865 22.4057 12.3642L22.608 12L22.4057 11.6358C19.7822 6.91349 16.296 4.5 12.0001 4.5ZM12.2406 6.00296C15.6751 6.08781 18.5074 7.99787 20.7808 11.8187L20.8861 12L20.7808 12.1813C18.4545 16.091 15.543 18 12.0001 18L11.7595 17.997C8.32504 17.9122 5.4927 16.0021 3.21928 12.1813L3.11331 12L3.21928 11.8187C5.54557 7.90902 8.45708 6 12.0001 6L12.2406 6.00296Z" fill="#615438"/>
<path d="M12 7.5C9.51472 7.5 7.5 9.51472 7.5 12C7.5 14.4853 9.51472 16.5 12 16.5C14.4853 16.5 16.5 14.4853 16.5 12C16.5 9.51472 14.4853 7.5 12 7.5ZM12 9C13.6569 9 15 10.3431 15 12C15 13.6569 13.6569 15 12 15C10.3431 15 9 13.6569 9 12C9 10.3431 10.3431 9 12 9Z" fill="#615438"/>
</svg>
