<svg width="328" height="112" viewBox="0 0 328 112" fill="none" xmlns="http://www.w3.org/2000/svg">
<g clip-path="url(#clip0_423_16737)">
<path d="M29.4 0H33.6V4.2H29.4V0ZM33.6 0H37.8V4.2H33.6V0ZM46.2 0H50.4V4.2H46.2V0ZM50.4 0H54.6V4.2H50.4V0ZM63 0H67.2V4.2H63V0ZM67.2 0H71.4V4.2H67.2V0ZM71.4 0H75.6V4.2H71.4V0ZM4.2 4.2H8.4V8.4H4.2V4.2ZM8.4 4.2H12.6V8.4H8.4V4.2ZM12.6 4.2H16.8V8.4H12.6V4.2ZM16.8 4.2H21V8.4H16.8V4.2ZM21 4.2H25.2V8.4H21V4.2ZM29.4 4.2H33.6V8.4H29.4V4.2ZM33.6 4.2H37.8V8.4H33.6V4.2ZM37.8 4.2H42V8.4H37.8V4.2ZM42 4.2H46.2V8.4H42V4.2ZM46.2 4.2H50.4V8.4H46.2V4.2ZM50.4 4.2H54.6V8.4H50.4V4.2ZM58.8 4.2H63V8.4H58.8V4.2ZM63 4.2H67.2V8.4H63V4.2ZM67.2 4.2H71.4V8.4H67.2V4.2ZM71.4 4.2H75.6V8.4H71.4V4.2ZM79.8 4.2H84V8.4H79.8V4.2ZM84 4.2H88.2V8.4H84V4.2ZM88.2 4.2H92.4V8.4H88.2V4.2ZM92.4 4.2H96.6V8.4H92.4V4.2ZM96.6 4.2H100.8V8.4H96.6V4.2ZM4.2 8.4H8.4V12.6H4.2V8.4ZM21 8.4H25.2V12.6H21V8.4ZM29.4 8.4H33.6V12.6H29.4V8.4ZM33.6 8.4H37.8V12.6H33.6V8.4ZM50.4 8.4H54.6V12.6H50.4V8.4ZM54.6 8.4H58.8V12.6H54.6V8.4ZM63 8.4H67.2V12.6H63V8.4ZM71.4 8.4H75.6V12.6H71.4V8.4ZM79.8 8.4H84V12.6H79.8V8.4ZM96.6 8.4H100.8V12.6H96.6V8.4ZM4.2 12.6H8.4V16.8H4.2V12.6ZM21 12.6H25.2V16.8H21V12.6ZM29.4 12.6H33.6V16.8H29.4V12.6ZM42 12.6H46.2V16.8H42V12.6ZM58.8 12.6H63V16.8H58.8V12.6ZM71.4 12.6H75.6V16.8H71.4V12.6ZM79.8 12.6H84V16.8H79.8V12.6ZM96.6 12.6H100.8V16.8H96.6V12.6ZM4.2 16.8H8.4V21H4.2V16.8ZM21 16.8H25.2V21H21V16.8ZM29.4 16.8H33.6V21H29.4V16.8ZM58.8 16.8H63V21H58.8V16.8ZM63 16.8H67.2V21H63V16.8ZM67.2 16.8H71.4V21H67.2V16.8ZM71.4 16.8H75.6V21H71.4V16.8ZM79.8 16.8H84V21H79.8V16.8ZM96.6 16.8H100.8V21H96.6V16.8ZM4.2 21H8.4V25.2H4.2V21ZM8.4 21H12.6V25.2H8.4V21ZM12.6 21H16.8V25.2H12.6V21ZM16.8 21H21V25.2H16.8V21ZM21 21H25.2V25.2H21V21ZM29.4 21H33.6V25.2H29.4V21ZM33.6 21H37.8V25.2H33.6V21ZM37.8 21H42V25.2H37.8V21ZM42 21H46.2V25.2H42V21ZM46.2 21H50.4V25.2H46.2V21ZM50.4 21H54.6V25.2H50.4V21ZM63 21H67.2V25.2H63V21ZM71.4 21H75.6V25.2H71.4V21ZM79.8 21H84V25.2H79.8V21ZM84 21H88.2V25.2H84V21ZM88.2 21H92.4V25.2H88.2V21ZM92.4 21H96.6V25.2H92.4V21ZM96.6 21H100.8V25.2H96.6V21ZM29.4 25.2H33.6V29.4H29.4V25.2ZM37.8 25.2H42V29.4H37.8V25.2ZM46.2 25.2H50.4V29.4H46.2V25.2ZM54.6 25.2H58.8V29.4H54.6V25.2ZM63 25.2H67.2V29.4H63V25.2ZM71.4 25.2H75.6V29.4H71.4V25.2ZM0 29.4H4.2V33.6H0V29.4ZM4.2 29.4H8.4V33.6H4.2V29.4ZM8.4 29.4H12.6V33.6H8.4V29.4ZM12.6 29.4H16.8V33.6H12.6V29.4ZM16.8 29.4H21V33.6H16.8V29.4ZM21 29.4H25.2V33.6H21V29.4ZM25.2 29.4H29.4V33.6H25.2V29.4ZM29.4 29.4H33.6V33.6H29.4V29.4ZM33.6 29.4H37.8V33.6H33.6V29.4ZM37.8 29.4H42V33.6H37.8V29.4ZM42 29.4H46.2V33.6H42V29.4ZM46.2 29.4H50.4V33.6H46.2V29.4ZM54.6 29.4H58.8V33.6H54.6V29.4ZM63 29.4H67.2V33.6H63V29.4ZM67.2 29.4H71.4V33.6H67.2V29.4ZM71.4 29.4H75.6V33.6H71.4V29.4ZM75.6 29.4H79.8V33.6H75.6V29.4ZM79.8 29.4H84V33.6H79.8V29.4ZM84 29.4H88.2V33.6H84V29.4ZM88.2 29.4H92.4V33.6H88.2V29.4ZM92.4 29.4H96.6V33.6H92.4V29.4ZM96.6 29.4H100.8V33.6H96.6V29.4ZM100.8 29.4H105V33.6H100.8V29.4ZM8.4 33.6H12.6V37.8H8.4V33.6ZM12.6 33.6H16.8V37.8H12.6V33.6ZM16.8 33.6H21V37.8H16.8V33.6ZM33.6 33.6H37.8V37.8H33.6V33.6ZM37.8 33.6H42V37.8H37.8V33.6ZM50.4 33.6H54.6V37.8H50.4V33.6ZM67.2 33.6H71.4V37.8H67.2V33.6ZM71.4 33.6H75.6V37.8H71.4V33.6ZM75.6 33.6H79.8V37.8H75.6V33.6ZM79.8 33.6H84V37.8H79.8V33.6ZM92.4 33.6H96.6V37.8H92.4V33.6ZM96.6 33.6H100.8V37.8H96.6V33.6ZM100.8 33.6H105V37.8H100.8V33.6ZM0 37.8H4.2V42H0V37.8ZM8.4 37.8H12.6V42H8.4V37.8ZM16.8 37.8H21V42H16.8V37.8ZM21 37.8H25.2V42H21V37.8ZM25.2 37.8H29.4V42H25.2V37.8ZM37.8 37.8H42V42H37.8V37.8ZM42 37.8H46.2V42H42V37.8ZM50.4 37.8H54.6V42H50.4V37.8ZM67.2 37.8H71.4V42H67.2V37.8ZM75.6 37.8H79.8V42H75.6V37.8ZM100.8 37.8H105V42H100.8V37.8ZM0 42H4.2V46.2H0V42ZM4.2 42H8.4V46.2H4.2V42ZM21 42H25.2V46.2H21V42ZM29.4 42H33.6V46.2H29.4V42ZM33.6 42H37.8V46.2H33.6V42ZM42 42H46.2V46.2H42V42ZM46.2 42H50.4V46.2H46.2V42ZM54.6 42H58.8V46.2H54.6V42ZM67.2 42H71.4V46.2H67.2V42ZM92.4 42H96.6V46.2H92.4V42ZM8.4 46.2H12.6V50.4H8.4V46.2ZM16.8 46.2H21V50.4H16.8V46.2ZM21 46.2H25.2V50.4H21V46.2ZM25.2 46.2H29.4V50.4H25.2V46.2ZM29.4 46.2H33.6V50.4H29.4V46.2ZM33.6 46.2H37.8V50.4H33.6V46.2ZM37.8 46.2H42V50.4H37.8V46.2ZM42 46.2H46.2V50.4H42V46.2ZM50.4 46.2H54.6V50.4H50.4V46.2ZM54.6 46.2H58.8V50.4H54.6V46.2ZM63 46.2H67.2V50.4H63V46.2ZM75.6 46.2H79.8V50.4H75.6V46.2ZM84 46.2H88.2V50.4H84V46.2ZM92.4 46.2H96.6V50.4H92.4V46.2ZM96.6 46.2H100.8V50.4H96.6V46.2ZM4.2 50.4H8.4V54.6H4.2V50.4ZM33.6 50.4H37.8V54.6H33.6V50.4ZM46.2 50.4H50.4V54.6H46.2V50.4ZM54.6 50.4H58.8V54.6H54.6V50.4ZM67.2 50.4H71.4V54.6H67.2V50.4ZM71.4 50.4H75.6V54.6H71.4V50.4ZM79.8 50.4H84V54.6H79.8V50.4ZM84 50.4H88.2V54.6H84V50.4ZM88.2 50.4H92.4V54.6H88.2V50.4ZM92.4 50.4H96.6V54.6H92.4V50.4ZM96.6 50.4H100.8V54.6H96.6V50.4ZM8.4 54.6H12.6V58.8H8.4V54.6ZM12.6 54.6H16.8V58.8H12.6V54.6ZM16.8 54.6H21V58.8H16.8V54.6ZM25.2 54.6H29.4V58.8H25.2V54.6ZM33.6 54.6H37.8V58.8H33.6V54.6ZM42 54.6H46.2V58.8H42V54.6ZM50.4 54.6H54.6V58.8H50.4V54.6ZM58.8 54.6H63V58.8H58.8V54.6ZM75.6 54.6H79.8V58.8H75.6V54.6ZM84 54.6H88.2V58.8H84V54.6ZM88.2 54.6H92.4V58.8H88.2V54.6ZM92.4 54.6H96.6V58.8H92.4V54.6ZM100.8 54.6H105V58.8H100.8V54.6ZM4.2 58.8H8.4V63H4.2V58.8ZM8.4 58.8H12.6V63H8.4V58.8ZM12.6 58.8H16.8V63H12.6V58.8ZM16.8 58.8H21V63H16.8V58.8ZM21 58.8H25.2V63H21V58.8ZM29.4 58.8H33.6V63H29.4V58.8ZM33.6 58.8H37.8V63H33.6V58.8ZM37.8 58.8H42V63H37.8V58.8ZM46.2 58.8H50.4V63H46.2V58.8ZM50.4 58.8H54.6V63H50.4V58.8ZM67.2 58.8H71.4V63H67.2V58.8ZM92.4 58.8H96.6V63H92.4V58.8ZM4.2 63H8.4V67.2H4.2V63ZM8.4 63H12.6V67.2H8.4V63ZM16.8 63H21V67.2H16.8V63ZM21 63H25.2V67.2H21V63ZM25.2 63H29.4V67.2H25.2V63ZM29.4 63H33.6V67.2H29.4V63ZM33.6 63H37.8V67.2H33.6V63ZM37.8 63H42V67.2H37.8V63ZM46.2 63H50.4V67.2H46.2V63ZM54.6 63H58.8V67.2H54.6V63ZM58.8 63H63V67.2H58.8V63ZM63 63H67.2V67.2H63V63ZM67.2 63H71.4V67.2H67.2V63ZM75.6 63H79.8V67.2H75.6V63ZM84 63H88.2V67.2H84V63ZM96.6 63H100.8V67.2H96.6V63ZM4.2 67.2H8.4V71.4H4.2V67.2ZM8.4 67.2H12.6V71.4H8.4V67.2ZM21 67.2H25.2V71.4H21V67.2ZM29.4 67.2H33.6V71.4H29.4V67.2ZM42 67.2H46.2V71.4H42V67.2ZM46.2 67.2H50.4V71.4H46.2V67.2ZM63 67.2H67.2V71.4H63V67.2ZM88.2 67.2H92.4V71.4H88.2V67.2ZM96.6 67.2H100.8V71.4H96.6V67.2ZM100.8 67.2H105V71.4H100.8V67.2ZM0 71.4H4.2V75.6H0V71.4ZM4.2 71.4H8.4V75.6H4.2V71.4ZM8.4 71.4H12.6V75.6H8.4V71.4ZM12.6 71.4H16.8V75.6H12.6V71.4ZM16.8 71.4H21V75.6H16.8V71.4ZM21 71.4H25.2V75.6H21V71.4ZM25.2 71.4H29.4V75.6H25.2V71.4ZM29.4 71.4H33.6V75.6H29.4V71.4ZM42 71.4H46.2V75.6H42V71.4ZM50.4 71.4H54.6V75.6H50.4V71.4ZM54.6 71.4H58.8V75.6H54.6V71.4ZM58.8 71.4H63V75.6H58.8V71.4ZM63 71.4H67.2V75.6H63V71.4ZM71.4 71.4H75.6V75.6H71.4V71.4ZM75.6 71.4H79.8V75.6H75.6V71.4ZM79.8 71.4H84V75.6H79.8V71.4ZM88.2 71.4H92.4V75.6H88.2V71.4ZM92.4 71.4H96.6V75.6H92.4V71.4ZM96.6 71.4H100.8V75.6H96.6V71.4ZM100.8 71.4H105V75.6H100.8V71.4ZM29.4 75.6H33.6V79.8H29.4V75.6ZM42 75.6H46.2V79.8H42V75.6ZM54.6 75.6H58.8V79.8H54.6V75.6ZM63 75.6H67.2V79.8H63V75.6ZM71.4 75.6H75.6V79.8H71.4V75.6ZM79.8 75.6H84V79.8H79.8V75.6ZM88.2 75.6H92.4V79.8H88.2V75.6ZM92.4 75.6H96.6V79.8H92.4V75.6ZM96.6 75.6H100.8V79.8H96.6V75.6ZM4.2 79.8H8.4V84H4.2V79.8ZM8.4 79.8H12.6V84H8.4V79.8ZM12.6 79.8H16.8V84H12.6V79.8ZM16.8 79.8H21V84H16.8V79.8ZM21 79.8H25.2V84H21V79.8ZM29.4 79.8H33.6V84H29.4V79.8ZM46.2 79.8H50.4V84H46.2V79.8ZM54.6 79.8H58.8V84H54.6V79.8ZM71.4 79.8H75.6V84H71.4V79.8ZM75.6 79.8H79.8V84H75.6V79.8ZM79.8 79.8H84V84H79.8V79.8ZM88.2 79.8H92.4V84H88.2V79.8ZM92.4 79.8H96.6V84H92.4V79.8ZM96.6 79.8H100.8V84H96.6V79.8ZM4.2 84H8.4V88.2H4.2V84ZM21 84H25.2V88.2H21V84ZM29.4 84H33.6V88.2H29.4V84ZM33.6 84H37.8V88.2H33.6V84ZM37.8 84H42V88.2H37.8V84ZM46.2 84H50.4V88.2H46.2V84ZM50.4 84H54.6V88.2H50.4V84ZM88.2 84H92.4V88.2H88.2V84ZM96.6 84H100.8V88.2H96.6V84ZM4.2 88.2H8.4V92.4H4.2V88.2ZM21 88.2H25.2V92.4H21V88.2ZM29.4 88.2H33.6V92.4H29.4V88.2ZM33.6 88.2H37.8V92.4H33.6V88.2ZM42 88.2H46.2V92.4H42V88.2ZM50.4 88.2H54.6V92.4H50.4V88.2ZM71.4 88.2H75.6V92.4H71.4V88.2ZM79.8 88.2H84V92.4H79.8V88.2ZM84 88.2H88.2V92.4H84V88.2ZM88.2 88.2H92.4V92.4H88.2V88.2ZM92.4 88.2H96.6V92.4H92.4V88.2ZM96.6 88.2H100.8V92.4H96.6V88.2ZM100.8 88.2H105V92.4H100.8V88.2ZM4.2 92.4H8.4V96.6H4.2V92.4ZM21 92.4H25.2V96.6H21V92.4ZM29.4 92.4H33.6V96.6H29.4V92.4ZM33.6 92.4H37.8V96.6H33.6V92.4ZM46.2 92.4H50.4V96.6H46.2V92.4ZM50.4 92.4H54.6V96.6H50.4V92.4ZM63 92.4H67.2V96.6H63V92.4ZM67.2 92.4H71.4V96.6H67.2V92.4ZM71.4 92.4H75.6V96.6H71.4V92.4ZM75.6 92.4H79.8V96.6H75.6V92.4ZM79.8 92.4H84V96.6H79.8V92.4ZM84 92.4H88.2V96.6H84V92.4ZM96.6 92.4H100.8V96.6H96.6V92.4ZM4.2 96.6H8.4V100.8H4.2V96.6ZM8.4 96.6H12.6V100.8H8.4V96.6ZM12.6 96.6H16.8V100.8H12.6V96.6ZM16.8 96.6H21V100.8H16.8V96.6ZM21 96.6H25.2V100.8H21V96.6ZM29.4 96.6H33.6V100.8H29.4V96.6ZM42 96.6H46.2V100.8H42V96.6ZM46.2 96.6H50.4V100.8H46.2V96.6ZM50.4 96.6H54.6V100.8H50.4V96.6ZM54.6 96.6H58.8V100.8H54.6V96.6ZM75.6 96.6H79.8V100.8H75.6V96.6ZM88.2 96.6H92.4V100.8H88.2V96.6ZM92.4 96.6H96.6V100.8H92.4V96.6ZM96.6 96.6H100.8V100.8H96.6V96.6ZM29.4 100.8H33.6V105H29.4V100.8ZM46.2 100.8H50.4V105H46.2V100.8ZM54.6 100.8H58.8V105H54.6V100.8ZM58.8 100.8H63V105H58.8V100.8ZM63 100.8H67.2V105H63V100.8ZM75.6 100.8H79.8V105H75.6V100.8ZM79.8 100.8H84V105H79.8V100.8ZM84 100.8H88.2V105H84V100.8ZM92.4 100.8H96.6V105H92.4V100.8ZM96.6 100.8H100.8V105H96.6V100.8Z" fill="white"/>
<path d="M0 0H4.2V4.2H0V0ZM4.2 0H8.4V4.2H4.2V0ZM8.4 0H12.6V4.2H8.4V0ZM12.6 0H16.8V4.2H12.6V0ZM16.8 0H21V4.2H16.8V0ZM21 0H25.2V4.2H21V0ZM25.2 0H29.4V4.2H25.2V0ZM37.8 0H42V4.2H37.8V0ZM42 0H46.2V4.2H42V0ZM54.6 0H58.8V4.2H54.6V0ZM58.8 0H63V4.2H58.8V0ZM75.6 0H79.8V4.2H75.6V0ZM79.8 0H84V4.2H79.8V0ZM84 0H88.2V4.2H84V0ZM88.2 0H92.4V4.2H88.2V0ZM92.4 0H96.6V4.2H92.4V0ZM96.6 0H100.8V4.2H96.6V0ZM100.8 0H105V4.2H100.8V0ZM0 4.2H4.2V8.4H0V4.2ZM25.2 4.2H29.4V8.4H25.2V4.2ZM54.6 4.2H58.8V8.4H54.6V4.2ZM75.6 4.2H79.8V8.4H75.6V4.2ZM100.8 4.2H105V8.4H100.8V4.2ZM0 8.4H4.2V12.6H0V8.4ZM8.4 8.4H12.6V12.6H8.4V8.4ZM12.6 8.4H16.8V12.6H12.6V8.4ZM16.8 8.4H21V12.6H16.8V8.4ZM25.2 8.4H29.4V12.6H25.2V8.4ZM37.8 8.4H42V12.6H37.8V8.4ZM42 8.4H46.2V12.6H42V8.4ZM46.2 8.4H50.4V12.6H46.2V8.4ZM58.8 8.4H63V12.6H58.8V8.4ZM67.2 8.4H71.4V12.6H67.2V8.4ZM75.6 8.4H79.8V12.6H75.6V8.4ZM84 8.4H88.2V12.6H84V8.4ZM88.2 8.4H92.4V12.6H88.2V8.4ZM92.4 8.4H96.6V12.6H92.4V8.4ZM100.8 8.4H105V12.6H100.8V8.4ZM0 12.6H4.2V16.8H0V12.6ZM8.4 12.6H12.6V16.8H8.4V12.6ZM12.6 12.6H16.8V16.8H12.6V12.6ZM16.8 12.6H21V16.8H16.8V12.6ZM25.2 12.6H29.4V16.8H25.2V12.6ZM33.6 12.6H37.8V16.8H33.6V12.6ZM37.8 12.6H42V16.8H37.8V12.6ZM46.2 12.6H50.4V16.8H46.2V12.6ZM50.4 12.6H54.6V16.8H50.4V12.6ZM54.6 12.6H58.8V16.8H54.6V12.6ZM63 12.6H67.2V16.8H63V12.6ZM67.2 12.6H71.4V16.8H67.2V12.6ZM75.6 12.6H79.8V16.8H75.6V12.6ZM84 12.6H88.2V16.8H84V12.6ZM88.2 12.6H92.4V16.8H88.2V12.6ZM92.4 12.6H96.6V16.8H92.4V12.6ZM100.8 12.6H105V16.8H100.8V12.6ZM0 16.8H4.2V21H0V16.8ZM8.4 16.8H12.6V21H8.4V16.8ZM12.6 16.8H16.8V21H12.6V16.8ZM16.8 16.8H21V21H16.8V16.8ZM25.2 16.8H29.4V21H25.2V16.8ZM33.6 16.8H37.8V21H33.6V16.8ZM37.8 16.8H42V21H37.8V16.8ZM42 16.8H46.2V21H42V16.8ZM46.2 16.8H50.4V21H46.2V16.8ZM50.4 16.8H54.6V21H50.4V16.8ZM54.6 16.8H58.8V21H54.6V16.8ZM75.6 16.8H79.8V21H75.6V16.8ZM84 16.8H88.2V21H84V16.8ZM88.2 16.8H92.4V21H88.2V16.8ZM92.4 16.8H96.6V21H92.4V16.8ZM100.8 16.8H105V21H100.8V16.8ZM0 21H4.2V25.2H0V21ZM25.2 21H29.4V25.2H25.2V21ZM54.6 21H58.8V25.2H54.6V21ZM58.8 21H63V25.2H58.8V21ZM67.2 21H71.4V25.2H67.2V21ZM75.6 21H79.8V25.2H75.6V21ZM100.8 21H105V25.2H100.8V21ZM0 25.2H4.2V29.4H0V25.2ZM4.2 25.2H8.4V29.4H4.2V25.2ZM8.4 25.2H12.6V29.4H8.4V25.2ZM12.6 25.2H16.8V29.4H12.6V25.2ZM16.8 25.2H21V29.4H16.8V25.2ZM21 25.2H25.2V29.4H21V25.2ZM25.2 25.2H29.4V29.4H25.2V25.2ZM33.6 25.2H37.8V29.4H33.6V25.2ZM42 25.2H46.2V29.4H42V25.2ZM50.4 25.2H54.6V29.4H50.4V25.2ZM58.8 25.2H63V29.4H58.8V25.2ZM67.2 25.2H71.4V29.4H67.2V25.2ZM75.6 25.2H79.8V29.4H75.6V25.2ZM79.8 25.2H84V29.4H79.8V25.2ZM84 25.2H88.2V29.4H84V25.2ZM88.2 25.2H92.4V29.4H88.2V25.2ZM92.4 25.2H96.6V29.4H92.4V25.2ZM96.6 25.2H100.8V29.4H96.6V25.2ZM100.8 25.2H105V29.4H100.8V25.2ZM50.4 29.4H54.6V33.6H50.4V29.4ZM58.8 29.4H63V33.6H58.8V29.4ZM0 33.6H4.2V37.8H0V33.6ZM4.2 33.6H8.4V37.8H4.2V33.6ZM21 33.6H25.2V37.8H21V33.6ZM25.2 33.6H29.4V37.8H25.2V33.6ZM29.4 33.6H33.6V37.8H29.4V33.6ZM42 33.6H46.2V37.8H42V33.6ZM46.2 33.6H50.4V37.8H46.2V33.6ZM54.6 33.6H58.8V37.8H54.6V33.6ZM58.8 33.6H63V37.8H58.8V33.6ZM63 33.6H67.2V37.8H63V33.6ZM84 33.6H88.2V37.8H84V33.6ZM88.2 33.6H92.4V37.8H88.2V33.6ZM4.2 37.8H8.4V42H4.2V37.8ZM12.6 37.8H16.8V42H12.6V37.8ZM29.4 37.8H33.6V42H29.4V37.8ZM33.6 37.8H37.8V42H33.6V37.8ZM46.2 37.8H50.4V42H46.2V37.8ZM54.6 37.8H58.8V42H54.6V37.8ZM58.8 37.8H63V42H58.8V37.8ZM63 37.8H67.2V42H63V37.8ZM71.4 37.8H75.6V42H71.4V37.8ZM79.8 37.8H84V42H79.8V37.8ZM84 37.8H88.2V42H84V37.8ZM88.2 37.8H92.4V42H88.2V37.8ZM92.4 37.8H96.6V42H92.4V37.8ZM96.6 37.8H100.8V42H96.6V37.8ZM8.4 42H12.6V46.2H8.4V42ZM12.6 42H16.8V46.2H12.6V42ZM16.8 42H21V46.2H16.8V42ZM25.2 42H29.4V46.2H25.2V42ZM37.8 42H42V46.2H37.8V42ZM50.4 42H54.6V46.2H50.4V42ZM58.8 42H63V46.2H58.8V42ZM63 42H67.2V46.2H63V42ZM71.4 42H75.6V46.2H71.4V42ZM75.6 42H79.8V46.2H75.6V42ZM79.8 42H84V46.2H79.8V42ZM84 42H88.2V46.2H84V42ZM88.2 42H92.4V46.2H88.2V42ZM96.6 42H100.8V46.2H96.6V42ZM100.8 42H105V46.2H100.8V42ZM0 46.2H4.2V50.4H0V46.2ZM4.2 46.2H8.4V50.4H4.2V46.2ZM12.6 46.2H16.8V50.4H12.6V46.2ZM46.2 46.2H50.4V50.4H46.2V46.2ZM58.8 46.2H63V50.4H58.8V46.2ZM67.2 46.2H71.4V50.4H67.2V46.2ZM71.4 46.2H75.6V50.4H71.4V46.2ZM79.8 46.2H84V50.4H79.8V46.2ZM88.2 46.2H92.4V50.4H88.2V46.2ZM100.8 46.2H105V50.4H100.8V46.2ZM0 50.4H4.2V54.6H0V50.4ZM8.4 50.4H12.6V54.6H8.4V50.4ZM12.6 50.4H16.8V54.6H12.6V50.4ZM16.8 50.4H21V54.6H16.8V50.4ZM21 50.4H25.2V54.6H21V50.4ZM25.2 50.4H29.4V54.6H25.2V50.4ZM29.4 50.4H33.6V54.6H29.4V50.4ZM37.8 50.4H42V54.6H37.8V50.4ZM42 50.4H46.2V54.6H42V50.4ZM50.4 50.4H54.6V54.6H50.4V50.4ZM58.8 50.4H63V54.6H58.8V50.4ZM63 50.4H67.2V54.6H63V50.4ZM75.6 50.4H79.8V54.6H75.6V50.4ZM100.8 50.4H105V54.6H100.8V50.4ZM0 54.6H4.2V58.8H0V54.6ZM4.2 54.6H8.4V58.8H4.2V54.6ZM21 54.6H25.2V58.8H21V54.6ZM29.4 54.6H33.6V58.8H29.4V54.6ZM37.8 54.6H42V58.8H37.8V54.6ZM46.2 54.6H50.4V58.8H46.2V54.6ZM54.6 54.6H58.8V58.8H54.6V54.6ZM63 54.6H67.2V58.8H63V54.6ZM67.2 54.6H71.4V58.8H67.2V54.6ZM71.4 54.6H75.6V58.8H71.4V54.6ZM79.8 54.6H84V58.8H79.8V54.6ZM96.6 54.6H100.8V58.8H96.6V54.6ZM0 58.8H4.2V63H0V58.8ZM25.2 58.8H29.4V63H25.2V58.8ZM42 58.8H46.2V63H42V58.8ZM54.6 58.8H58.8V63H54.6V58.8ZM58.8 58.8H63V63H58.8V58.8ZM63 58.8H67.2V63H63V58.8ZM71.4 58.8H75.6V63H71.4V58.8ZM75.6 58.8H79.8V63H75.6V58.8ZM79.8 58.8H84V63H79.8V58.8ZM84 58.8H88.2V63H84V58.8ZM88.2 58.8H92.4V63H88.2V58.8ZM96.6 58.8H100.8V63H96.6V58.8ZM100.8 58.8H105V63H100.8V58.8ZM0 63H4.2V67.2H0V63ZM12.6 63H16.8V67.2H12.6V63ZM42 63H46.2V67.2H42V63ZM50.4 63H54.6V67.2H50.4V63ZM71.4 63H75.6V67.2H71.4V63ZM79.8 63H84V67.2H79.8V63ZM88.2 63H92.4V67.2H88.2V63ZM92.4 63H96.6V67.2H92.4V63ZM100.8 63H105V67.2H100.8V63ZM0 67.2H4.2V71.4H0V67.2ZM12.6 67.2H16.8V71.4H12.6V67.2ZM16.8 67.2H21V71.4H16.8V67.2ZM25.2 67.2H29.4V71.4H25.2V67.2ZM33.6 67.2H37.8V71.4H33.6V67.2ZM37.8 67.2H42V71.4H37.8V67.2ZM50.4 67.2H54.6V71.4H50.4V67.2ZM54.6 67.2H58.8V71.4H54.6V67.2ZM58.8 67.2H63V71.4H58.8V67.2ZM67.2 67.2H71.4V71.4H67.2V67.2ZM71.4 67.2H75.6V71.4H71.4V67.2ZM75.6 67.2H79.8V71.4H75.6V67.2ZM79.8 67.2H84V71.4H79.8V67.2ZM84 67.2H88.2V71.4H84V67.2ZM92.4 67.2H96.6V71.4H92.4V67.2ZM33.6 71.4H37.8V75.6H33.6V71.4ZM37.8 71.4H42V75.6H37.8V71.4ZM46.2 71.4H50.4V75.6H46.2V71.4ZM67.2 71.4H71.4V75.6H67.2V71.4ZM84 71.4H88.2V75.6H84V71.4ZM0 75.6H4.2V79.8H0V75.6ZM4.2 75.6H8.4V79.8H4.2V75.6ZM8.4 75.6H12.6V79.8H8.4V75.6ZM12.6 75.6H16.8V79.8H12.6V75.6ZM16.8 75.6H21V79.8H16.8V75.6ZM21 75.6H25.2V79.8H21V75.6ZM25.2 75.6H29.4V79.8H25.2V75.6ZM33.6 75.6H37.8V79.8H33.6V75.6ZM37.8 75.6H42V79.8H37.8V75.6ZM46.2 75.6H50.4V79.8H46.2V75.6ZM50.4 75.6H54.6V79.8H50.4V75.6ZM58.8 75.6H63V79.8H58.8V75.6ZM67.2 75.6H71.4V79.8H67.2V75.6ZM75.6 75.6H79.8V79.8H75.6V75.6ZM84 75.6H88.2V79.8H84V75.6ZM100.8 75.6H105V79.8H100.8V75.6ZM0 79.8H4.2V84H0V79.8ZM25.2 79.8H29.4V84H25.2V79.8ZM33.6 79.8H37.8V84H33.6V79.8ZM37.8 79.8H42V84H37.8V79.8ZM42 79.8H46.2V84H42V79.8ZM50.4 79.8H54.6V84H50.4V79.8ZM58.8 79.8H63V84H58.8V79.8ZM63 79.8H67.2V84H63V79.8ZM67.2 79.8H71.4V84H67.2V79.8ZM84 79.8H88.2V84H84V79.8ZM100.8 79.8H105V84H100.8V79.8ZM0 84H4.2V88.2H0V84ZM8.4 84H12.6V88.2H8.4V84ZM12.6 84H16.8V88.2H12.6V84ZM16.8 84H21V88.2H16.8V84ZM25.2 84H29.4V88.2H25.2V84ZM42 84H46.2V88.2H42V84ZM54.6 84H58.8V88.2H54.6V84ZM58.8 84H63V88.2H58.8V84ZM63 84H67.2V88.2H63V84ZM67.2 84H71.4V88.2H67.2V84ZM71.4 84H75.6V88.2H71.4V84ZM75.6 84H79.8V88.2H75.6V84ZM79.8 84H84V88.2H79.8V84ZM84 84H88.2V88.2H84V84ZM92.4 84H96.6V88.2H92.4V84ZM100.8 84H105V88.2H100.8V84ZM0 88.2H4.2V92.4H0V88.2ZM8.4 88.2H12.6V92.4H8.4V88.2ZM12.6 88.2H16.8V92.4H12.6V88.2ZM16.8 88.2H21V92.4H16.8V88.2ZM25.2 88.2H29.4V92.4H25.2V88.2ZM37.8 88.2H42V92.4H37.8V88.2ZM46.2 88.2H50.4V92.4H46.2V88.2ZM54.6 88.2H58.8V92.4H54.6V88.2ZM58.8 88.2H63V92.4H58.8V88.2ZM63 88.2H67.2V92.4H63V88.2ZM67.2 88.2H71.4V92.4H67.2V88.2ZM75.6 88.2H79.8V92.4H75.6V88.2ZM0 92.4H4.2V96.6H0V92.4ZM8.4 92.4H12.6V96.6H8.4V92.4ZM12.6 92.4H16.8V96.6H12.6V92.4ZM16.8 92.4H21V96.6H16.8V92.4ZM25.2 92.4H29.4V96.6H25.2V92.4ZM37.8 92.4H42V96.6H37.8V92.4ZM42 92.4H46.2V96.6H42V92.4ZM54.6 92.4H58.8V96.6H54.6V92.4ZM58.8 92.4H63V96.6H58.8V92.4ZM88.2 92.4H92.4V96.6H88.2V92.4ZM92.4 92.4H96.6V96.6H92.4V92.4ZM100.8 92.4H105V96.6H100.8V92.4ZM0 96.6H4.2V100.8H0V96.6ZM25.2 96.6H29.4V100.8H25.2V96.6ZM33.6 96.6H37.8V100.8H33.6V96.6ZM37.8 96.6H42V100.8H37.8V96.6ZM58.8 96.6H63V100.8H58.8V96.6ZM63 96.6H67.2V100.8H63V96.6ZM67.2 96.6H71.4V100.8H67.2V96.6ZM71.4 96.6H75.6V100.8H71.4V96.6ZM79.8 96.6H84V100.8H79.8V96.6ZM84 96.6H88.2V100.8H84V96.6ZM100.8 96.6H105V100.8H100.8V96.6ZM0 100.8H4.2V105H0V100.8ZM4.2 100.8H8.4V105H4.2V100.8ZM8.4 100.8H12.6V105H8.4V100.8ZM12.6 100.8H16.8V105H12.6V100.8ZM16.8 100.8H21V105H16.8V100.8ZM21 100.8H25.2V105H21V100.8ZM25.2 100.8H29.4V105H25.2V100.8ZM33.6 100.8H37.8V105H33.6V100.8ZM37.8 100.8H42V105H37.8V100.8ZM42 100.8H46.2V105H42V100.8ZM50.4 100.8H54.6V105H50.4V100.8ZM67.2 100.8H71.4V105H67.2V100.8ZM71.4 100.8H75.6V105H71.4V100.8ZM88.2 100.8H92.4V105H88.2V100.8ZM100.8 100.8H105V105H100.8V100.8Z" fill="black"/>
</g>
<g clip-path="url(#clip1_423_16737)">
<path d="M125.557 47.9604C123.05 47.9604 121 45.899 121 43.3727V15.8465C121 13.3202 123.05 11.2588 125.557 11.2588H239.443C241.95 11.2588 244 13.3202 244 15.8465V43.3727C244 45.899 241.95 47.9604 239.443 47.9604H125.557Z" fill="black"/>
<path d="M164.203 20.6589C164.203 21.4261 163.978 22.0383 163.525 22.4955C163.01 23.038 162.339 23.3092 161.518 23.3092C160.727 23.3092 160.057 23.0341 159.507 22.48C158.949 21.9337 158.674 21.2517 158.674 20.4341C158.674 19.6166 158.949 18.9346 159.507 18.3844C160.057 17.8342 160.727 17.5591 161.518 17.5591C161.909 17.5591 162.281 17.6366 162.638 17.7877C162.994 17.9427 163.281 18.148 163.49 18.4038L163.01 18.8881C162.653 18.4503 162.153 18.2333 161.518 18.2333C160.941 18.2333 160.441 18.4387 160.022 18.8494C159.6 19.2523 159.395 19.7832 159.395 20.4341C159.395 21.0851 159.6 21.6159 160.022 22.0189C160.441 22.4296 160.941 22.635 161.518 22.635C162.126 22.635 162.638 22.4296 163.041 22.0189C163.308 21.7516 163.459 21.3796 163.502 20.903H161.518V20.2404H164.164C164.188 20.3838 164.203 20.5233 164.203 20.6589Z" fill="white"/>
<path d="M164.203 20.6591H164.11C164.11 21.4108 163.893 21.992 163.459 22.4299V22.4337C162.963 22.9568 162.32 23.2164 161.518 23.2164C160.747 23.2164 160.104 22.953 159.569 22.4182C159.034 21.8835 158.767 21.2287 158.767 20.4344C158.767 19.64 159.034 18.9852 159.569 18.4505C160.104 17.9158 160.747 17.6523 161.518 17.6523C161.894 17.6523 162.258 17.7259 162.603 17.8732C162.948 18.0204 163.219 18.218 163.425 18.466L163.49 18.404L163.428 18.3381L162.948 18.8225L163.01 18.8883L163.084 18.8302C162.704 18.373 162.173 18.1444 161.518 18.1444C160.918 18.1444 160.394 18.3575 159.96 18.7798C159.523 19.2061 159.302 19.764 159.302 20.4344C159.302 21.1047 159.523 21.6627 159.96 22.0889C160.394 22.5112 160.918 22.7243 161.518 22.7243C162.146 22.7243 162.684 22.5112 163.107 22.0811C163.39 21.7983 163.552 21.4031 163.591 20.911L163.599 20.8102H161.607V20.3336H164.165V20.2406L164.075 20.26C164.099 20.3956 164.11 20.5312 164.11 20.6591H164.296C164.296 20.5196 164.281 20.3762 164.254 20.2251L164.242 20.1515H161.425V20.9962H163.502V20.9032L163.413 20.8955C163.37 21.3566 163.227 21.7053 162.979 21.9571C162.588 22.3485 162.107 22.5422 161.518 22.5422C160.964 22.5422 160.491 22.3485 160.084 21.9571C159.685 21.5658 159.484 21.066 159.484 20.4344C159.484 19.8028 159.685 19.3029 160.084 18.9116C160.491 18.5202 160.964 18.3265 161.518 18.3265C162.13 18.3265 162.595 18.5319 162.944 18.9465L163.01 19.024L163.556 18.466L163.614 18.4079L163.564 18.3459C163.339 18.0785 163.041 17.8615 162.673 17.7027C162.309 17.5438 161.921 17.4663 161.518 17.4663C160.704 17.4663 160.007 17.753 159.441 18.3226C158.872 18.8845 158.585 19.5974 158.585 20.4344C158.585 21.2713 158.872 21.9843 159.441 22.55C160.007 23.1157 160.704 23.4024 161.518 23.4024C162.359 23.4024 163.056 23.1196 163.591 22.5616L163.525 22.4957L163.587 22.5616C164.064 22.085 164.296 21.4457 164.296 20.6591H164.203ZM168.404 18.3575H165.912V20.105H168.156V20.7637H165.912V22.5112H168.404V23.1854H165.211V17.6833H168.404V18.3575Z" fill="white"/>
<path d="M168.404 18.3575V18.2645H165.823V20.1942H168.067V20.6746H165.823V22.6043H168.311V23.0963H165.304V17.7724H168.311V18.3575H168.404H168.497V17.5903H165.118V23.2785H168.497V22.4183H166.005V20.8567H168.249V20.012H166.005V18.4505H168.497V18.3575H168.404ZM171.364 23.1855H170.663V18.3575H169.136V17.6833H172.891V18.3575H171.364V23.1855Z" fill="white"/>
<path d="M171.364 23.1855V23.0963H170.756V18.2645H169.225V17.7724H172.801V18.2645H171.275V23.1855H171.364H171.457V18.4505H172.984V17.5903H169.043V18.4505H170.573V23.2785H171.457V23.1855H171.364ZM175.611 23.1855V17.6833H176.312V23.1855H175.611Z" fill="white"/>
<path d="M175.611 23.1855H175.704V17.7724H176.219V23.0963H175.611V23.1855V23.2785H176.401V17.5903H175.518V23.2785H175.611V23.1855ZM179.427 23.1855H178.726V18.3575H177.199V17.6833H180.958V18.3575H179.427V23.1855Z" fill="white"/>
<path d="M179.427 23.1852V23.0961H178.819V18.2643H177.289V17.7722H180.865V18.2643H179.338V23.1852H179.427H179.517V18.4503H181.047V17.5901H177.106V18.4503H178.633V23.2782H179.517V23.1852H179.427ZM184.577 22.015C184.98 22.4258 185.476 22.635 186.061 22.635C186.646 22.635 187.142 22.4258 187.545 22.015C187.952 21.6043 188.153 21.0735 188.153 20.4341C188.153 19.7948 187.952 19.264 187.545 18.8532C187.142 18.4425 186.646 18.2333 186.061 18.2333C185.476 18.2333 184.98 18.4425 184.577 18.8532C184.174 19.264 183.969 19.7948 183.969 20.4341C183.969 21.0735 184.174 21.6043 184.577 22.015ZM188.068 22.4761C187.53 23.0341 186.863 23.3092 186.061 23.3092C185.263 23.3092 184.596 23.0341 184.058 22.4761C183.519 21.922 183.252 21.2401 183.252 20.4341C183.252 19.6282 183.519 18.9462 184.058 18.3922C184.596 17.8342 185.263 17.5591 186.061 17.5591C186.855 17.5591 187.522 17.8381 188.064 18.396C188.603 18.9579 188.874 19.6321 188.874 20.4341C188.874 21.2401 188.603 21.922 188.068 22.4761Z" fill="white"/>
<path d="M184.577 22.0153L184.511 22.0812C184.93 22.5074 185.453 22.7244 186.061 22.7244C186.67 22.7244 187.193 22.5074 187.611 22.0812C188.034 21.6511 188.247 21.097 188.247 20.4344C188.247 19.7718 188.034 19.2177 187.611 18.7876C187.193 18.3614 186.67 18.1444 186.061 18.1444C185.453 18.1444 184.93 18.3614 184.511 18.7876C184.089 19.2177 183.876 19.7718 183.88 20.4344C183.876 21.097 184.089 21.6511 184.511 22.0812L184.643 21.9494C184.256 21.5542 184.062 21.0544 184.062 20.4344C184.062 19.8144 184.256 19.3146 184.643 18.9194C185.035 18.5242 185.5 18.3265 186.061 18.3265C186.627 18.3265 187.096 18.5242 187.483 18.9194C187.871 19.3146 188.061 19.8144 188.065 20.4344C188.061 21.0544 187.871 21.5542 187.483 21.9494C187.096 22.3447 186.627 22.5423 186.061 22.5423C185.5 22.5423 185.035 22.3447 184.643 21.9494L184.577 22.0153ZM188.068 22.4764L188.003 22.4105C187.48 22.9491 186.84 23.2165 186.061 23.2165C185.283 23.2165 184.647 22.9491 184.124 22.4105C183.601 21.8719 183.345 21.221 183.345 20.4344C183.345 19.6478 183.601 18.9969 184.124 18.4583C184.647 17.9197 185.283 17.6523 186.061 17.6523C186.832 17.6523 187.472 17.9197 187.999 18.4622C188.522 19.0046 188.781 19.6556 188.781 20.4344C188.781 21.221 188.522 21.8719 188.003 22.4105L188.068 22.4764L188.134 22.5384C188.685 21.9688 188.964 21.2597 188.964 20.4344C188.964 19.613 188.685 18.9078 188.13 18.3343C187.576 17.757 186.879 17.4625 186.061 17.4663C185.244 17.4625 184.546 17.7531 183.996 18.3304V18.3265C183.438 18.9 183.159 19.6091 183.159 20.4344C183.159 21.2597 183.438 21.9688 183.996 22.5384C184.546 23.1157 185.244 23.4025 186.061 23.4025C186.879 23.4025 187.58 23.1157 188.134 22.5384L188.068 22.4764ZM189.859 23.1855V17.6833H190.711L193.369 21.9649H193.4L193.369 20.9032V17.6833H194.07V23.1855H193.342L190.56 18.6946H190.529L190.56 19.7563V23.1855H189.859Z" fill="white"/>
<path d="M189.858 23.1855H189.948V17.7724H190.661L193.319 22.054H193.493L193.462 20.9032V17.7724H193.981V23.0963H193.388L190.61 18.6055H190.436L190.471 19.7563V23.0963H189.858V23.1855V23.2785H190.649V19.7563L190.622 18.6946H190.529V18.7876H190.56V18.6946L190.482 18.745L193.288 23.2785H194.163V17.5903H193.28V20.9032L193.311 21.9688L193.4 21.9649V21.8719H193.369V21.9649L193.446 21.9146L190.765 17.5903H189.765V23.2785H189.858V23.1855ZM218.431 38.7852H220.132V27.3159H218.431V38.7852ZM233.744 31.4464L231.795 36.4177H231.737L229.714 31.4464H227.881L230.915 38.3977L229.187 42.2647H230.958L235.635 31.4464H233.744ZM224.103 37.4833C223.545 37.4833 222.771 37.2004 222.771 36.5069C222.771 35.6234 223.735 35.2824 224.572 35.2824C225.316 35.2824 225.673 35.449 226.122 35.6699C225.994 36.7277 225.084 37.4833 224.103 37.4833ZM224.309 31.1946C223.077 31.1946 221.802 31.7409 221.275 32.9498L222.782 33.5853C223.104 32.9498 223.704 32.7445 224.34 32.7445C225.216 32.7445 226.107 33.2792 226.122 34.2208V34.337C225.816 34.1626 225.157 33.8953 224.351 33.8953C222.728 33.8953 221.07 34.7942 221.07 36.4797C221.07 38.0141 222.402 39.0022 223.898 39.0022C225.037 39.0022 225.673 38.4868 226.064 37.8824H226.122V38.7658H227.765V34.368C227.765 32.3337 226.258 31.1946 224.309 31.1946ZM213.8 32.8413H211.383V28.9123H213.8C215.071 28.9123 215.792 29.9702 215.792 30.8768C215.792 31.768 215.071 32.8413 213.8 32.8413ZM213.754 27.3159H209.682V38.7852H211.383V34.4416H213.754C215.641 34.4416 217.493 33.0661 217.493 30.8768C217.493 28.6876 215.641 27.3159 213.754 27.3159ZM191.544 37.4872C190.366 37.4872 189.386 36.4952 189.386 35.1313C189.386 33.7597 190.366 32.7561 191.544 32.7561C192.702 32.7561 193.613 33.7597 193.613 35.1313C193.613 36.4952 192.702 37.4872 191.544 37.4872ZM193.497 32.0858H193.435C193.055 31.6285 192.319 31.2178 191.397 31.2178C189.459 31.2178 187.685 32.9305 187.685 35.1313C187.685 37.3205 189.459 39.0216 191.397 39.0216C192.319 39.0216 193.055 38.607 193.435 38.1342H193.497V38.6961C193.497 40.1917 192.702 40.9899 191.424 40.9899C190.382 40.9899 189.738 40.2344 189.471 39.5989L187.991 40.2189C188.417 41.2534 189.545 42.5243 191.424 42.5243C193.419 42.5243 195.109 41.3425 195.109 38.4597V31.4542H193.497V32.0858ZM196.287 38.7852H197.988V27.3159H196.287V38.7852ZM200.498 35.0035C200.452 33.4923 201.657 32.7251 202.521 32.7251C203.199 32.7251 203.773 33.0622 203.959 33.5504L200.498 35.0035ZM205.78 33.6977C205.458 32.8297 204.474 31.2178 202.463 31.2178C200.467 31.2178 198.809 32.7987 198.809 35.1197C198.809 37.3089 200.452 39.0216 202.657 39.0216C204.431 39.0216 205.458 37.9289 205.884 37.2934L204.563 36.4022C204.121 37.0571 203.521 37.4872 202.657 37.4872C201.789 37.4872 201.173 37.0881 200.777 36.3015L205.958 34.1433L205.78 33.6977ZM164.498 32.4151V34.0696H168.435C168.315 35.0034 168.009 35.6815 167.536 36.1542C166.966 36.7316 166.071 37.367 164.498 37.367C162.08 37.367 160.186 35.3987 160.186 32.9615C160.186 30.5242 162.08 28.5559 164.498 28.5559C165.808 28.5559 166.761 29.0751 167.466 29.7377L168.625 28.5714C167.641 27.6259 166.335 26.9014 164.498 26.9014C161.181 26.9014 158.392 29.6175 158.392 32.9615C158.392 36.3015 161.181 39.0216 164.498 39.0216C166.292 39.0216 167.641 38.4287 168.698 37.3205C169.783 36.2279 170.124 34.6896 170.124 33.4497C170.124 33.0622 170.093 32.7096 170.031 32.4151H164.498ZM174.596 37.4872C173.422 37.4872 172.407 36.5107 172.407 35.1197C172.407 33.7132 173.422 32.7561 174.596 32.7561C175.766 32.7561 176.781 33.7132 176.781 35.1197C176.781 36.5107 175.766 37.4872 174.596 37.4872ZM174.596 31.2178C172.449 31.2178 170.706 32.8568 170.706 35.1197C170.706 37.367 172.449 39.0216 174.596 39.0216C176.739 39.0216 178.482 37.367 178.482 35.1197C178.482 32.8568 176.739 31.2178 174.596 31.2178ZM183.081 37.4872C181.904 37.4872 180.892 36.5107 180.892 35.1197C180.892 33.7132 181.904 32.7561 183.081 32.7561C184.256 32.7561 185.267 33.7132 185.267 35.1197C185.267 36.5107 184.256 37.4872 183.081 37.4872ZM183.081 31.2178C180.939 31.2178 179.191 32.8568 179.191 35.1197C179.191 37.367 180.939 39.0216 183.081 39.0216C185.22 39.0216 186.972 37.367 186.972 35.1197C186.972 32.8568 185.22 31.2178 183.081 31.2178Z" fill="white"/>
<path d="M130.574 18.2451C130.268 18.5202 130.086 18.9852 130.086 19.5974V19.4579V39.7577V39.6221C130.086 40.1917 130.245 40.6295 130.508 40.9124L130.574 40.9744V40.9782C130.787 41.172 131.066 41.2766 131.38 41.2766C131.686 41.2766 132.035 41.1797 132.399 40.9666L145.624 33.3992L150.169 30.7993C150.746 30.4699 151.072 30.0476 151.122 29.6136V29.6097C151.072 29.1758 150.746 28.7495 150.169 28.4202L145.624 25.8202L132.399 18.2529C132.035 18.0436 131.686 17.9429 131.376 17.9429C131.066 17.9429 130.787 18.0475 130.574 18.2451Z" fill="black"/>
<path d="M130.574 40.9744L130.508 40.9124C130.245 40.6295 130.086 40.1917 130.086 39.6221V39.7577V19.4657V19.5974C130.086 18.9852 130.268 18.5202 130.574 18.2451L141.861 29.6098L130.574 40.9744Z" fill="url(#paint0_linear_423_16737)"/>
<path d="M145.624 33.3993L141.861 29.6098L145.624 25.8203L150.169 28.4203C150.746 28.7496 151.072 29.1758 151.122 29.6098V29.6137C151.072 30.0477 150.746 30.47 150.169 30.7994L145.628 33.3993" fill="url(#paint1_linear_423_16737)"/>
<path d="M131.38 41.2762C131.066 41.2762 130.787 41.1716 130.574 40.9779V40.974L141.861 29.6094L145.628 33.3989L132.399 40.9663C132.035 41.1794 131.686 41.2762 131.38 41.2762Z" fill="url(#paint2_linear_423_16737)"/>
<path d="M141.861 29.6097L130.574 18.2451C130.787 18.0475 131.066 17.9429 131.376 17.9429C131.686 17.9429 132.035 18.0436 132.399 18.2529L145.624 25.8202L141.861 29.6097Z" fill="url(#paint3_linear_423_16737)"/>
<path d="M131.381 41.408C131.067 41.408 130.788 41.3073 130.575 41.1135C130.575 41.1097 130.571 41.1097 130.571 41.1097L130.513 41.0516C130.513 41.0516 130.509 41.0477 130.509 41.0438L130.575 40.9779C130.788 41.1717 131.067 41.2763 131.381 41.2763C131.687 41.2763 132.035 41.1794 132.4 40.9663L145.628 33.3989L145.713 33.488L145.624 33.5345L132.4 41.1019C132.07 41.2918 131.749 41.3887 131.466 41.408C131.439 41.408 131.408 41.408 131.381 41.408Z" fill="url(#paint4_linear_423_16737)"/>
<path d="M130.508 41.0441C130.245 40.7651 130.086 40.3234 130.086 39.7577V39.6221C130.086 40.1917 130.245 40.6295 130.508 40.9124L130.574 40.9744L130.508 41.0441Z" fill="url(#paint5_linear_423_16737)"/>
<path d="M145.713 33.488L145.624 33.3989L150.169 30.799C150.746 30.4696 151.072 30.0473 151.122 29.6133C151.122 29.7721 151.091 29.931 151.018 30.086C150.874 30.396 150.595 30.6905 150.169 30.9346L145.713 33.488Z" fill="url(#paint6_linear_423_16737)"/>
<path d="M151.122 29.6096C151.072 29.1756 150.746 28.7494 150.169 28.4201L145.624 25.8201L145.713 25.7349L150.169 28.2844C150.805 28.6487 151.122 29.1291 151.122 29.6096Z" fill="url(#paint7_linear_423_16737)"/>
<path d="M130.086 19.5973V19.4578C130.086 19.4075 130.09 19.361 130.09 19.3106V19.3067V19.299C130.117 18.8108 130.268 18.431 130.508 18.1753L130.574 18.245C130.268 18.5201 130.086 18.9851 130.086 19.5973Z" fill="url(#paint8_linear_423_16737)"/>
<path d="M145.624 25.8201L132.4 18.2528C132.035 18.0435 131.687 17.9428 131.377 17.9428C131.067 17.9428 130.788 18.0474 130.575 18.245L130.509 18.1753C130.528 18.152 130.551 18.1326 130.571 18.1133C130.571 18.1094 130.575 18.1094 130.575 18.1094C130.788 17.9157 131.059 17.8149 131.373 17.811H131.377C131.687 17.811 132.035 17.9079 132.4 18.1171L145.713 25.7349L145.624 25.8201Z" fill="url(#paint9_linear_423_16737)"/>
</g>
<g clip-path="url(#clip2_423_16737)">
<path d="M243.182 92.4774C243.182 93.4065 242.816 94.3 242.161 94.9552C241.506 95.6143 240.616 95.9836 239.687 95.9836H125.312C123.382 95.9836 121.814 94.4151 121.81 92.4774V64.5268C121.814 62.589 123.378 61.0166 125.312 61.0166H239.687C240.616 61.0166 241.502 61.3859 242.161 62.045C242.816 62.7042 243.182 63.5976 243.182 64.5268V92.4774Z" fill="white"/>
<path d="M239.688 96.7977H125.312C122.934 96.7977 121.004 94.8639 121 92.4774V64.5269C121.004 62.1404 122.934 60.2066 125.312 60.2026H239.688C242.066 60.2066 243.996 62.1404 244 64.5269V92.4774C244 94.8599 242.062 96.7977 239.688 96.7977Z" fill="black"/>
<path d="M243.182 92.4774C243.182 93.4065 242.816 94.3 242.161 94.9552C241.506 95.6143 240.616 95.9836 239.687 95.9836H125.312C123.382 95.9836 121.814 94.4151 121.81 92.4774V64.5268C121.814 62.589 123.378 61.0166 125.312 61.0166H239.687C240.616 61.0166 241.502 61.3859 242.161 62.045C242.816 62.7042 243.182 63.5976 243.182 64.5268V92.4774Z" fill="black"/>
<path d="M148.467 78.3053C148.439 75.359 150.873 73.9216 150.984 73.858C149.606 71.8409 147.47 71.5629 146.719 71.5431C144.925 71.3525 143.185 72.6191 142.272 72.6191C141.343 72.6191 139.937 71.5629 138.42 71.5907C136.467 71.6225 134.644 72.7541 133.643 74.5172C131.579 78.1068 133.119 83.384 135.097 86.2827C136.086 87.7082 137.245 89.2926 138.758 89.237C140.239 89.1774 140.791 88.288 142.582 88.288C144.353 88.288 144.869 89.237 146.414 89.2013C148.006 89.1774 149.007 87.7718 149.96 86.3383C151.107 84.7103 151.564 83.1061 151.584 83.0227C151.548 83.0108 148.494 81.8433 148.467 78.3053ZM145.548 69.6331C146.346 68.6324 146.89 67.2744 146.739 65.8926C145.584 65.9442 144.142 66.6907 143.312 67.6715C142.578 68.5332 141.923 69.9468 142.089 71.273C143.388 71.3723 144.718 70.6178 145.548 69.6331Z" fill="white"/>
<path d="M169.92 89.0345H167.852L166.716 85.4568H162.777L161.693 89.0345H159.68L163.587 76.856H165.997L169.92 89.0345ZM166.374 83.9558L165.35 80.7752C165.243 80.4496 165.036 79.6832 164.739 78.4801H164.703C164.58 78.9963 164.389 79.7626 164.127 80.7752L163.118 83.9558H166.374ZM179.947 84.5356C179.947 86.0286 179.542 87.2079 178.736 88.0736C178.009 88.8479 177.112 89.233 176.039 89.233C174.88 89.233 174.046 88.8161 173.542 87.9862V92.5923H171.596V83.1378C171.596 82.2007 171.572 81.2358 171.525 80.251H173.232L173.343 81.6448H173.379C174.026 80.5925 175.011 80.0684 176.329 80.0684C177.362 80.0684 178.223 80.4774 178.914 81.2993C179.601 82.1173 179.947 83.1974 179.947 84.5356ZM177.965 84.607C177.965 83.7493 177.775 83.0465 177.39 82.4906C176.969 81.9148 176.405 81.6249 175.698 81.6249C175.217 81.6249 174.785 81.7838 174.396 82.1014C174.002 82.4231 173.748 82.84 173.629 83.3602C173.578 83.5508 173.546 83.7533 173.538 83.9518V85.4171C173.538 86.0564 173.732 86.5964 174.126 87.0372C174.515 87.474 175.023 87.6963 175.646 87.6963C176.377 87.6963 176.949 87.4104 177.354 86.8466C177.763 86.2787 177.965 85.5322 177.965 84.607ZM190.009 84.5356C190.009 86.0286 189.604 87.2079 188.798 88.0736C188.071 88.8479 187.174 89.233 186.098 89.233C184.938 89.233 184.108 88.8161 183.6 87.9862V92.5923H181.658V83.1378C181.658 82.2007 181.634 81.2358 181.587 80.251H183.294L183.401 81.6448H183.441C184.088 80.5925 185.069 80.0684 186.391 80.0684C187.424 80.0684 188.285 80.4774 188.976 81.2993C189.663 82.1173 190.009 83.1974 190.009 84.5356ZM188.027 84.607C188.027 83.7493 187.837 83.0465 187.452 82.4906C187.031 81.9148 186.467 81.6249 185.76 81.6249C185.28 81.6249 184.847 81.7838 184.454 82.1014C184.064 82.4231 183.81 82.84 183.691 83.3602C183.632 83.5984 183.6 83.797 183.6 83.9518V85.4171C183.6 86.0564 183.794 86.5964 184.184 87.0372C184.573 87.474 185.081 87.6963 185.704 87.6963C186.439 87.6963 187.007 87.4104 187.416 86.8466C187.825 86.2787 188.027 85.5322 188.027 84.607ZM201.258 85.6156C201.258 86.652 200.897 87.4978 200.178 88.145C199.388 88.8558 198.288 89.2132 196.874 89.2132C195.568 89.2132 194.524 88.959 193.733 88.4548L194.182 86.8267C195.036 87.335 195.973 87.5891 196.989 87.5891C197.724 87.5891 198.292 87.4223 198.701 87.0888C199.106 86.7592 199.312 86.3185 199.312 85.7625C199.312 85.2702 199.142 84.8532 198.808 84.5157C198.471 84.1782 197.915 83.8645 197.132 83.5786C195.012 82.7805 193.948 81.621 193.948 80.0882C193.948 79.0916 194.321 78.2696 195.072 77.6303C195.822 76.995 196.815 76.6733 198.05 76.6733C199.154 76.6733 200.075 76.8679 200.805 77.2531L200.317 78.8414C199.63 78.4681 198.856 78.2815 197.986 78.2815C197.299 78.2815 196.763 78.4523 196.378 78.7898C196.056 79.0916 195.89 79.4569 195.89 79.8937C195.89 80.3741 196.076 80.7712 196.449 81.0849C196.771 81.3748 197.363 81.6885 198.212 82.022C199.257 82.4469 200.023 82.9393 200.516 83.5031C201.012 84.071 201.258 84.7738 201.258 85.6156ZM207.699 81.7163H205.558V85.977C205.558 87.065 205.936 87.605 206.69 87.605C207.04 87.605 207.326 87.5732 207.556 87.5137L207.607 88.9948C207.226 89.1377 206.722 89.2092 206.099 89.2092C205.328 89.2092 204.729 88.9749 204.296 88.5064C203.867 88.0338 203.649 87.2476 203.649 86.1398V81.7123H202.374V80.2471H203.649V78.6389L205.558 78.0592V80.2471H207.699V81.7163ZM217.348 84.5713C217.348 85.9174 216.963 87.0292 216.192 87.8949C215.39 88.7883 214.322 89.233 212.992 89.233C211.705 89.233 210.685 88.8042 209.922 87.9505C209.16 87.0928 208.779 86.0167 208.779 84.7142C208.779 83.3562 209.172 82.2404 209.958 81.3748C210.744 80.5052 211.805 80.0724 213.135 80.0724C214.417 80.0724 215.45 80.5012 216.228 81.3549C216.975 82.1848 217.348 83.257 217.348 84.5713ZM215.331 84.615C215.331 83.8089 215.16 83.118 214.811 82.5422C214.405 81.8433 213.822 81.4979 213.063 81.4979C212.285 81.4979 211.689 81.8433 211.28 82.5422C210.935 83.118 210.76 83.8208 210.76 84.6507C210.76 85.4568 210.935 86.1477 211.28 86.7235C211.701 87.4223 212.289 87.7678 213.047 87.7678C213.79 87.7678 214.374 87.4144 214.795 86.7076C215.152 86.1159 215.331 85.421 215.331 84.615ZM223.665 81.9664C223.463 81.9307 223.26 81.9108 223.054 81.9148C222.371 81.9148 221.843 82.1729 221.47 82.6891C221.148 83.1497 220.985 83.7255 220.985 84.4244V89.0345H219.039V83.0147C219.043 82.0935 219.024 81.1723 218.984 80.251H220.679L220.747 81.9307H220.802C221.009 81.3549 221.331 80.8903 221.775 80.5409C222.18 80.2352 222.673 80.0724 223.177 80.0684C223.36 80.0684 223.522 80.0843 223.665 80.1041V81.9664ZM232.358 84.2258C232.365 84.5236 232.342 84.8175 232.286 85.1113H226.457C226.481 85.977 226.763 86.6441 227.303 87.1007C227.795 87.5097 228.43 87.7122 229.209 87.7122C230.074 87.7122 230.861 87.5772 231.567 87.2992L231.873 88.6533C231.047 89.0146 230.07 89.1973 228.943 89.1973C227.585 89.1973 226.52 88.7962 225.746 87.9941C224.972 87.196 224.583 86.1159 224.583 84.7698C224.583 83.4476 224.944 82.3437 225.667 81.4661C226.421 80.525 227.442 80.0565 228.724 80.0565C229.983 80.0565 230.94 80.525 231.587 81.4661C232.099 82.2087 232.358 83.1299 232.358 84.2258ZM230.507 83.7215C230.519 83.1418 230.392 82.6415 230.13 82.2206C229.792 81.6766 229.272 81.4066 228.581 81.4066C227.946 81.4066 227.426 81.6686 227.033 82.2007C226.711 82.6216 226.516 83.1299 226.457 83.7176L230.507 83.7215Z" fill="white"/>
<path d="M162.213 72.5481C161.673 72.5481 161.205 72.5203 160.815 72.4766V66.5879C161.363 66.5045 161.911 66.4648 162.463 66.4648C164.691 66.4648 165.719 67.5647 165.719 69.3595C165.719 71.4323 164.504 72.5481 162.213 72.5481ZM162.543 67.2192C162.241 67.2192 161.983 67.2391 161.772 67.2828V71.7579C161.888 71.7777 162.106 71.7857 162.416 71.7857C163.877 71.7857 164.707 70.9518 164.707 69.3873C164.707 67.9935 163.956 67.2192 162.543 67.2192ZM168.916 72.5917C167.661 72.5917 166.847 71.6507 166.847 70.3721C166.847 69.0418 167.677 68.0928 168.987 68.0928C170.226 68.0928 171.056 68.9862 171.056 70.3046C171.056 71.6507 170.198 72.5917 168.916 72.5917ZM168.952 68.7917C168.265 68.7917 167.82 69.4389 167.82 70.3443C167.82 71.2337 168.273 71.881 168.944 71.881C169.615 71.881 170.067 71.19 170.067 70.3284C170.067 69.4508 169.627 68.7917 168.952 68.7917ZM178.22 68.1802L176.877 72.4964H176L175.444 70.6222C175.305 70.1616 175.19 69.697 175.098 69.2285H175.079C175.011 69.697 174.876 70.1695 174.737 70.6222L174.141 72.4964H173.256L171.993 68.1802H172.974L173.462 70.2331C173.578 70.7215 173.673 71.1821 173.752 71.6189H173.772C173.84 71.2536 173.955 70.8009 174.126 70.241L174.737 68.1802H175.515L176.099 70.1973C176.238 70.6858 176.353 71.1662 176.445 71.6189H176.468C176.532 71.1742 176.627 70.7016 176.762 70.1973L177.282 68.1802H178.22ZM183.171 72.4964H182.214V70.0187C182.214 69.2563 181.924 68.8711 181.349 68.8711C180.785 68.8711 180.396 69.3595 180.396 69.9273V72.4964H179.439V69.4151C179.439 69.0339 179.431 68.6209 179.403 68.1802H180.245L180.288 68.8433H180.316C180.57 68.3827 181.094 68.0928 181.678 68.0928C182.579 68.0928 183.171 68.7837 183.171 69.9114V72.4964ZM185.808 72.4964H184.851V66.1987H185.808V72.4964ZM189.29 72.5917C188.035 72.5917 187.217 71.6507 187.217 70.3721C187.217 69.0418 188.051 68.0928 189.358 68.0928C190.597 68.0928 191.43 68.9862 191.43 70.3046C191.43 71.6507 190.573 72.5917 189.29 72.5917ZM189.326 68.7917C188.635 68.7917 188.194 69.4389 188.194 70.3443C188.194 71.2337 188.643 71.881 189.314 71.881C189.989 71.881 190.438 71.19 190.438 70.3284C190.438 69.4508 189.997 68.7917 189.326 68.7917ZM195.195 72.4964L195.127 72.0001H195.103C194.81 72.3972 194.385 72.5917 193.845 72.5917C193.074 72.5917 192.526 72.0517 192.526 71.3251C192.526 70.2569 193.448 69.7089 195.04 69.7089V69.6295C195.04 69.0577 194.738 68.7758 194.146 68.7758C193.722 68.7758 193.352 68.883 193.023 69.0935L192.828 68.4661C193.229 68.2159 193.722 68.0928 194.305 68.0928C195.429 68.0928 195.997 68.6845 195.997 69.8757V71.468C195.997 71.9008 196.017 72.2383 196.056 72.4964H195.195ZM195.064 70.3443C194.004 70.3443 193.471 70.6024 193.471 71.2178C193.471 71.6705 193.745 71.8889 194.127 71.8889C194.611 71.8889 195.064 71.5196 195.064 71.0114V70.3443ZM200.635 72.4964L200.591 71.8016H200.563C200.289 72.3257 199.829 72.5917 199.185 72.5917C198.149 72.5917 197.379 71.6785 197.379 70.3919C197.379 69.0418 198.177 68.0888 199.261 68.0888C199.837 68.0888 200.246 68.2834 200.476 68.6765H200.492V66.1987H201.449V71.333C201.449 71.7499 201.461 72.1391 201.485 72.4964H200.635ZM200.492 69.9551C200.492 69.3516 200.095 68.8354 199.487 68.8354C198.78 68.8354 198.348 69.4667 198.348 70.3562C198.348 71.2258 198.796 71.8214 199.467 71.8214C200.067 71.8214 200.492 71.2973 200.492 70.6738V69.9551ZM207.512 72.5917C206.257 72.5917 205.443 71.6507 205.443 70.3721C205.443 69.0418 206.273 68.0928 207.584 68.0928C208.823 68.0928 209.653 68.9862 209.653 70.3046C209.656 71.6507 208.799 72.5917 207.512 72.5917ZM207.548 68.7917C206.861 68.7917 206.416 69.4389 206.416 70.3443C206.416 71.2337 206.869 71.881 207.54 71.881C208.211 71.881 208.664 71.19 208.664 70.3284C208.664 69.4508 208.223 68.7917 207.548 68.7917ZM214.791 72.4964H213.838V70.0187C213.838 69.2563 213.544 68.8711 212.968 68.8711C212.404 68.8711 212.015 69.3595 212.015 69.9273V72.4964H211.058V69.4151C211.058 69.0339 211.05 68.6209 211.022 68.1802H211.864L211.908 68.8433H211.936C212.19 68.3827 212.714 68.0888 213.298 68.0888C214.199 68.0888 214.791 68.7837 214.791 69.9114V72.4964ZM221.219 68.8989H220.167V70.9955C220.167 71.5276 220.354 71.7936 220.723 71.7936C220.894 71.7936 221.033 71.7777 221.148 71.7499L221.176 72.4766C220.989 72.5481 220.743 72.5838 220.433 72.5838C219.683 72.5838 219.23 72.1669 219.23 71.0749V68.8989H218.603V68.1802H219.23V67.39L220.167 67.1041V68.1802H221.219V68.8989ZM226.278 72.4964H225.321V70.0345C225.321 69.2642 225.031 68.8711 224.456 68.8711C223.959 68.8711 223.499 69.2086 223.499 69.8956V72.4964H222.546V66.1987H223.499V68.7917H223.519C223.82 68.3231 224.257 68.0888 224.813 68.0888C225.722 68.0888 226.278 68.7996 226.278 69.9273V72.4964ZM231.46 70.5666H228.593C228.609 71.3846 229.149 71.8452 229.947 71.8452C230.372 71.8452 230.761 71.7738 231.107 71.6427L231.254 72.3098C230.849 72.4885 230.368 72.5759 229.812 72.5759C228.466 72.5759 227.672 71.7221 227.672 70.3999C227.672 69.0776 228.486 68.0809 229.705 68.0809C230.801 68.0809 231.492 68.8989 231.492 70.1338C231.5 70.2807 231.488 70.4237 231.46 70.5666ZM230.583 69.8836C230.583 69.2205 230.249 68.748 229.638 68.748C229.09 68.748 228.657 69.2285 228.593 69.8836H230.583Z" fill="white"/>
</g>
<defs>
<linearGradient id="paint0_linear_423_16737" x1="136.334" y1="19.251" x2="132.342" y2="33.8661" gradientUnits="userSpaceOnUse">
<stop stop-color="#00A0FF"/>
<stop offset="0.00657" stop-color="#00A1FF"/>
<stop offset="0.2601" stop-color="#00BEFF"/>
<stop offset="0.5122" stop-color="#00D2FF"/>
<stop offset="0.7604" stop-color="#00DFFF"/>
<stop offset="1" stop-color="#00E3FF"/>
</linearGradient>
<linearGradient id="paint1_linear_423_16737" x1="151.827" y1="29.544" x2="129.777" y2="29.544" gradientUnits="userSpaceOnUse">
<stop stop-color="#FFE000"/>
<stop offset="0.4087" stop-color="#FFBD00"/>
<stop offset="0.7754" stop-color="#FFA500"/>
<stop offset="1" stop-color="#FF9C00"/>
</linearGradient>
<linearGradient id="paint2_linear_423_16737" x1="143.629" y1="34.1218" x2="125.084" y2="44.9869" gradientUnits="userSpaceOnUse">
<stop stop-color="#FF3A44"/>
<stop offset="1" stop-color="#C31162"/>
</linearGradient>
<linearGradient id="paint3_linear_423_16737" x1="127.666" y1="19.5002" x2="135.931" y2="24.3486" gradientUnits="userSpaceOnUse">
<stop stop-color="#32A071"/>
<stop offset="0.0685" stop-color="#2DA771"/>
<stop offset="0.4762" stop-color="#15CF74"/>
<stop offset="0.8009" stop-color="#06E775"/>
<stop offset="1" stop-color="#00F076"/>
</linearGradient>
<linearGradient id="paint4_linear_423_16737" x1="143.621" y1="36.9766" x2="123.92" y2="42.348" gradientUnits="userSpaceOnUse">
<stop stop-color="#CC2E36"/>
<stop offset="1" stop-color="#9C0E4E"/>
</linearGradient>
<linearGradient id="paint5_linear_423_16737" x1="130.481" y1="19.2753" x2="128.656" y2="34.4625" gradientUnits="userSpaceOnUse">
<stop stop-color="#008DE0"/>
<stop offset="0.00657" stop-color="#008DE0"/>
<stop offset="0.2601" stop-color="#00A7E0"/>
<stop offset="0.5122" stop-color="#00B8E0"/>
<stop offset="0.7604" stop-color="#00C4E0"/>
<stop offset="1" stop-color="#00C7E0"/>
</linearGradient>
<linearGradient id="paint6_linear_423_16737" x1="151.827" y1="29.6117" x2="129.775" y2="29.6117" gradientUnits="userSpaceOnUse">
<stop stop-color="#E0C500"/>
<stop offset="0.4087" stop-color="#E0A600"/>
<stop offset="0.7754" stop-color="#E09100"/>
<stop offset="1" stop-color="#E08900"/>
</linearGradient>
<linearGradient id="paint7_linear_423_16737" x1="151.827" y1="29.6105" x2="129.777" y2="29.6105" gradientUnits="userSpaceOnUse">
<stop stop-color="#FFE840"/>
<stop offset="0.4087" stop-color="#FFCE40"/>
<stop offset="0.7754" stop-color="#FFBC40"/>
<stop offset="1" stop-color="#FFB540"/>
</linearGradient>
<linearGradient id="paint8_linear_423_16737" x1="130.48" y1="19.266" x2="128.667" y2="33.7831" gradientUnits="userSpaceOnUse">
<stop stop-color="#40B8FF"/>
<stop offset="0.00657" stop-color="#40B9FF"/>
<stop offset="0.2601" stop-color="#40CEFF"/>
<stop offset="0.5122" stop-color="#40DDFF"/>
<stop offset="0.7604" stop-color="#40E7FF"/>
<stop offset="1" stop-color="#40EAFF"/>
</linearGradient>
<linearGradient id="paint9_linear_423_16737" x1="127.648" y1="21.0337" x2="136.445" y2="23.4325" gradientUnits="userSpaceOnUse">
<stop stop-color="#65B895"/>
<stop offset="0.0685" stop-color="#62BD95"/>
<stop offset="0.4762" stop-color="#50DB97"/>
<stop offset="0.8009" stop-color="#44ED98"/>
<stop offset="1" stop-color="#40F498"/>
</linearGradient>
<clipPath id="clip0_423_16737">
<rect width="105" height="105" fill="white"/>
</clipPath>
<clipPath id="clip1_423_16737">
<rect width="123" height="37" fill="white" transform="translate(121 11.1094)"/>
</clipPath>
<clipPath id="clip2_423_16737">
<rect width="123" height="38" fill="white" transform="translate(121 59.5)"/>
</clipPath>
</defs>
</svg>
