<svg width="17" height="22" viewBox="0 0 17 22" fill="none" xmlns="http://www.w3.org/2000/svg">
<path d="M8.46154 11C3.81356 11 0 14.2958 0 18.4277C0 23.1908 16.9231 23.1908 16.9231 18.4277C16.9231 14.2958 13.1095 11 8.46154 11ZM8.46154 12.6923C12.2253 12.6923 15.2308 15.2898 15.2308 18.4277C15.2308 19.3722 13.3085 19.9609 10.9126 20.1936L10.3519 20.241C9.12185 20.3299 7.80122 20.3299 6.57113 20.241L6.01048 20.1936C3.61459 19.9609 1.69231 19.3722 1.69231 18.4277C1.69231 15.2898 4.6978 12.6923 8.46154 12.6923Z" fill="#D5B58C"/>
<path d="M8.46154 0C5.65763 0 3.38462 2.27302 3.38462 5.07692C3.38462 7.88083 5.65763 10.1538 8.46154 10.1538C11.2654 10.1538 13.5385 7.88083 13.5385 5.07692C13.5385 2.27302 11.2654 0 8.46154 0ZM8.46154 1.69231C10.3308 1.69231 11.8462 3.20765 11.8462 5.07692C11.8462 6.94619 10.3308 8.46154 8.46154 8.46154C6.59227 8.46154 5.07692 6.94619 5.07692 5.07692C5.07692 3.20765 6.59227 1.69231 8.46154 1.69231Z" fill="#D5B58C"/>
</svg>
