<svg width="23" height="21" viewBox="0 0 23 21" fill="none" xmlns="http://www.w3.org/2000/svg">
<path d="M16.2092 0.00582832C14.6221 0.0802016 12.7847 0.868189 11.561 1.99327L11.4992 2.05137L11.4368 1.99164C10.1518 0.812169 8.18953 -0.001391 6.57066 0.000132589C2.53222 0.00442301 0 2.48093 0 7.39312C0 10.5395 2.7521 14.149 8.20676 18.3356L8.87429 18.8407C9.32795 19.1794 9.79889 19.5217 10.2871 19.8679L11.0323 20.3899C11.3136 20.5847 11.6862 20.5847 11.9675 20.3899L12.7127 19.8679C13.2009 19.5217 13.6719 19.1794 14.1256 18.8407L14.7931 18.3356C20.2479 14.149 23 10.5395 23 7.39312C23 2.4736 20.4546 -0.0218663 16.4241 0.00014434L16.2092 0.00582832ZM16.4331 1.64285C19.558 1.62591 21.3571 3.38975 21.3571 7.39312L21.354 7.54783C21.2846 9.26 20.0698 11.3129 17.6947 13.672L17.25 14.1043C16.7926 14.5399 16.2968 14.9856 15.7625 15.4412L15.2154 15.9C15.122 15.977 15.0276 16.0543 14.9322 16.1319L14.3465 16.6004C13.9475 16.915 13.5314 17.2338 13.0981 17.5569L12.4353 18.0447L11.7467 18.5388L11.5 18.7124L11.2531 18.5388C10.9024 18.2902 10.5613 18.0439 10.2299 17.8L9.58001 17.3154C9.36766 17.1549 9.15959 16.9955 8.95581 16.8372L8.35733 16.3653C7.77169 15.8968 7.2246 15.4379 6.71595 14.9889L6.22012 14.5433C6.05911 14.3958 5.90237 14.2495 5.7499 14.1043L5.30527 13.672C2.85819 11.2414 1.64286 9.13587 1.64286 7.39312C1.64286 3.39625 3.43216 1.64632 6.5723 1.64285C8.025 1.64162 10.0018 2.60312 10.832 3.76382C11.1596 4.22196 11.8406 4.22193 12.1683 3.76377C12.9634 2.65182 14.7955 1.73093 16.2462 1.64887L16.4331 1.64285Z" fill="#615438"/>
</svg>
