<svg width="30" height="20" viewBox="0 0 30 20" fill="none" xmlns="http://www.w3.org/2000/svg">
<path d="M6.68576 9.05459C6.2748 9.52035 6.06932 10.082 6.06932 10.7121C6.06932 11.2875 6.2885 11.7943 6.69946 12.219C7.12412 12.6436 7.63097 12.8491 8.20631 12.8491H11.3022C11.2748 12.9587 11.2474 13.0409 11.2063 13.1231C11.1652 13.2053 11.1378 13.2738 11.083 13.3697C11.0282 13.4656 10.9871 13.5203 10.9734 13.5751C10.8364 13.8217 10.7406 14.0409 10.6721 14.2053C10.6036 14.3697 10.5351 14.5888 10.4666 14.8765C10.3981 15.1642 10.357 15.4382 10.357 15.7258C10.357 15.9039 10.357 16.0546 10.357 16.1642C10.357 16.2738 10.3844 16.4382 10.4118 16.671C10.4392 16.8902 10.494 17.082 10.5488 17.2327C10.6036 17.3834 10.6995 17.5477 10.8227 17.7395C10.946 17.9313 11.0967 18.082 11.2748 18.1916C11.4529 18.3012 11.6721 18.3971 11.946 18.4793C12.22 18.5614 12.5214 18.6025 12.8638 18.6025C13.0556 18.6025 13.22 18.534 13.3707 18.3971C13.5214 18.2464 13.6447 18.0683 13.7543 17.8354C13.8638 17.6162 13.9323 17.4245 13.9734 17.2601C14.0145 17.0957 14.0556 16.8628 14.1104 16.5751C14.1789 16.2601 14.2337 16.0409 14.2611 15.9039C14.2885 15.7669 14.357 15.5888 14.4529 15.356C14.5488 15.1368 14.6584 14.9587 14.7954 14.8217C15.0419 14.5751 15.4118 14.1231 15.9186 13.4793C16.2885 12.9998 16.6584 12.5477 17.0419 12.1231C17.4255 11.6984 17.7132 11.4793 17.8912 11.4656C18.083 11.4519 18.2337 11.3697 18.3707 11.2327C18.5077 11.0957 18.5762 10.9313 18.5762 10.7532L18.5762 3.60254C18.5762 3.41076 18.5077 3.24637 18.3707 3.10939C18.2337 2.9724 18.0556 2.90391 17.8638 2.89021C17.6036 2.87651 17.0145 2.72583 16.0967 2.39706C15.5214 2.20528 15.0693 2.05459 14.7543 1.9587C14.4255 1.86281 13.9734 1.75322 13.3981 1.62994C12.8227 1.52035 12.2885 1.45185 11.7954 1.45185H11.6036H10.7543H10.357C9.37069 1.46555 8.63097 1.75322 8.15151 2.32857C7.72686 2.83542 7.53508 3.52035 7.60357 4.34226C7.3159 4.61624 7.11042 4.9724 7.00083 5.39706C6.87754 5.84911 6.87754 6.28747 7.00083 6.69843C6.65836 7.15048 6.49398 7.65733 6.52138 8.23268C6.52138 8.43815 6.57617 8.72583 6.68576 9.05459Z" stroke="black" stroke-width="1.50685"/>
<path d="M20.0001 11.4248H23.2193C23.4111 11.4248 23.5755 11.3563 23.7262 11.2193C23.8768 11.0823 23.9316 10.9043 23.9316 10.7125V3.57549C23.9316 3.38371 23.8631 3.21933 23.7262 3.06864C23.5892 2.93165 23.4111 2.86316 23.2193 2.86316H20.0001C19.8084 2.86316 19.644 2.93165 19.4933 3.06864C19.3563 3.20563 19.2878 3.38371 19.2878 3.57549V10.7125C19.2878 10.9043 19.3563 11.0686 19.4933 11.2193C19.644 11.3563 19.8084 11.4248 20.0001 11.4248ZM21.2878 4.4933C21.4248 4.35631 21.6029 4.28782 21.7947 4.28782C22.0001 4.28782 22.1645 4.35631 22.3015 4.4933C22.4385 4.63028 22.507 4.79467 22.507 5.00015C22.507 5.19193 22.4385 5.35631 22.3015 5.507C22.1645 5.64398 22.0001 5.71248 21.7947 5.71248C21.6029 5.71248 21.4385 5.64398 21.2878 5.507C21.1508 5.37001 21.0823 5.19193 21.0823 5.00015C21.0686 4.79467 21.1371 4.63028 21.2878 4.4933Z" stroke="black" stroke-width="1.50685"/>
</svg>
