<svg width="20" height="21" viewBox="0 0 20 21" fill="none" xmlns="http://www.w3.org/2000/svg">
<path d="M3 1.5V3H2.25C1.86537 3 1.54837 3.28953 1.50505 3.66253L1.5 3.75V18.75C1.5 19.1346 1.78953 19.4516 2.16253 19.495L2.25 19.5H17.25C17.6346 19.5 17.9516 19.2105 17.995 18.8375L18 18.75V3.75C18 3.36537 17.7105 3.04837 17.3375 3.00505L17.25 3H16.5V1.5H17.25C18.4483 1.5 19.4277 2.43669 19.4962 3.6178L19.5 3.75V18.75C19.5 19.9483 18.5633 20.9277 17.3822 20.9962L17.25 21H2.25C1.05174 21 0.0722543 20.0633 0.00381947 18.8822L0 18.75V3.75C0 2.55174 0.93669 1.57225 2.1178 1.50382L2.25 1.5H3Z" fill="#615438"/>
<path d="M13.5 16.5V15H15V16.5H13.5Z" fill="#615438"/>
<path d="M9 16.5V15H10.5V16.5H9Z" fill="#615438"/>
<path d="M4.5 16.5V15H6V16.5H4.5Z" fill="#615438"/>
<path d="M13.5 12V10.5H15V12H13.5Z" fill="#615438"/>
<path d="M9 12V10.5H10.5V12H9Z" fill="#615438"/>
<path d="M4.5 12V10.5H6V12H4.5Z" fill="#615438"/>
<path d="M0.75 7.5V6H18.75V7.5H0.75Z" fill="#615438"/>
<path d="M14.25 4.5C13.8654 4.5 13.5484 4.21047 13.505 3.83747L13.5 3.75V0.75C13.5 0.335786 13.8358 0 14.25 0C14.6346 0 14.9516 0.28953 14.995 0.662534L15 0.75V3.75C15 4.16421 14.6642 4.5 14.25 4.5Z" fill="#615438"/>
<path d="M7.5 3V1.5H12V3H7.5Z" fill="#615438"/>
<path d="M5.25 4.5C4.86537 4.5 4.54837 4.21047 4.50505 3.83747L4.5 3.75V0.75C4.5 0.335786 4.83579 0 5.25 0C5.63463 0 5.95163 0.28953 5.99495 0.662534L6 0.75V3.75C6 4.16421 5.66421 4.5 5.25 4.5Z" fill="#615438"/>
</svg>
