<svg width="18" height="18" viewBox="0 0 18 18" fill="none" xmlns="http://www.w3.org/2000/svg">
<path d="M11.6942 11.6942C11.9891 11.3992 12.4532 11.3766 12.7742 11.6261L12.8513 11.6942L17.7604 16.6033C18.0799 16.9228 18.0799 17.4408 17.7604 17.7604C17.4654 18.0553 17.0013 18.078 16.6804 17.8284L16.6033 17.7604L11.6942 12.8513C11.3747 12.5317 11.3747 12.0137 11.6942 11.6942Z" fill="#D5B58C"/>
<path d="M7.36364 0C3.29681 0 0 3.29681 0 7.36364C0 11.4305 3.29681 14.7273 7.36364 14.7273C11.4305 14.7273 14.7273 11.4305 14.7273 7.36364C14.7273 3.29681 11.4305 0 7.36364 0ZM7.36364 1.63636C10.5267 1.63636 13.0909 4.20055 13.0909 7.36364C13.0909 10.5267 10.5267 13.0909 7.36364 13.0909C4.20055 13.0909 1.63636 10.5267 1.63636 7.36364C1.63636 4.20055 4.20055 1.63636 7.36364 1.63636Z" fill="#D5B58C"/>
</svg>
