<svg width="114" height="20" viewBox="0 0 114 20" fill="none" xmlns="http://www.w3.org/2000/svg">
<path d="M16.1226 5.39542C15.518 5.66284 14.8798 5.82998 14.2081 5.93027C14.8798 5.52913 15.4173 4.89399 15.6524 4.12514C15.0142 4.49285 14.3088 4.76028 13.5363 4.92742C12.9317 4.29228 12.0584 3.89114 11.1179 3.89114C9.3041 3.89114 7.82619 5.36199 7.82619 7.16712C7.82619 7.43455 7.85978 7.66855 7.92696 7.90254C5.20626 7.76883 2.75428 6.46512 1.10843 4.45942C0.83972 4.96085 0.671776 5.4957 0.671776 6.09741C0.671776 7.23398 1.24279 8.23683 2.14968 8.83854C1.61226 8.80511 1.10843 8.6714 0.638187 8.4374V8.47083C0.638187 10.0754 1.78021 11.4125 3.2917 11.7134C3.02299 11.7802 2.72069 11.8137 2.41839 11.8137C2.21686 11.8137 1.98174 11.7802 1.78021 11.7468C2.21686 13.0505 3.42606 14.0199 4.87038 14.0199C3.72836 14.8891 2.31763 15.4239 0.772542 15.4239C0.503832 15.4239 0.235122 15.4239 0 15.3905C1.47791 16.3265 3.19094 16.8614 5.07191 16.8614C11.1515 16.8614 14.4768 11.8471 14.4768 7.5014C14.4768 7.36769 14.4768 7.20055 14.4768 7.06683C15.115 6.63227 15.686 6.06398 16.1226 5.39542Z" fill="#D5B58C"/>
<path d="M53.4223 18.7801V10.8052H50.7258V7.69729H53.4223V5.40527C53.4223 2.7454 55.0547 1.29705 57.4389 1.29705C58.5809 1.29705 59.5624 1.38167 59.8485 1.41949V4.19921L58.1949 4.19996C56.8983 4.19996 56.6472 4.81316 56.6472 5.713V7.69729H59.7396L59.337 10.8052H56.6472V18.7801H53.4223Z" fill="#D5B58C"/>
<path d="M104.226 1.75283C106.835 1.75283 107.144 1.76256 108.175 1.80934C108.795 1.81689 109.409 1.93017 109.991 2.14425C110.412 2.30608 110.795 2.55397 111.115 2.87198C111.434 3.18998 111.683 3.57105 111.846 3.99066C112.061 4.56927 112.175 5.18032 112.182 5.79722C112.229 6.82326 112.239 7.13084 112.239 9.72812C112.239 12.3254 112.229 12.633 112.182 13.659C112.175 14.2759 112.061 14.887 111.846 15.4656C111.683 15.8852 111.434 16.2663 111.115 16.5843C110.795 16.9023 110.412 17.1502 109.991 17.312C109.409 17.5261 108.795 17.6394 108.175 17.6469C107.145 17.6932 106.836 17.7034 104.226 17.7034C101.615 17.7034 101.306 17.6937 100.276 17.6469C99.656 17.6394 99.0421 17.5261 98.4607 17.312C98.039 17.1502 97.6561 16.9023 97.3366 16.5843C97.0171 16.2663 96.768 15.8852 96.6054 15.4656C96.3903 14.887 96.2765 14.2759 96.2689 13.659C96.2223 12.633 96.2121 12.3254 96.2121 9.72812C96.2121 7.13084 96.2219 6.82326 96.2689 5.79722C96.2765 5.18032 96.3903 4.56927 96.6054 3.99066C96.768 3.57105 97.0171 3.18998 97.3366 2.87198C97.6561 2.55397 98.039 2.30608 98.4607 2.14425C99.0421 1.93017 99.656 1.81689 100.276 1.80934C101.307 1.76302 101.616 1.75283 104.226 1.75283ZM104.226 0C101.573 0 101.238 0.0111173 100.196 0.0583659C99.3846 0.0744249 98.582 0.227294 97.8221 0.510471C97.1702 0.754897 96.5798 1.13793 96.092 1.63286C95.5943 2.11849 95.2091 2.70642 94.9633 3.35558C94.6788 4.11183 94.5252 4.91064 94.509 5.71801C94.4625 6.7547 94.4513 7.08729 94.4513 9.72766C94.4513 12.368 94.4625 12.7006 94.51 13.7382C94.5261 14.5456 94.6797 15.3444 94.9642 16.1007C95.2097 16.7497 95.5946 17.3377 96.092 17.8234C96.5801 18.3184 97.1708 18.7015 97.823 18.9458C98.5829 19.229 99.3855 19.3818 100.197 19.3979C101.239 19.4442 101.572 19.4562 104.227 19.4562C106.881 19.4562 107.214 19.4451 108.256 19.3979C109.068 19.3818 109.87 19.229 110.63 18.9458C111.279 18.6954 111.869 18.3129 112.361 17.8228C112.853 17.3328 113.237 16.7459 113.488 16.0997C113.773 15.3435 113.926 14.5447 113.942 13.7373C113.989 12.7006 114 12.368 114 9.72766C114 7.08729 113.989 6.7547 113.941 5.71708C113.925 4.90971 113.772 4.11091 113.487 3.35465C113.242 2.70558 112.857 2.11765 112.359 1.63193C111.871 1.1369 111.281 0.753851 110.628 0.509544C109.868 0.226367 109.066 0.0734985 108.255 0.0574395C107.213 0.0111174 106.879 0 104.226 0Z" fill="#D5B58C"/>
<path d="M104.224 4.73255C103.231 4.73255 102.261 5.02552 101.435 5.57442C100.61 6.12332 99.9665 6.90349 99.5866 7.81628C99.2067 8.72907 99.1073 9.73347 99.301 10.7025C99.4947 11.6715 99.9727 12.5616 100.675 13.2602C101.377 13.9588 102.271 14.4346 103.245 14.6273C104.218 14.8201 105.228 14.7212 106.145 14.3431C107.062 13.965 107.846 13.3247 108.397 12.5032C108.949 11.6817 109.243 10.7159 109.243 9.72793C109.243 8.40307 108.714 7.13248 107.773 6.19566C106.832 5.25884 105.555 4.73255 104.224 4.73255ZM104.224 12.9705C103.579 12.9705 102.95 12.7803 102.414 12.424C101.878 12.0677 101.46 11.5613 101.214 10.9688C100.967 10.3763 100.903 9.72433 101.028 9.09534C101.154 8.46635 101.464 7.88858 101.92 7.4351C102.376 6.98162 102.956 6.6728 103.588 6.54768C104.22 6.42257 104.875 6.48678 105.471 6.7322C106.066 6.97762 106.575 7.39323 106.933 7.92646C107.291 8.4597 107.482 9.08661 107.482 9.72793C107.482 10.5879 107.139 11.4127 106.528 12.0208C105.917 12.6289 105.088 12.9705 104.224 12.9705Z" fill="#D5B58C"/>
<path d="M109.442 5.70223C110.09 5.70223 110.615 5.17961 110.615 4.53492C110.615 3.89022 110.09 3.3676 109.442 3.3676C108.794 3.3676 108.269 3.89022 108.269 4.53492C108.269 5.17961 108.794 5.70223 109.442 5.70223Z" fill="#D5B58C"/>
</svg>
