<svg width="96" height="40" viewBox="0 0 96 40" fill="none" xmlns="http://www.w3.org/2000/svg">
<rect width="96" height="39.0625" fill="black"/>
<g clip-path="url(#clip0_423_16800)">
<path d="M38.1575 28.2303C38.1575 27.4292 38.1575 26.9109 38.1104 26.2983C38.2988 26.2983 39.6653 26.2983 40.0894 26.2983C40.9847 26.2983 41.6444 26.6282 41.6444 27.3821C41.6444 28.136 40.8904 28.4659 40.4192 28.5601C40.8904 28.6072 41.7857 28.8899 41.7857 29.7381C41.7857 30.7276 40.9376 31.1517 40.0423 31.1517C39.6182 31.1517 38.346 31.1517 38.1575 31.1517C38.2046 30.5391 38.2046 29.9737 38.2046 29.2198V28.2303H38.1575ZM39.6653 26.6753C39.4297 26.6753 39.3826 26.6753 39.2884 26.6753C39.2884 27.0051 39.2412 27.4292 39.2412 27.6648C39.2412 27.9004 39.2412 28.136 39.2412 28.3716H39.5711C39.9952 28.3716 40.4192 28.0889 40.4192 27.4763C40.4664 27.0523 40.2779 26.6753 39.6653 26.6753ZM39.6182 28.7957C39.4768 28.7957 39.3826 28.7957 39.2884 28.7957C39.2884 28.9842 39.2884 29.1727 39.2884 29.5025C39.2884 29.9266 39.2884 30.492 39.2884 30.7276C39.4297 30.7276 39.524 30.7276 39.7124 30.7276C40.1365 30.7276 40.5606 30.3978 40.5606 29.7852C40.5135 29.1255 40.2308 28.7957 39.6182 28.7957Z" fill="#F47D39"/>
<path d="M49.2307 28.2303C49.2307 27.4292 49.2307 26.9109 49.1836 26.2983C49.6077 26.2983 51.9166 26.2983 52.105 26.2983C52.105 26.3926 52.105 26.8167 52.105 26.9109C51.5396 26.8638 50.5501 26.8638 50.3616 26.8638C50.3145 27.3821 50.3616 27.8533 50.3616 28.3716C51.0213 28.3716 51.4925 28.3245 52.105 28.3245C52.0579 28.4659 52.105 28.7957 52.105 28.9371C51.5396 28.8899 50.9742 28.8899 50.3616 28.8899C50.3616 29.1727 50.3616 29.5025 50.3616 29.7852C50.3616 30.0679 50.3616 30.3507 50.3616 30.5863C50.927 30.5863 51.5396 30.6334 52.105 30.5391C52.105 30.6334 52.105 31.0575 52.105 31.1517C51.8223 31.1517 49.325 31.1517 49.1836 31.1517C49.2307 30.5391 49.2307 29.9737 49.2307 29.2198V28.2303Z" fill="#F47D39"/>
<path d="M63.7909 31.1046C63.5553 31.1046 62.7071 31.1046 62.4715 31.1046C62.3301 30.6334 62.1417 30.1151 61.9532 29.6439C61.6233 29.6439 60.4453 29.6439 60.2097 29.6439C60.0213 30.1151 59.8328 30.5863 59.6914 31.1046C59.5501 31.1046 59.0789 31.1046 58.9375 31.1046C59.3145 30.3035 60.4453 27.8062 61.105 26.2041C61.1993 26.2041 61.5762 26.2041 61.6705 26.2041C62.3301 27.8062 63.2254 29.9737 63.7909 31.1046ZM61.7647 29.2669C61.5291 28.7015 61.3406 28.136 61.105 27.5706C60.8694 28.136 60.6338 28.6543 60.3982 29.2669H61.7647Z" fill="#F47D39"/>
<path d="M69.7756 29.3611C69.7756 28.6072 69.7756 28.2303 69.7756 27.7119C69.7756 26.958 69.7756 26.4868 69.7285 26.2512C69.917 26.2512 70.1526 26.2983 70.3411 26.2983C70.5296 26.2983 70.7652 26.2983 70.9536 26.2512C70.8594 27.1465 70.8594 27.9004 70.8594 28.7015C70.8594 30.3978 71.3777 30.6805 72.3672 30.6805C73.5924 30.6805 73.6395 29.4554 73.6395 28.136C73.6395 27.4763 73.6395 26.8638 73.5924 26.2041C73.7337 26.2041 73.828 26.2512 73.9693 26.2512C74.1107 26.2512 74.2049 26.2512 74.3463 26.2041C74.2992 26.6282 74.252 27.6177 74.252 28.8428C74.252 30.492 73.4981 31.1517 72.0374 31.1517C70.8123 31.1988 69.7756 30.6805 69.7756 29.3611Z" fill="#F47D39"/>
<path d="M82.3091 27.4292C82.3091 27.1465 82.3091 26.958 82.3091 26.8638C82.0264 26.8638 81.3667 26.8638 80.8955 26.9109C80.8955 26.8167 80.8955 26.3926 80.8955 26.2983C81.6023 26.2983 84.1468 26.2983 84.8065 26.2983C84.8065 26.3926 84.8065 26.8167 84.8065 26.9109C84.3824 26.8638 83.7698 26.8638 83.44 26.8638C83.44 26.958 83.44 27.1936 83.44 27.4292V29.1727C83.44 29.9737 83.44 30.492 83.4871 31.1046C83.2986 31.1046 82.4034 31.1046 82.262 31.1046C82.3091 30.492 82.3091 29.9266 82.3091 29.1727V27.4292Z" fill="#F47D39"/>
<path d="M93.9014 28.3716C94.3255 27.8533 94.7025 26.958 95.0323 26.2512C95.1265 26.2512 95.5977 26.2512 95.7391 26.2512C95.4093 26.7695 94.6553 28.136 94.137 29.0313C94.137 29.2669 94.137 29.4083 94.137 29.6439C94.137 30.1151 94.137 30.5863 94.2313 31.1046C93.9957 31.1046 93.1475 31.1046 92.959 31.1046C92.959 30.6334 93.0532 30.1622 93.0532 29.7381C93.0532 29.5025 93.0532 29.314 93.0532 29.0784C92.5349 28.136 91.6868 26.6282 91.4512 26.2512C91.6868 26.2512 92.582 26.2512 92.8176 26.2512C93.1004 26.958 93.6658 28.0418 93.9014 28.3716Z" fill="#F47D39"/>
<path d="M18.9798 3.06816C18.8856 5.70689 18.8856 9.0524 18.8856 12.0681C18.8856 17.6282 18.9327 18.8534 20.0165 20.2199C21.0531 21.5863 22.985 22.3403 25.5295 22.3403C28.451 22.3403 30.7127 20.8795 31.5138 18.7591C31.7965 18.0052 31.985 16.9215 31.985 14.0471C31.985 9.52361 31.9378 4.95296 31.6551 0.42944C32.1734 0.47656 34.4352 0.47656 34.9535 0.42944L34.8593 2.07864C34.6708 5.09432 34.5766 12.2566 34.4823 15.7434C34.3881 19.8429 33.2101 21.7277 30.807 23.1884C29.1106 24.2251 26.7075 24.6963 24.7756 24.6963C20.4877 24.6963 15.3045 23.3769 14.5034 17.9581C14.4092 17.4869 14.4092 16.4031 14.4092 16.1204V6.64928C14.4092 4.85872 14.3149 2.17289 14.2207 0.382324C15.0689 0.476564 18.3673 0.476564 19.0741 0.382324L18.9798 3.06816Z" fill="#F47D39"/>
<path d="M40.3254 9.94768C40.3254 8.43984 40.3254 8.06288 40.2312 5.00008C40.1841 4.29328 40.137 1.13624 40.0898 0.476562C40.9851 0.665043 44.1893 0.617923 45.0846 0.476562C44.849 5.70689 44.7076 10.089 44.7076 15.4136C44.7076 17.8167 44.7547 20.0785 44.8018 22.0104H45.4615C46.4982 22.0104 51.6814 22.0104 53.8018 21.6806C53.7075 22.0575 53.6604 23.801 53.8018 24.2251C51.9641 24.1308 48.9013 24.0366 46.9694 24.0366C44.6605 24.0366 42.7286 24.0837 40.137 24.2251C40.137 23.6596 40.3726 15.6492 40.3726 14.7539L40.3254 9.94768Z" fill="#F47D39"/>
<path d="M63.7907 19.5131C63.7907 22.1518 63.9321 23.2827 64.0263 24.2722C62.9897 24.1779 60.2567 24.1308 58.9845 24.2722C59.1259 21.6335 59.3615 18.9476 59.3615 16.3089L59.3143 6.64929C59.3143 5.37705 59.2672 4.15193 59.2201 2.78545H57.4295C57.0997 2.78545 53.6599 2.87969 51.8223 3.02105C51.9165 2.59697 52.0107 0.665051 51.9165 0.240971C54.7437 0.429451 58.6547 0.429448 61.4347 0.429448C64.4033 0.429448 67.6075 0.382328 71.0472 0.193848C70.953 0.806408 70.9059 2.45561 71.0001 3.02105C68.8797 2.83257 66.3352 2.78545 63.8379 2.78545C63.7908 4.05769 63.7436 5.32993 63.7436 6.64929L63.7907 19.5131Z" fill="#F47D39"/>
<path d="M84.9486 20.4555L83.4407 16.7801C81.8858 16.733 75.9957 16.733 74.5821 16.7801C73.4513 19.4188 72.2733 22.2931 71.7078 24.2722C71.2366 24.1779 68.8806 24.1779 68.3623 24.2722L72.556 15.4136C76.1842 7.59169 78.2575 3.11528 79.1057 0.429443H81.4617C83.2051 5.00009 85.3255 9.85345 86.5978 12.7749C87.9642 15.7906 90.3202 20.9738 91.9223 24.3664C91.404 24.3193 87.1161 24.3193 86.5035 24.3664L84.9486 20.4555ZM79.0585 6.17808L75.4303 14.6597C76.7025 14.7068 77.8805 14.7539 79.1528 14.7539C79.8596 14.7539 80.9433 14.7539 82.4512 14.6597L79.0585 6.17808Z" fill="#F47D39"/>
<path d="M9.132 1.46606C3.52472 5.23567 0.273438 10.0419 0.273438 15.8377C0.273438 29.0784 16.2471 38.8323 39.0061 38.8323C49.2311 38.8323 57.7127 36.1935 64.0268 32.9423H63.6499C56.0164 35.2511 48.3359 36.1935 40.4197 36.1935C17.5194 36.1935 1.78128 25.4502 1.78128 15.5078C1.78128 9.99479 4.32576 5.23567 9.17912 1.79591L9.132 1.46606Z" fill="#F47D39"/>
<path d="M89.0945 0.382324C89.8956 0.382324 90.5081 0.994885 90.5081 1.79593C90.5081 2.59697 89.8484 3.20953 89.0945 3.20953C88.2935 3.20953 87.6338 2.59697 87.6338 1.79593C87.6809 0.994885 88.3406 0.382324 89.0945 0.382324ZM89.0945 3.02104C89.7542 3.02104 90.2725 2.50273 90.2725 1.79593C90.2725 1.08912 89.7542 0.570801 89.0945 0.570801C88.4348 0.570801 87.9165 1.08912 87.9165 1.79593C87.9165 2.50273 88.4348 3.02104 89.0945 3.02104ZM88.5291 0.947763H89.1888C89.5657 0.947763 89.7542 1.08912 89.7542 1.41896C89.7542 1.70168 89.5657 1.84304 89.3301 1.89016L89.8013 2.64408H89.5186L89.0474 1.93728H88.7647V2.64408H88.482L88.5291 0.947763ZM88.8118 1.70168H89.0945C89.3301 1.70168 89.5186 1.70168 89.5186 1.41896C89.5186 1.18336 89.3301 1.18336 89.1416 1.18336H88.8118V1.70168Z" fill="#F47D39"/>
</g>
<defs>
<clipPath id="clip0_423_16800">
<rect width="95.9835" height="39.0625" fill="white" transform="translate(0.0078125)"/>
</clipPath>
</defs>
</svg>
