<svg width="12" height="12" viewBox="0 0 12 12" fill="none" xmlns="http://www.w3.org/2000/svg">
<path d="M1.41378 0.573465L0.740829 1.24705C0.0336269 1.95635 -0.0774489 3.06514 0.474996 3.90065C2.48373 6.92423 5.07513 9.51584 8.09777 11.5243C8.9343 12.0778 10.044 11.9664 10.7533 11.2581L11.4264 10.5855C12.0245 9.98721 12.0245 9.0177 11.4266 8.4196L10.1993 7.19339C9.91229 6.9062 9.52264 6.74474 9.11633 6.74474L9.01516 6.74808C8.6458 6.77252 8.29644 6.93014 8.03314 7.19357L7.86651 7.35951L7.79188 7.29703C6.68003 6.35178 5.64646 5.31813 4.70129 4.20618L4.63901 4.13201L4.80579 3.9678C5.0944 3.67929 5.25584 3.28962 5.25584 2.8833C5.25584 2.47699 5.0944 2.08732 4.80705 1.80007L3.57931 0.57338C2.98133 -0.024474 2.01185 -0.024474 1.41378 0.573465ZM3.04913 1.10385L4.27688 2.33055C4.42345 2.47708 4.50584 2.67594 4.50584 2.8833C4.50584 3.09067 4.42345 3.28953 4.27681 3.43613L3.86692 3.84201C3.72926 3.97833 3.71809 4.19706 3.84116 4.34669C4.98487 5.73719 6.26091 7.01333 7.6513 8.15714C7.80038 8.27979 8.01821 8.26921 8.15471 8.1327L8.56355 7.72383C8.71018 7.57713 8.90901 7.49474 9.11633 7.49474C9.32366 7.49474 9.52249 7.57713 9.66907 7.72377L10.8963 8.94999C11.2013 9.25506 11.2013 9.74985 10.8962 10.0551L10.2232 10.7275C9.76616 11.1839 9.051 11.2557 8.51224 10.8992C5.57333 8.94641 3.05321 6.42607 1.10015 3.48631C0.744523 2.94846 0.816119 2.23377 1.27194 1.77659L1.9442 1.1037C2.24924 0.79873 2.74394 0.79873 3.04913 1.10385Z" fill="black"/>
</svg>
