<svg width="12" height="12" viewBox="0 0 12 12" fill="none" xmlns="http://www.w3.org/2000/svg">
<path d="M10.4848 0.5C11.0455 0.5 11.5 0.954535 11.5 1.51523V8.41487C11.5 8.97557 11.0455 9.43011 10.4848 9.43011L5.7632 9.43007L3.09032 11.4349C2.88851 11.5863 2.60558 11.4597 2.57299 11.2208L2.56989 11.1747L2.5695 9.43007L1.51523 9.43011C0.977898 9.43011 0.538062 9.01266 0.502342 8.48438L0.5 8.41487V1.51523C0.5 0.954535 0.954535 0.5 1.51523 0.5H10.4848ZM10.4848 1.15054H1.51523C1.31382 1.15054 1.15054 1.31382 1.15054 1.51523V8.41487C1.15054 8.61629 1.31382 8.77957 1.51523 8.77957H2.89516C3.0748 8.77957 3.22043 8.9252 3.22043 9.10484L3.22004 10.5238L5.45986 8.84462C5.5049 8.81084 5.55773 8.78948 5.6131 8.78228L5.65502 8.77957H10.4848C10.6862 8.77957 10.8495 8.61629 10.8495 8.41487V1.51523C10.8495 1.31382 10.6862 1.15054 10.4848 1.15054Z" fill="black"/>
</svg>
