<svg width="38" height="24" viewBox="0 0 38 24" fill="none" xmlns="http://www.w3.org/2000/svg">
<path d="M37.0206 0.149414H0.979381C0.438484 0.149414 0 0.587898 0 1.1288V22.8711C0 23.412 0.438484 23.8504 0.979381 23.8504H37.0206C37.5615 23.8504 38 23.412 38 22.8711V1.1288C38 0.587898 37.5615 0.149414 37.0206 0.149414Z" fill="#F47D3A"/>
<path d="M16.1915 14.4723C16.1915 14.247 16.1915 14.0923 16.1738 13.916C16.2208 13.916 16.6165 13.916 16.7399 13.916C17.0004 13.916 17.1767 14.0081 17.1767 14.2275C17.1767 14.4468 16.9573 14.5389 16.8241 14.5604C16.9554 14.5604 17.2159 14.6564 17.2159 14.8993C17.2159 15.1873 16.9691 15.3009 16.7125 15.3009C16.5989 15.3009 16.2228 15.3009 16.1758 15.3009C16.1895 15.1226 16.1934 14.9679 16.1934 14.7446L16.1915 14.4723ZM16.6243 14.0296C16.5892 14.0263 16.5538 14.0263 16.5186 14.0296C16.5186 14.1295 16.5186 14.2412 16.5186 14.3097C16.5186 14.3783 16.5186 14.4468 16.5186 14.5056H16.6145C16.6479 14.5065 16.681 14.5004 16.7119 14.4878C16.7427 14.4752 16.7706 14.4564 16.7938 14.4324C16.817 14.4085 16.835 14.38 16.8466 14.3488C16.8582 14.3175 16.8633 14.2842 16.8614 14.251C16.863 14.2203 16.8579 14.1896 16.8464 14.1611C16.835 14.1326 16.8175 14.1069 16.7951 14.0858C16.7728 14.0648 16.7461 14.0488 16.7169 14.0391C16.6878 14.0294 16.6568 14.0262 16.6263 14.0296H16.6243ZM16.6067 14.6447H16.5147C16.5147 14.7015 16.5147 14.7583 16.5147 14.8406C16.5147 14.9679 16.5147 15.1226 16.5147 15.1931H16.6341C16.6681 15.1923 16.7015 15.1843 16.7322 15.1699C16.7629 15.1554 16.7902 15.1347 16.8125 15.1091C16.8348 15.0835 16.8515 15.0536 16.8616 15.0212C16.8717 14.9887 16.875 14.9546 16.8711 14.9209C16.8711 14.7289 16.7791 14.6447 16.6067 14.6447Z" fill="white"/>
<path d="M19.3516 14.4723C19.3516 14.247 19.3516 14.0923 19.334 13.916C19.4613 13.916 20.1175 13.916 20.1704 13.916C20.1655 13.974 20.1655 14.0323 20.1704 14.0903C20.0059 14.0806 19.7336 14.0806 19.6689 14.0806C19.6592 14.2275 19.6689 14.3587 19.6689 14.5036C19.8648 14.5036 19.9961 14.5036 20.1606 14.488C20.1533 14.5452 20.1533 14.6031 20.1606 14.6603C19.9961 14.6486 19.8354 14.6427 19.6689 14.6427C19.6689 14.7269 19.6689 14.8131 19.6689 14.8993C19.6689 14.9855 19.6689 15.0541 19.6689 15.1344C19.8342 15.1402 19.9996 15.137 20.1645 15.1246C20.1595 15.1839 20.1595 15.2435 20.1645 15.3028C20.0862 15.3028 19.381 15.3028 19.3281 15.3028C19.3399 15.1246 19.3458 14.9698 19.3458 14.7465L19.3516 14.4723Z" fill="white"/>
<path d="M23.5059 15.3029C23.4374 15.3029 23.1925 15.3029 23.1318 15.3029C23.0868 15.1657 23.0378 15.0267 22.9829 14.8915H22.4815C22.4243 15.0256 22.3753 15.1629 22.3346 15.3029C22.2648 15.2986 22.1948 15.2986 22.125 15.3029C22.2308 15.0796 22.554 14.3626 22.7401 13.9043C22.7948 13.9078 22.8498 13.9078 22.9046 13.9043C23.0887 14.3646 23.3434 14.9757 23.5059 15.3029ZM22.932 14.772C22.8693 14.6095 22.8086 14.4508 22.7361 14.2941C22.6637 14.4508 22.5951 14.6095 22.5403 14.772H22.932Z" fill="white"/>
<path d="M25.2188 14.8014C25.2188 14.584 25.2188 14.4762 25.2188 14.3293C25.2188 14.1158 25.2188 13.9826 25.2188 13.916C25.2775 13.916 25.3382 13.9258 25.395 13.9258C25.4518 13.9258 25.5145 13.9258 25.5713 13.916C25.5485 14.1503 25.5387 14.3858 25.5419 14.6212C25.5419 15.1109 25.6928 15.1931 25.9748 15.1931C26.3196 15.1931 26.3431 14.8445 26.3431 14.4703C26.3431 14.2843 26.3431 14.1021 26.3254 13.916C26.3617 13.922 26.3984 13.9252 26.4351 13.9258C26.4712 13.9252 26.5072 13.9219 26.5429 13.916C26.5292 14.0355 26.5155 14.3215 26.5155 14.6701C26.5155 15.1363 26.2961 15.3302 25.8789 15.3302C25.5047 15.3302 25.2188 15.1775 25.2188 14.8014Z" fill="white"/>
<path d="M28.7941 14.2529C28.798 14.1968 28.798 14.1405 28.7941 14.0844C28.7099 14.0844 28.5257 14.0844 28.4023 14.1001C28.4086 14.0415 28.4086 13.9824 28.4023 13.9238C28.5982 13.9238 29.3288 13.9238 29.513 13.9238C29.5065 13.9824 29.5065 14.0415 29.513 14.1001C29.3954 14.0864 29.2113 14.0844 29.1212 14.0844C29.1212 14.1138 29.1212 14.1745 29.1212 14.2509V14.7543C29.1212 14.9796 29.1212 15.1343 29.1388 15.3106C29.0918 15.3106 28.8313 15.3106 28.7843 15.3106C28.798 15.1324 28.8019 14.9776 28.8019 14.7543L28.7941 14.2529Z" fill="white"/>
<path d="M32.0919 14.5194C32.2183 14.3282 32.3278 14.1263 32.419 13.9161C32.4842 13.9198 32.5496 13.9198 32.6149 13.9161C32.5209 14.0669 32.2995 14.4508 32.1624 14.6996C32.1624 14.7642 32.1624 14.8132 32.1624 14.8778C32.16 15.0185 32.1672 15.1592 32.184 15.299C32.1232 15.299 31.8764 15.299 31.8157 15.299C31.8157 15.1697 31.8412 15.0345 31.8412 14.9072C31.8412 14.8445 31.8412 14.7818 31.8412 14.7113C31.6923 14.443 31.4494 14.012 31.3789 13.8984C31.4435 13.8984 31.7001 13.8984 31.7707 13.8984C31.8706 14.0943 32.0312 14.4097 32.0919 14.5017V14.5194Z" fill="white"/>
<path d="M10.7305 7.29514C10.6991 8.04926 10.6991 9.00318 10.6991 9.8572C10.6991 11.436 10.7187 11.7944 11.0164 12.1823C11.3142 12.5701 11.8665 12.7875 12.5834 12.7875C13.412 12.7875 14.0682 12.3703 14.2934 11.765C14.3757 11.5476 14.4266 11.2381 14.4266 10.4252C14.4266 9.13442 14.4266 7.8338 14.3346 6.54297C14.6483 6.56213 14.963 6.56213 15.2767 6.54297L15.2454 7.01895C15.1945 7.87297 15.1631 9.91792 15.1435 10.9228C15.124 12.098 14.7753 12.6308 14.0995 13.048C13.5718 13.3351 12.9785 13.4802 12.3778 13.4692C11.1496 13.4692 9.67468 13.0911 9.45138 11.5515C9.4348 11.3764 9.42761 11.2005 9.42983 11.0246V8.32741C9.42983 7.82205 9.40829 7.04638 9.37891 6.54102C9.8394 6.5703 10.3013 6.5703 10.7618 6.54102L10.7305 7.29514Z" fill="white"/>
<path d="M16.8108 9.26753C16.8108 8.83268 16.8108 8.73475 16.7814 7.85526C16.7716 7.64763 16.7501 6.75835 16.7403 6.57031C17.2133 6.61429 17.6893 6.61429 18.1623 6.57031C18.0918 8.06289 18.0605 9.31258 18.0605 10.8326C18.0605 11.524 18.0801 12.1685 18.0918 12.711H18.2759C18.5717 12.711 20.0388 12.711 20.6499 12.6209C20.6151 12.8639 20.6151 13.1106 20.6499 13.3535C20.1289 13.332 19.2494 13.2928 18.6912 13.2928C18.037 13.2928 17.4826 13.3124 16.7324 13.3535C16.7324 13.1948 16.8029 10.9011 16.8029 10.6524L16.8108 9.26753Z" fill="white"/>
<path d="M23.5059 11.9963C23.5001 12.4492 23.5243 12.902 23.5784 13.3518C23.0978 13.3164 22.6153 13.3164 22.1348 13.3518C22.1759 12.5996 22.2366 11.8376 22.2366 11.0874L22.2268 8.32753C22.2268 7.96124 22.217 7.61454 22.2053 7.22866H21.694C21.602 7.22866 20.6206 7.25021 20.0977 7.29918C20.1352 7.03973 20.1425 6.77679 20.1192 6.51567C20.9282 6.56464 22.0407 6.56464 22.8301 6.56464C23.6802 6.56464 24.593 6.54897 25.5724 6.5C25.5381 6.76773 25.5348 7.03853 25.5626 7.30701C24.9593 7.24825 24.2326 7.2365 23.5255 7.2365C23.5157 7.59299 23.5039 7.96907 23.5039 8.34516L23.5059 11.9963Z" fill="white"/>
<path d="M29.5468 12.2645L29.1178 11.2205C28.6791 11.2009 26.9965 11.2009 26.5891 11.2205C26.2782 11.9182 26.0056 12.6322 25.7723 13.3595C25.4566 13.3392 25.1399 13.3392 24.8242 13.3595L25.9995 10.8131C27.0317 8.58988 27.6194 7.30885 27.8721 6.54102H28.538C29.0277 7.85143 29.6389 9.2304 30.0071 10.0668C30.3989 10.9247 31.0668 12.4173 31.5271 13.3673C31.3743 13.3673 30.156 13.3673 29.9777 13.3673L29.5468 12.2645ZM27.8642 8.1805L26.8241 10.6094C27.1806 10.6094 27.5293 10.6368 27.8858 10.6368C28.0816 10.6368 28.3911 10.6368 28.824 10.6094L27.8642 8.1805Z" fill="white"/>
<path d="M7.90963 6.84668C6.3152 7.92792 5.37891 9.2873 5.37891 10.9503C5.37891 14.7209 9.93303 17.5082 16.4263 17.5082C18.9072 17.521 21.3555 16.9422 23.568 15.8198H23.4563C21.3031 16.4524 19.0681 16.7633 16.824 16.7423C10.2974 16.7423 5.80396 13.6788 5.79808 10.8484C5.79808 9.28142 6.52478 7.92204 7.91159 6.93091L7.90963 6.84668Z" fill="white"/>
<path d="M30.7258 6.53325C30.8063 6.53402 30.8847 6.55862 30.9513 6.60395C31.0178 6.64927 31.0694 6.71328 31.0996 6.78791C31.1298 6.86253 31.1372 6.94442 31.1208 7.02325C31.1045 7.10207 31.0652 7.1743 31.0079 7.23081C30.9506 7.28731 30.8778 7.32557 30.7987 7.34076C30.7197 7.35594 30.6379 7.34737 30.5637 7.31612C30.4895 7.28487 30.4263 7.23235 30.3819 7.16518C30.3375 7.09801 30.3141 7.0192 30.3145 6.93871C30.3145 6.88497 30.3251 6.83176 30.3459 6.78218C30.3666 6.7326 30.397 6.68763 30.4353 6.64991C30.4736 6.61218 30.519 6.58243 30.5688 6.56241C30.6187 6.54238 30.6721 6.53247 30.7258 6.53325ZM30.7258 7.28737C30.7947 7.28931 30.8626 7.2707 30.9208 7.23389C30.979 7.19708 31.025 7.14376 31.0528 7.08072C31.0806 7.01768 31.089 6.94778 31.0769 6.87995C31.0648 6.81212 31.0328 6.74944 30.9849 6.69989C30.937 6.65034 30.8755 6.61619 30.8081 6.60177C30.7407 6.58736 30.6706 6.59335 30.6066 6.61898C30.5427 6.64461 30.4878 6.68871 30.449 6.74565C30.4102 6.8026 30.3893 6.86981 30.3889 6.93871C30.3873 6.98393 30.3949 7.02901 30.4111 7.07125C30.4273 7.11349 30.4519 7.15203 30.4833 7.18457C30.5148 7.21711 30.5524 7.24299 30.5941 7.26065C30.6358 7.27831 30.6805 7.2874 30.7258 7.28737ZM30.5671 6.69974H30.7532C30.8668 6.69974 30.9197 6.74479 30.9197 6.83685C30.9205 6.85371 30.9179 6.87056 30.9119 6.88635C30.9059 6.90214 30.8968 6.91654 30.885 6.92865C30.8733 6.94077 30.8592 6.95035 30.8436 6.9568C30.828 6.96324 30.8112 6.96642 30.7944 6.96613L30.9315 7.17572H30.8512L30.7219 6.97984H30.6435V7.17572H30.5573L30.5671 6.69974ZM30.6416 6.91129H30.718C30.7826 6.91129 30.8433 6.91129 30.8433 6.83294C30.8433 6.75459 30.7885 6.76046 30.7395 6.76046H30.6416V6.91129Z" fill="white"/>
</svg>
