<svg width="48" height="48" viewBox="0 0 48 48" fill="none" xmlns="http://www.w3.org/2000/svg">
<rect x="0.5" y="0.5" width="47" height="47" rx="23.5" fill="white" fill-opacity="0.66"/>
<path d="M25.2803 32.0303C24.9874 32.3232 24.5126 32.3232 24.2197 32.0303C23.9493 31.76 23.9285 31.3345 24.1573 31.0403L24.2197 30.9697L31.1888 24L24.2197 17.0303C23.9493 16.76 23.9285 16.3345 24.1573 16.0403L24.2197 15.9697C24.49 15.6993 24.9155 15.6785 25.2097 15.9073L25.2803 15.9697L32.7803 23.4697C33.0507 23.74 33.0715 24.1655 32.8427 24.4597L32.7803 24.5303L25.2803 32.0303Z" fill="#222222"/>
<path d="M30.75 23.25C31.1642 23.25 31.5 23.5858 31.5 24C31.5 24.3846 31.2105 24.7016 30.8375 24.745L30.75 24.75L15.75 24.75C15.3358 24.75 15 24.4142 15 24C15 23.6154 15.2895 23.2984 15.6625 23.255L15.75 23.25L30.75 23.25Z" fill="#222222"/>
<rect x="0.5" y="0.5" width="47" height="47" rx="23.5" stroke="white"/>
</svg>
