<svg width="33" height="34" viewBox="0 0 33 34" fill="none" xmlns="http://www.w3.org/2000/svg">
<path d="M2.23396 32.6987L8.73125 27.5014L28.875 27.5C31.1532 27.5 33 25.6532 33 23.375V4.125C33 1.84683 31.1532 0 28.875 0H4.125C1.84683 0 0 1.84683 0 4.125V31.625C0 32.7779 1.33366 33.4189 2.23396 32.6987ZM7.39105 25.0513L2.75 28.7664V4.125C2.75 3.36561 3.36561 2.75 4.125 2.75H28.875C29.6344 2.75 30.25 3.36561 30.25 4.125V23.375C30.25 24.1344 29.6344 24.75 28.875 24.75H8.25C7.93778 24.75 7.63485 24.8563 7.39105 25.0513Z" fill="white"/>
<path d="M9.625 17.877C8.86561 17.877 8.25 17.2613 8.25 16.502C8.25 15.7968 8.78081 15.2156 9.46465 15.1362L9.625 15.127H15.125C15.8844 15.127 16.5 15.7426 16.5 16.502C16.5 17.2071 15.9692 17.7883 15.2854 17.8677L15.125 17.877H9.625Z" fill="white"/>
<path d="M9.625 12.377C8.86561 12.377 8.25 11.7613 8.25 11.002C8.25 10.2968 8.78081 9.71563 9.46465 9.6362L9.625 9.62695H23.375C24.1344 9.62695 24.75 10.2426 24.75 11.002C24.75 11.7071 24.2192 12.2883 23.5354 12.3677L23.375 12.377H9.625Z" fill="white"/>
</svg>
