<svg width="24" height="24" viewBox="0 0 24 24" fill="none" xmlns="http://www.w3.org/2000/svg">
<path d="M9.469 5.395H14.531C14.608 5.146 14.647 4.885 14.647 4.618C14.647 3.154 13.462 1.969 12 1.969C10.538 1.969 9.353 3.154 9.353 4.618C9.353 4.885 9.392 5.145 9.469 5.395ZM1 6.063C1.031 5.719 1.295 5.448 1.629 5.401L1.731 5.394L7.959 5.395C7.91 5.141 7.886 4.88 7.886 4.618C7.886 2.344 9.728 0.5 12 0.5C14.272 0.5 16.115 2.344 16.115 4.618C16.115 4.881 16.089 5.141 16.04 5.395L22.27 5.394L22.371 5.401C22.704 5.448 22.97 5.719 23 6.063L21.535 22.8C21.518 23.186 21.199 23.5 20.802 23.5H3.198C2.8 23.5 2.482 23.186 2.465 22.8L1 6.063ZM20.001 22.032L21.475 6.862H2.525L3.998 22.032H20.001Z" fill="black"/>
</svg>
