<svg width="38" height="24" viewBox="0 0 38 24" fill="none" xmlns="http://www.w3.org/2000/svg">
<path d="M37.0206 0.149414H0.979381C0.438484 0.149414 0 0.587898 0 1.1288V22.8711C0 23.412 0.438484 23.8504 0.979381 23.8504H37.0206C37.5615 23.8504 38 23.412 38 22.8711V1.1288C38 0.587898 37.5615 0.149414 37.0206 0.149414Z" fill="#F47D3A"/>
<path d="M16.1915 14.4718C16.1915 14.2466 16.1915 14.0918 16.1738 13.9155C16.2208 13.9155 16.6165 13.9155 16.7399 13.9155C17.0004 13.9155 17.1767 14.0076 17.1767 14.227C17.1767 14.4464 16.9573 14.5384 16.8241 14.56C16.9554 14.56 17.2159 14.6559 17.2159 14.8988C17.2159 15.1868 16.9691 15.3004 16.7125 15.3004C16.5989 15.3004 16.2228 15.3004 16.1758 15.3004C16.1895 15.1221 16.1934 14.9674 16.1934 14.7441L16.1915 14.4718ZM16.6243 14.0291C16.5892 14.0258 16.5538 14.0258 16.5186 14.0291C16.5186 14.129 16.5186 14.2407 16.5186 14.3092C16.5186 14.3778 16.5186 14.4464 16.5186 14.5051H16.6145C16.6479 14.506 16.681 14.4999 16.7119 14.4873C16.7427 14.4747 16.7706 14.4559 16.7938 14.4319C16.817 14.408 16.835 14.3795 16.8466 14.3483C16.8582 14.3171 16.8633 14.2837 16.8614 14.2505C16.863 14.2198 16.8579 14.1891 16.8464 14.1606C16.835 14.1321 16.8175 14.1064 16.7951 14.0853C16.7728 14.0643 16.7461 14.0483 16.7169 14.0386C16.6878 14.0289 16.6568 14.0257 16.6263 14.0291H16.6243ZM16.6067 14.6442H16.5147C16.5147 14.701 16.5147 14.7578 16.5147 14.8401C16.5147 14.9674 16.5147 15.1221 16.5147 15.1926H16.6341C16.6681 15.1918 16.7015 15.1839 16.7322 15.1694C16.7629 15.1549 16.7902 15.1342 16.8125 15.1086C16.8348 15.083 16.8515 15.0531 16.8616 15.0207C16.8717 14.9883 16.875 14.9541 16.8711 14.9204C16.8711 14.7284 16.7791 14.6442 16.6067 14.6442Z" fill="white"/>
<path d="M19.3526 14.4718C19.3526 14.2466 19.3526 14.0918 19.335 13.9155C19.4623 13.9155 20.1185 13.9155 20.1714 13.9155C20.1664 13.9735 20.1664 14.0319 20.1714 14.0899C20.0068 14.0801 19.7346 14.0801 19.6699 14.0801C19.6601 14.227 19.6699 14.3582 19.6699 14.5032C19.8658 14.5032 19.997 14.5032 20.1616 14.4875C20.1543 14.5447 20.1543 14.6026 20.1616 14.6599C19.997 14.6481 19.8364 14.6422 19.6699 14.6422C19.6699 14.7265 19.6699 14.8126 19.6699 14.8988C19.6699 14.985 19.6699 15.0536 19.6699 15.1339C19.8352 15.1397 20.0006 15.1365 20.1655 15.1241C20.1605 15.1834 20.1605 15.243 20.1655 15.3023C20.0871 15.3023 19.382 15.3023 19.3291 15.3023C19.3409 15.1241 19.3467 14.9693 19.3467 14.746L19.3526 14.4718Z" fill="white"/>
<path d="M23.505 15.3024C23.4364 15.3024 23.1915 15.3024 23.1308 15.3024C23.0858 15.1653 23.0368 15.0262 22.982 14.891H22.4805C22.4234 15.0251 22.3743 15.1624 22.3336 15.3024C22.2638 15.2981 22.1938 15.2981 22.124 15.3024C22.2298 15.0791 22.553 14.3622 22.7391 13.9038C22.7939 13.9073 22.8488 13.9073 22.9036 13.9038C23.0877 14.3641 23.3424 14.9753 23.505 15.3024ZM22.931 14.7715C22.8684 14.609 22.8076 14.4503 22.7352 14.2936C22.6627 14.4503 22.5941 14.609 22.5393 14.7715H22.931Z" fill="white"/>
<path d="M25.2188 14.8009C25.2188 14.5835 25.2188 14.4757 25.2188 14.3288C25.2188 14.1153 25.2188 13.9821 25.2188 13.9155C25.2775 13.9155 25.3382 13.9253 25.395 13.9253C25.4518 13.9253 25.5145 13.9253 25.5713 13.9155C25.5485 14.1499 25.5387 14.3853 25.5419 14.6207C25.5419 15.1104 25.6928 15.1926 25.9748 15.1926C26.3196 15.1926 26.3431 14.844 26.3431 14.4699C26.3431 14.2838 26.3431 14.1016 26.3254 13.9155C26.3617 13.9215 26.3984 13.9247 26.4351 13.9253C26.4712 13.9247 26.5072 13.9214 26.5429 13.9155C26.5292 14.035 26.5155 14.321 26.5155 14.6697C26.5155 15.1358 26.2961 15.3298 25.8789 15.3298C25.5047 15.3298 25.2188 15.177 25.2188 14.8009Z" fill="white"/>
<path d="M28.7941 14.2524C28.798 14.1963 28.798 14.14 28.7941 14.084C28.7099 14.084 28.5257 14.084 28.4023 14.0996C28.4086 14.041 28.4086 13.9819 28.4023 13.9233C28.5982 13.9233 29.3288 13.9233 29.513 13.9233C29.5065 13.9819 29.5065 14.041 29.513 14.0996C29.3954 14.0859 29.2113 14.084 29.1212 14.084C29.1212 14.1133 29.1212 14.1741 29.1212 14.2505V14.7539C29.1212 14.9791 29.1212 15.1339 29.1388 15.3101C29.0918 15.3101 28.8313 15.3101 28.7843 15.3101C28.798 15.1319 28.8019 14.9772 28.8019 14.7539L28.7941 14.2524Z" fill="white"/>
<path d="M32.0919 14.5189C32.2183 14.3277 32.3278 14.1258 32.419 13.9156C32.4842 13.9193 32.5496 13.9193 32.6149 13.9156C32.5209 14.0664 32.2995 14.4503 32.1624 14.6991C32.1624 14.7637 32.1624 14.8127 32.1624 14.8773C32.16 15.018 32.1672 15.1587 32.184 15.2985C32.1232 15.2985 31.8764 15.2985 31.8157 15.2985C31.8157 15.1692 31.8412 15.034 31.8412 14.9067C31.8412 14.844 31.8412 14.7814 31.8412 14.7108C31.6923 14.4425 31.4494 14.0116 31.3789 13.8979C31.4435 13.8979 31.7001 13.8979 31.7707 13.8979C31.8706 14.0938 32.0312 14.4092 32.0919 14.5012V14.5189Z" fill="white"/>
<path d="M10.7305 7.29514C10.6991 8.04926 10.6991 9.00318 10.6991 9.8572C10.6991 11.436 10.7187 11.7944 11.0164 12.1823C11.3142 12.5701 11.8665 12.7875 12.5834 12.7875C13.412 12.7875 14.0682 12.3703 14.2934 11.765C14.3757 11.5476 14.4266 11.2381 14.4266 10.4252C14.4266 9.13442 14.4266 7.8338 14.3346 6.54297C14.6483 6.56213 14.963 6.56213 15.2767 6.54297L15.2454 7.01895C15.1945 7.87297 15.1631 9.91792 15.1435 10.9228C15.124 12.098 14.7753 12.6308 14.0995 13.048C13.5718 13.3351 12.9785 13.4802 12.3778 13.4692C11.1496 13.4692 9.67468 13.0911 9.45138 11.5515C9.4348 11.3764 9.42761 11.2005 9.42983 11.0246V8.32741C9.42983 7.82205 9.40829 7.04638 9.37891 6.54102C9.8394 6.5703 10.3013 6.5703 10.7618 6.54102L10.7305 7.29514Z" fill="white"/>
<path d="M16.8098 9.26753C16.8098 8.83268 16.8098 8.73475 16.7804 7.85526C16.7706 7.64763 16.7491 6.75835 16.7393 6.57031C17.2123 6.61429 17.6883 6.61429 18.1613 6.57031C18.0908 8.06289 18.0595 9.31258 18.0595 10.8326C18.0595 11.524 18.0791 12.1685 18.0908 12.711H18.275C18.5707 12.711 20.0378 12.711 20.649 12.6209C20.6141 12.8639 20.6141 13.1106 20.649 13.3535C20.1279 13.332 19.2485 13.2928 18.6902 13.2928C18.036 13.2928 17.4817 13.3124 16.7314 13.3535C16.7314 13.1948 16.802 10.9011 16.802 10.6524L16.8098 9.26753Z" fill="white"/>
<path d="M23.5049 11.9958C23.4991 12.4487 23.5233 12.9015 23.5774 13.3513C23.0968 13.3159 22.6143 13.3159 22.1338 13.3513C22.1749 12.5991 22.2356 11.8371 22.2356 11.0869L22.2259 8.32704C22.2259 7.96075 22.2161 7.61405 22.2043 7.22817H21.6931C21.601 7.22817 20.6197 7.24972 20.0967 7.29869C20.1343 7.03924 20.1415 6.7763 20.1182 6.51518C20.9272 6.56415 22.0398 6.56415 22.8292 6.56415C23.6793 6.56415 24.592 6.54848 25.5714 6.49951C25.5371 6.76724 25.5339 7.03804 25.5616 7.30652C24.9583 7.24776 24.2316 7.23601 23.5245 7.23601C23.5147 7.5925 23.503 7.96858 23.503 8.34467L23.5049 11.9958Z" fill="white"/>
<path d="M29.5458 12.2645L29.1168 11.2205C28.6781 11.2009 26.9955 11.2009 26.5881 11.2205C26.2773 11.9182 26.0046 12.6322 25.7713 13.3595C25.4556 13.3392 25.1389 13.3392 24.8232 13.3595L25.9985 10.8131C27.0308 8.58988 27.6184 7.30885 27.8711 6.54102H28.5371C29.0267 7.85143 29.6379 9.2304 30.0061 10.0668C30.3979 10.9247 31.0658 12.4173 31.5261 13.3673C31.3733 13.3673 30.155 13.3673 29.9767 13.3673L29.5458 12.2645ZM27.8632 8.1805L26.8231 10.6094C27.1796 10.6094 27.5283 10.6368 27.8848 10.6368C28.0807 10.6368 28.3901 10.6368 28.823 10.6094L27.8632 8.1805Z" fill="white"/>
<path d="M7.90963 6.84619C6.3152 7.92743 5.37891 9.28681 5.37891 10.9498C5.37891 14.7204 9.93303 17.5077 16.4263 17.5077C18.9072 17.5205 21.3555 16.9417 23.568 15.8193H23.4563C21.3031 16.4519 19.0681 16.7628 16.824 16.7419C10.2974 16.7419 5.80396 13.6784 5.79808 10.8479C5.79808 9.28093 6.52478 7.92155 7.91159 6.93042L7.90963 6.84619Z" fill="white"/>
<path d="M30.7248 6.53325C30.8053 6.53402 30.8838 6.55862 30.9503 6.60395C31.0168 6.64927 31.0684 6.71328 31.0986 6.78791C31.1288 6.86253 31.1362 6.94442 31.1199 7.02325C31.1035 7.10207 31.0642 7.1743 31.0069 7.23081C30.9496 7.28731 30.8768 7.32557 30.7978 7.34076C30.7187 7.35594 30.6369 7.34737 30.5627 7.31612C30.4886 7.28487 30.4253 7.23235 30.3809 7.16518C30.3366 7.09801 30.3131 7.0192 30.3135 6.93871C30.3135 6.88497 30.3242 6.83176 30.3449 6.78218C30.3656 6.7326 30.396 6.68763 30.4343 6.64991C30.4726 6.61218 30.518 6.58243 30.5679 6.56241C30.6177 6.54238 30.6711 6.53247 30.7248 6.53325ZM30.7248 7.28737C30.7937 7.28931 30.8616 7.2707 30.9198 7.23389C30.9781 7.19708 31.024 7.14376 31.0518 7.08072C31.0796 7.01768 31.088 6.94778 31.0759 6.87995C31.0638 6.81212 31.0318 6.74944 30.9839 6.69989C30.9361 6.65034 30.8745 6.61619 30.8071 6.60177C30.7398 6.58736 30.6696 6.59335 30.6057 6.61898C30.5417 6.64461 30.4868 6.68871 30.448 6.74565C30.4093 6.8026 30.3883 6.86981 30.3879 6.93871C30.3863 6.98393 30.3939 7.02901 30.4101 7.07125C30.4263 7.11349 30.4509 7.15203 30.4823 7.18457C30.5138 7.21711 30.5515 7.24299 30.5931 7.26065C30.6348 7.27831 30.6796 7.2874 30.7248 7.28737ZM30.5662 6.69974H30.7522C30.8659 6.69974 30.9187 6.74479 30.9187 6.83685C30.9195 6.85371 30.9169 6.87056 30.9109 6.88635C30.905 6.90214 30.8958 6.91654 30.8841 6.92865C30.8723 6.94077 30.8582 6.95035 30.8426 6.9568C30.827 6.96324 30.8103 6.96642 30.7934 6.96613L30.9305 7.17572H30.8502L30.7209 6.97984H30.6426V7.17572H30.5564L30.5662 6.69974ZM30.6406 6.91129H30.717C30.7816 6.91129 30.8423 6.91129 30.8423 6.83294C30.8423 6.75459 30.7875 6.76046 30.7385 6.76046H30.6406V6.91129Z" fill="white"/>
</svg>
