<svg width="70" height="17" viewBox="0 0 70 17" fill="none" xmlns="http://www.w3.org/2000/svg">
<g clip-path="url(#clip0_398_14594)">
<path d="M5.99837 0.5C6.07203 0.500036 6.14424 0.520411 6.20706 0.558877C6.26988 0.597343 6.32085 0.652408 6.35437 0.718L7.99037 3.9585L11.1384 4.2705C11.2133 4.27673 11.2849 4.3043 11.3446 4.34994C11.4043 4.39557 11.4498 4.45737 11.4755 4.52801C11.5012 4.59866 11.5062 4.67519 11.4897 4.74856C11.4733 4.82192 11.4362 4.88905 11.3829 4.942L8.79187 7.51L9.75237 10.9995C9.76703 11.0548 9.76958 11.1126 9.75983 11.169C9.75009 11.2254 9.72828 11.2791 9.69591 11.3262C9.66353 11.3734 9.62135 11.4131 9.57224 11.4425C9.52313 11.4718 9.46826 11.4903 9.41137 11.4965L9.35487 11.4985C9.29748 11.4966 9.24118 11.4823 9.18987 11.4565L5.99837 9.8765L2.81087 11.4545C2.7765 11.4719 2.73978 11.4842 2.70187 11.491L2.64587 11.4965C2.58391 11.4986 2.52234 11.4861 2.46605 11.4601C2.40977 11.4342 2.36034 11.3954 2.32172 11.3469C2.2831 11.2984 2.25635 11.2416 2.24361 11.1809C2.23088 11.1202 2.2325 11.0574 2.24837 10.9975L3.20837 7.508L0.616367 4.94C0.562995 4.88705 0.525907 4.81992 0.509493 4.74656C0.493079 4.67319 0.498026 4.59666 0.523748 4.52601C0.54947 4.45537 0.59489 4.39357 0.654634 4.34794C0.714378 4.3023 0.785946 4.27473 0.860867 4.2685L4.00887 3.9565L5.64237 0.718C5.67588 0.652408 5.72686 0.597343 5.78967 0.558877C5.85249 0.520411 5.92471 0.500036 5.99837 0.5Z" fill="black"/>
</g>
<g clip-path="url(#clip1_398_14594)">
<path d="M19.9984 0.5C20.072 0.500036 20.1442 0.520411 20.2071 0.558877C20.2699 0.597343 20.3209 0.652408 20.3544 0.718L21.9904 3.9585L25.1384 4.2705C25.2133 4.27673 25.2849 4.3043 25.3446 4.34994C25.4043 4.39557 25.4498 4.45737 25.4755 4.52801C25.5012 4.59866 25.5062 4.67519 25.4897 4.74856C25.4733 4.82192 25.4362 4.88905 25.3829 4.942L22.7919 7.51L23.7524 10.9995C23.767 11.0548 23.7696 11.1126 23.7598 11.169C23.7501 11.2254 23.7283 11.2791 23.6959 11.3262C23.6635 11.3734 23.6213 11.4131 23.5722 11.4425C23.5231 11.4718 23.4683 11.4903 23.4114 11.4965L23.3549 11.4985C23.2975 11.4966 23.2412 11.4823 23.1899 11.4565L19.9984 9.8765L16.8109 11.4545C16.7765 11.4719 16.7398 11.4842 16.7019 11.491L16.6459 11.4965C16.5839 11.4986 16.5223 11.4861 16.4661 11.4601C16.4098 11.4342 16.3603 11.3954 16.3217 11.3469C16.2831 11.2984 16.2563 11.2416 16.2436 11.1809C16.2309 11.1202 16.2325 11.0574 16.2484 10.9975L17.2084 7.508L14.6164 4.94C14.563 4.88705 14.5259 4.81992 14.5095 4.74656C14.4931 4.67319 14.498 4.59666 14.5237 4.52601C14.5495 4.45537 14.5949 4.39357 14.6546 4.34794C14.7144 4.3023 14.7859 4.27473 14.8609 4.2685L18.0089 3.9565L19.6424 0.718C19.6759 0.652408 19.7269 0.597343 19.7897 0.558877C19.8525 0.520411 19.9247 0.500036 19.9984 0.5Z" fill="black"/>
</g>
<g clip-path="url(#clip2_398_14594)">
<path d="M33.9984 0.5C34.072 0.500036 34.1442 0.520411 34.2071 0.558877C34.2699 0.597343 34.3209 0.652408 34.3544 0.718L35.9904 3.9585L39.1384 4.2705C39.2133 4.27673 39.2849 4.3043 39.3446 4.34994C39.4043 4.39557 39.4498 4.45737 39.4755 4.52801C39.5012 4.59866 39.5062 4.67519 39.4897 4.74856C39.4733 4.82192 39.4362 4.88905 39.3829 4.942L36.7919 7.51L37.7524 10.9995C37.767 11.0548 37.7696 11.1126 37.7598 11.169C37.7501 11.2254 37.7283 11.2791 37.6959 11.3262C37.6635 11.3734 37.6213 11.4131 37.5722 11.4425C37.5231 11.4718 37.4683 11.4903 37.4114 11.4965L37.3549 11.4985C37.2975 11.4966 37.2412 11.4823 37.1899 11.4565L33.9984 9.8765L30.8109 11.4545C30.7765 11.4719 30.7398 11.4842 30.7019 11.491L30.6459 11.4965C30.5839 11.4986 30.5223 11.4861 30.4661 11.4601C30.4098 11.4342 30.3603 11.3954 30.3217 11.3469C30.2831 11.2984 30.2563 11.2416 30.2436 11.1809C30.2309 11.1202 30.2325 11.0574 30.2484 10.9975L31.2084 7.508L28.6164 4.94C28.563 4.88705 28.5259 4.81992 28.5095 4.74656C28.4931 4.67319 28.498 4.59666 28.5237 4.52601C28.5495 4.45537 28.5949 4.39357 28.6546 4.34794C28.7144 4.3023 28.7859 4.27473 28.8609 4.2685L32.0089 3.9565L33.6424 0.718C33.6759 0.652408 33.7269 0.597343 33.7897 0.558877C33.8525 0.520411 33.9247 0.500036 33.9984 0.5Z" fill="black"/>
</g>
<g clip-path="url(#clip3_398_14594)">
<path d="M47.9984 0.5C48.072 0.500036 48.1442 0.520411 48.2071 0.558877C48.2699 0.597343 48.3209 0.652408 48.3544 0.718L49.9904 3.9585L53.1384 4.2705C53.2133 4.27673 53.2849 4.3043 53.3446 4.34994C53.4043 4.39557 53.4498 4.45737 53.4755 4.52801C53.5012 4.59866 53.5062 4.67519 53.4897 4.74856C53.4733 4.82192 53.4362 4.88905 53.3829 4.942L50.7919 7.51L51.7524 10.9995C51.767 11.0548 51.7696 11.1126 51.7598 11.169C51.7501 11.2254 51.7283 11.2791 51.6959 11.3262C51.6635 11.3734 51.6213 11.4131 51.5722 11.4425C51.5231 11.4718 51.4683 11.4903 51.4114 11.4965L51.3549 11.4985C51.2975 11.4966 51.2412 11.4823 51.1899 11.4565L47.9984 9.8765L44.8109 11.4545C44.7765 11.4719 44.7398 11.4842 44.7019 11.491L44.6459 11.4965C44.5839 11.4986 44.5223 11.4861 44.4661 11.4601C44.4098 11.4342 44.3603 11.3954 44.3217 11.3469C44.2831 11.2984 44.2563 11.2416 44.2436 11.1809C44.2309 11.1202 44.2325 11.0574 44.2484 10.9975L45.2084 7.508L42.6164 4.94C42.563 4.88705 42.5259 4.81992 42.5095 4.74656C42.4931 4.67319 42.498 4.59666 42.5237 4.52601C42.5495 4.45537 42.5949 4.39357 42.6546 4.34794C42.7144 4.3023 42.7859 4.27473 42.8609 4.2685L46.0089 3.9565L47.6424 0.718C47.6759 0.652408 47.7269 0.597343 47.7897 0.558877C47.8525 0.520411 47.9247 0.500036 47.9984 0.5Z" fill="black"/>
</g>
<g clip-path="url(#clip4_398_14594)">
<path d="M61.9984 0.5C62.072 0.500036 62.1442 0.520411 62.2071 0.558877C62.2699 0.597343 62.3209 0.652408 62.3544 0.718L63.9904 3.9585L67.1384 4.2705C67.2133 4.27673 67.2849 4.3043 67.3446 4.34994C67.4043 4.39557 67.4498 4.45737 67.4755 4.52801C67.5012 4.59866 67.5062 4.67519 67.4897 4.74856C67.4733 4.82192 67.4362 4.88905 67.3829 4.942L64.7919 7.51L65.7524 10.9995C65.767 11.0548 65.7696 11.1126 65.7598 11.169C65.7501 11.2254 65.7283 11.2791 65.6959 11.3262C65.6635 11.3734 65.6213 11.4131 65.5722 11.4425C65.5231 11.4718 65.4683 11.4903 65.4114 11.4965L65.3549 11.4985C65.2975 11.4966 65.2412 11.4823 65.1899 11.4565L61.9984 9.8765L58.8109 11.4545C58.7765 11.4719 58.7398 11.4842 58.7019 11.491L58.6459 11.4965C58.5839 11.4986 58.5223 11.4861 58.4661 11.4601C58.4098 11.4342 58.3603 11.3954 58.3217 11.3469C58.2831 11.2984 58.2563 11.2416 58.2436 11.1809C58.2309 11.1202 58.2325 11.0574 58.2484 10.9975L59.2084 7.508L56.6164 4.94C56.563 4.88705 56.5259 4.81992 56.5095 4.74656C56.4931 4.67319 56.498 4.59666 56.5237 4.52601C56.5495 4.45537 56.5949 4.39357 56.6546 4.34794C56.7144 4.3023 56.7859 4.27473 56.8609 4.2685L60.0089 3.9565L61.6424 0.718C61.6759 0.652408 61.7269 0.597343 61.7897 0.558877C61.8525 0.520411 61.9247 0.500036 61.9984 0.5Z" fill="black"/>
</g>
<defs>
<clipPath id="clip0_398_14594">
<rect width="12" height="12" fill="white"/>
</clipPath>
<clipPath id="clip1_398_14594">
<rect width="12" height="12" fill="white" transform="translate(14)"/>
</clipPath>
<clipPath id="clip2_398_14594">
<rect width="12" height="12" fill="white" transform="translate(28)"/>
</clipPath>
<clipPath id="clip3_398_14594">
<rect width="12" height="12" fill="white" transform="translate(42)"/>
</clipPath>
<clipPath id="clip4_398_14594">
<rect width="12" height="12" fill="white" transform="translate(56)"/>
</clipPath>
</defs>
</svg>
