<svg width="30" height="20" viewBox="0 0 30 20" fill="none" xmlns="http://www.w3.org/2000/svg">
<path d="M23.3142 10.9454C23.7252 10.4797 23.9307 9.91801 23.9307 9.28787C23.9307 8.71253 23.7115 8.20568 23.3005 7.78102C22.8759 7.35636 22.369 7.15089 21.7937 7.15089H18.6978C18.7252 7.0413 18.7526 6.9591 18.7937 6.87691C18.8348 6.79472 18.8622 6.72623 18.917 6.63034C18.9718 6.53445 19.0129 6.47965 19.0266 6.42486C19.1636 6.17828 19.2594 5.9591 19.3279 5.79472C19.3964 5.63034 19.4649 5.41116 19.5334 5.12349C19.6019 4.83582 19.643 4.56184 19.643 4.27417C19.643 4.09609 19.643 3.94541 19.643 3.83582C19.643 3.72623 19.6156 3.56184 19.5882 3.32897C19.5608 3.10979 19.506 2.91801 19.4512 2.76732C19.3964 2.61664 19.3005 2.45226 19.1773 2.26047C19.054 2.06869 18.9033 1.91801 18.7252 1.80842C18.5471 1.69883 18.3279 1.60294 18.054 1.52075C17.78 1.43856 17.4786 1.39746 17.1362 1.39746C16.9444 1.39746 16.78 1.46595 16.6293 1.60294C16.4786 1.75363 16.3553 1.93171 16.2457 2.16458C16.1362 2.38376 16.0677 2.57554 16.0266 2.73993C15.9855 2.90431 15.9444 3.13719 15.8896 3.42486C15.8211 3.73993 15.7663 3.9591 15.7389 4.09609C15.7115 4.23308 15.643 4.41116 15.5471 4.64404C15.4512 4.86321 15.3416 5.0413 15.2046 5.17828C14.9581 5.42486 14.5882 5.87691 14.0814 6.52075C13.7115 7.0002 13.3416 7.45226 12.9581 7.87691C12.5745 8.30157 12.2868 8.52075 12.1088 8.53445C11.917 8.54815 11.7663 8.63034 11.6293 8.76732C11.4923 8.90431 11.4238 9.06869 11.4238 9.24678V16.3975C11.4238 16.5892 11.4923 16.7536 11.6293 16.8906C11.7663 17.0276 11.9444 17.0961 12.1362 17.1098C12.3964 17.1235 12.9855 17.2742 13.9033 17.6029C14.4786 17.7947 14.9307 17.9454 15.2457 18.0413C15.5745 18.1372 16.0266 18.2468 16.6019 18.3701C17.1773 18.4797 17.7115 18.5481 18.2046 18.5481H18.3964H19.2457H19.643C20.6293 18.5344 21.369 18.2468 21.8485 17.6714C22.2731 17.1646 22.4649 16.4797 22.3964 15.6577C22.6841 15.3838 22.8896 15.0276 22.9992 14.6029C23.1225 14.1509 23.1225 13.7125 22.9992 13.3016C23.3416 12.8495 23.506 12.3427 23.4786 11.7673C23.4786 11.5618 23.4238 11.2742 23.3142 10.9454Z" stroke="black" stroke-width="1.50685"/>
<path d="M9.99987 8.5752H6.78069C6.58891 8.5752 6.42452 8.64369 6.27384 8.78067C6.12315 8.91766 6.06836 9.09574 6.06836 9.28752V16.4245C6.06836 16.6163 6.13685 16.7807 6.27384 16.9314C6.41083 17.0683 6.58891 17.1368 6.78069 17.1368H9.99987C10.1916 17.1368 10.356 17.0683 10.5067 16.9314C10.6437 16.7944 10.7122 16.6163 10.7122 16.4245V9.28752C10.7122 9.09574 10.6437 8.93136 10.5067 8.78067C10.356 8.64369 10.1916 8.5752 9.99987 8.5752ZM8.71219 15.5067C8.57521 15.6437 8.39713 15.7122 8.20535 15.7122C7.99987 15.7122 7.83548 15.6437 7.6985 15.5067C7.56151 15.3697 7.49302 15.2053 7.49302 14.9999C7.49302 14.8081 7.56151 14.6437 7.6985 14.493C7.83548 14.356 7.99987 14.2875 8.20535 14.2875C8.39713 14.2875 8.56151 14.356 8.71219 14.493C8.84918 14.63 8.91767 14.8081 8.91767 14.9999C8.93137 15.2053 8.86288 15.3697 8.71219 15.5067Z" stroke="black" stroke-width="1.50685"/>
</svg>
